<?xml version="1.0" encoding="utf-8"?>
<!-- Generator: Adobe Illustrator 24.1.1, SVG Export Plug-In . SVG Version: 6.00 Build 0)  -->
<svg version="1.1" id="Layer_1" xmlns="http://www.w3.org/2000/svg" xmlns:xlink="http://www.w3.org/1999/xlink" x="0px" y="0px"
	 viewBox="0 0 332 215" style="enable-background:new 0 0 332 215;" xml:space="preserve">
<style type="text/css">
	.st0{fill:#F2F1F8;}
	.st1{fill:#65C5B2;}
	.st2{fill:none;stroke:#4BA5A2;stroke-width:1.629;stroke-linecap:round;stroke-miterlimit:10;}
	.st3{fill:#FBAE2C;}
	.st4{fill:#FFFFFF;}
	.st5{fill:#FBAE2C;stroke:#FFFFFF;stroke-width:1.249;stroke-linecap:round;stroke-linejoin:round;stroke-miterlimit:10;}
	.st6{fill:#42439B;}
	.st7{fill:#EF4569;}
	.st8{fill:#263238;}
	.st9{fill:#455B64;}
	.st10{fill:#E4BAAB;}
	.st11{fill:#D78776;}
	.st12{fill:#E0E0E0;}
	.st13{fill:#E7515B;}
	.st14{opacity:0.02;}
	.st15{opacity:0.02;enable-background:new    ;}
	.st16{fill:#5958A6;}
</style>
<g id="Group_7">
	<ellipse id="Oval" class="st0" cx="164.67" cy="175.33" rx="163.5" ry="37"/>
	<path id="Path" class="st1" d="M274.26,163.23c21.91,4.83,45.12-9.9,45.4-18.63s-21.02,9.39-24.11,0.51
		c-3.09-8.88,23.17-12.45,23.54-21.84c0.37-9.39-23.21,12.78-25.03,6.78c-1.82-6,20.92-20.2,17.54-27.1
		c-3.38-6.9-17.12,17.39-21.04,14.11c-3.92-3.28,11.95-25.9,2.4-27.64s-7.9,19.07-11.23,23.3c-3.33,4.23-3.13-20.02-8.82-18.16
		c-5.69,1.86,4.05,25.21,0.2,28.36s-9.58-17.59-16.04-12.8c-6.46,4.79,10.2,18.02,8.61,24.2c-1.59,6.18-12.4-12.28-18.2-7.4
		C241.68,131.81,255.91,159.19,274.26,163.23z"/>
	<path id="Path-2" class="st2" d="M290.61,96.16c0,0-9.92,39.68-22.06,76"/>
	<path id="Path-3" class="st2" d="M310.34,127.55c0,0-27.19,13.38-36.1,25.56c0,0,0.33-21.7-13.55-36.55"/>
	<path id="Path-4" class="st2" d="M303.93,110.26c0,0-20.28,19.28-26.64,33.69c0,0,1.65-26.05-2.57-39.83"/>
	<path id="Path-5" class="st2" d="M314.2,147.17c0,0-36.76,6.07-41.38,12.13c0,0-10.18-22.74-22.82-28.81"/>
	<path id="Path-6" class="st1" d="M276.09,152.98c5.66-12.83,23.2-40.17,38.29-36.38c17.4,4.38-22.01,31.44-22.01,31.44
		s27.09-15.44,34.41-3.3s-32.52,13.77-32.52,13.77s21.05-1.43,17.89,6.41s-36.95,0.82-40.41,8.3S272.21,161.77,276.09,152.98z"/>
	<path id="Path-7" class="st2" d="M272.27,169.95c5.24-13.85,13.35-26.44,23.79-36.94c3.85-3.82,8.06-7.25,12.58-10.24"/>
	<path id="Path-8" class="st2" d="M272.46,170.23c11.38-14.01,28.68-23.01,46.48-23.46"/>
	<path id="Path-9" class="st2" d="M272.64,170.38c9.31-5.63,20.43-7.67,31.22-6.96"/>
	<path id="Path-10" class="st1" d="M267.86,168.86c1.95-5.7,8.67-9.85,13.9-11.99c12.78-5.24,33.49-9.63,43.18,3.6
		c3.11,4.3,4.03,9.8,2.5,14.88c-2.82,9.1-13.01,13.24-21.7,14.49c-11.61,1.67-28.01-0.75-35.73-10.61
		c-1.38-1.67-2.29-3.69-2.63-5.83C267.2,171.87,267.36,170.31,267.86,168.86z"/>
	<path id="Path-11" class="st2" d="M269.6,172.24c0,0,35.64-9.58,55.16-3.02"/>
	<path id="Path-12" class="st2" d="M316.83,178.79c0,0-9.22-11.09-14.44-11.59c0,0,7.42-7.26,13.07-8.89"/>
	<path id="Path-13" class="st2" d="M302.17,154.15c0,0-10.48,7.36-10.72,13.86c0,0,9.35,9.2,12.86,16.49"/>
	<path id="Path-14" class="st2" d="M283.84,158.12c0,0-4.04,7.95-3.42,11.91c3.46,4.79,6.48,9.88,9.02,15.21"/>
	<path id="Path-15" class="st1" d="M93.94,145.35c-21.85,4.83-45.01-9.92-45.28-18.66s20.97,9.4,24.04,0.51s-23.1-12.47-23.47-21.87
		c-0.37-9.4,23.14,12.8,24.97,6.79c1.81-6.01-20.87-20.23-17.5-27.14c3.37-6.91,17.08,17.42,20.98,14.13
		c3.9-3.28-11.92-25.94-2.39-27.69c9.53-1.74,7.88,19.1,11.2,23.34c3.32,4.24,3.13-20.05,8.8-18.19s-4.04,25.25-0.2,28.4
		c3.84,3.15,9.55-17.62,16-12.83c6.45,4.79-10.17,18.05-8.59,24.23c1.58,6.19,12.37-12.29,18.15-7.4S112.25,141.3,93.94,145.35z"/>
	<path id="Path-16" class="st2" d="M77.63,78.18c0,0,9.9,39.74,22.01,76.13"/>
	<path id="Path-17" class="st2" d="M57.96,109.62c0,0,27.11,13.4,36,25.6c0,0-0.32-21.74,13.52-36.61"/>
	<path id="Path-18" class="st2" d="M64.35,92.29c0,0,20.23,19.31,26.57,33.75c0,0-1.65-26.1,2.57-39.89"/>
	<path id="Path-19" class="st2" d="M54.1,129.26c0,0,36.67,6.08,41.28,12.15c0,0,10.16-22.77,22.76-28.85"/>
	<path id="Path-20" class="st1" d="M92.12,135.08c-5.65-12.86-23.14-40.24-38.19-36.44c-17.36,4.37,21.95,31.49,21.95,31.49
		s-27.02-15.46-34.32-3.31s32.44,13.8,32.44,13.8s-21-1.43-17.85,6.42c3.15,7.85,36.85,0.81,40.31,8.31
		C99.9,162.84,95.99,143.88,92.12,135.08z"/>
	<path id="Path-21" class="st2" d="M95.93,152.08c-5.23-13.86-13.31-26.47-23.73-37c-3.84-3.82-8.04-7.26-12.55-10.26"/>
	<path id="Path-22" class="st2" d="M95.74,152.37c-11.35-14.04-28.61-23.06-46.36-23.5"/>
	<path id="Path-23" class="st2" d="M95.56,152.51c-9.29-5.63-20.38-7.68-31.14-6.96"/>
	<path id="Path-24" class="st1" d="M100.33,150.99c-1.95-5.71-8.66-9.86-13.86-12.01c-12.76-5.24-33.41-9.64-43.08,3.6
		c-3.1,4.31-4.02,9.81-2.5,14.9c2.82,9.12,12.99,13.26,21.65,14.52c11.58,1.67,27.95-0.76,35.64-10.63c1.38-1.68,2.28-3.7,2.62-5.84
		C100.99,154,100.83,152.44,100.33,150.99z"/>
	<path id="Path-25" class="st2" d="M98.59,154.38c0,0-35.55-9.59-55.02-3.03"/>
	<path id="Path-26" class="st2" d="M51.48,160.93c0,0,9.2-11.11,14.41-11.61c0,0-7.41-7.27-13.04-8.9"/>
	<path id="Path-27" class="st2" d="M66.11,136.25c0,0,10.45,7.37,10.69,13.89c0,0-9.33,9.22-12.83,16.52"/>
	<path id="Path-28" class="st2" d="M84.38,140.23c0,0,4.04,7.96,3.42,11.92c-3.46,4.8-6.47,9.9-9,15.24"/>
	<path id="Path-29" class="st3" d="M268.6,162.59c-0.5,0-0.91-0.4-0.92-0.9v-7.97c0-4.16-3.37-7.53-7.52-7.53s-7.52,3.37-7.52,7.53
		v7.97c0,0.5-0.42,0.91-0.92,0.9h-5.06c-0.5-0.01-0.9-0.41-0.9-0.9v-7.97c0-7.96,6.46-14.42,14.42-14.42
		c7.96,0,14.42,6.46,14.42,14.42v7.97c0,0.5-0.42,0.91-0.92,0.9H268.6z"/>
	<path id="Shape" class="st4" d="M268.61,163.51c-1,0-1.81-0.82-1.81-1.83v-7.97c0-3.66-2.97-6.63-6.63-6.63
		c-3.66,0-6.63,2.97-6.63,6.63c0,0,0,0,0,0v7.97c0,1-0.81,1.82-1.81,1.83h-5.06c-1.01,0-1.82-0.81-1.82-1.82c0,0,0,0,0-0.01v-7.97
		c0-8.46,6.86-15.32,15.32-15.32c8.46,0,15.32,6.86,15.32,15.32c0,0,0,0,0,0v7.97c0,1.01-0.81,1.82-1.82,1.82c0,0,0,0-0.01,0H268.61
		z"/>
	<path id="Path-30" class="st3" d="M243.28,195.84c-1.22,0-2.21-1-2.21-2.22v-30.64c0-1.22,0.99-2.22,2.21-2.22c0,0,0,0,0,0h33.78
		c1.22,0,2.21,1,2.21,2.22c0,0,0,0,0,0v30.62c0,1.22-0.99,2.22-2.21,2.22c0,0,0,0,0,0h-33.78V195.84z"/>
	<path id="Shape-2" class="st4" d="M243.28,196.73c-1.72-0.01-3.11-1.4-3.11-3.12v-30.62c0-1.72,1.39-3.12,3.11-3.12h33.78
		c1.72,0.01,3.11,1.4,3.11,3.12v30.62c0,1.72-1.39,3.12-3.11,3.12H243.28z"/>
	<path id="Path-31" class="st3" d="M277.06,161.68h-6.6v24.14c0,0.72-0.58,1.3-1.3,1.3c0,0-0.01,0-0.01,0h-27.18v6.48
		c0,0.72,0.58,1.31,1.3,1.31h33.78c0.72-0.01,1.3-0.59,1.29-1.31c0,0,0,0,0,0v-30.62c0.01-0.71-0.56-1.29-1.27-1.3
		C277.07,161.68,277.07,161.68,277.06,161.68z"/>
	<path id="Path-32" class="st3" d="M277.06,161.68h-2.47v27.79c0,0.71-0.57,1.3-1.28,1.3c-0.01,0-0.02,0-0.03,0h-31.31v2.85
		c0,0.72,0.58,1.31,1.3,1.31h33.78c0.72-0.01,1.3-0.59,1.29-1.31c0,0,0,0,0,0v-30.64c0.01-0.71-0.56-1.29-1.27-1.3
		C277.07,161.68,277.07,161.68,277.06,161.68z"/>
	<path id="Path-33" class="st5" d="M265.62,176.61c-0.01-3.02-2.47-5.46-5.48-5.45c-3.02,0.01-5.46,2.47-5.45,5.48
		c0.01,2.26,1.41,4.28,3.52,5.09v2.57c0,1.07,0.87,1.95,1.94,1.95c1.07,0,1.95-0.87,1.95-1.94c0,0,0,0,0,0v-2.57
		C264.23,180.93,265.63,178.89,265.62,176.61z"/>
	<path id="Path-34" class="st6" d="M157.48,168.35l-55.31-0.25c-6.65-0.03-12.02-5.45-12-12.1l0.59-138.67
		c0.03-6.65,5.45-12.03,12.1-12l55.31,0.25c6.65,0.03,12.02,5.45,12,12.1l-0.59,138.67C169.56,163,164.14,168.38,157.48,168.35
		C157.49,168.35,157.49,168.35,157.48,168.35z"/>
	<path id="Path-35" class="st4" d="M158.09,10.37l-10.72-0.05c-1.47,0.03-2.64,1.24-2.62,2.71l-0.01,1.94
		c0.03,1.47-1.13,2.68-2.6,2.71c0,0-0.01,0-0.01,0l-20.91-0.1c-1.47-0.04-2.63-1.27-2.59-2.74l0.01-1.94
		c0.04-1.47-1.12-2.69-2.59-2.73l-3.77-0.02l-9.39-0.05c-4.66-0.02-8.45,3.74-8.47,8.4l-0.58,135.35c-0.02,4.66,3.74,8.45,8.4,8.47
		c0,0,0,0,0,0l55.2,0.25c4.66,0.02,8.46-3.74,8.48-8.4l0.57-135.35c0.02-4.65-3.73-8.45-8.39-8.47
		C158.1,10.37,158.1,10.37,158.09,10.37z"/>
	<circle id="Oval-2" class="st6" cx="130.17" cy="87.33" r="15"/>
	<path id="Path-36" class="st4" d="M122.25,88.81c0.14,0.21,0.97,1.1,2.05,2.34c1.28,1.48,2.74,3.14,2.91,3.33
		c0.31,0.35,0.54,0.11,1.01-0.8c1.09-2.28,2.38-4.45,3.85-6.51c1.6-2.09,3.4-4.03,5.36-5.79c0.67-0.52,0.98-0.86,0.53-1.04
		c-0.45-0.17-3.93,2.21-5.96,4.35c-2.19,2.29-4.55,6.03-5.14,6.12c-0.47,0.07-2.74-1.58-3.38-1.97
		C122.73,88.39,121.9,88.25,122.25,88.81z"/>
	<path id="Path-37" class="st7" d="M215.74,178.16l-5.01-3.95l7.31-9.44l7.39,5.69l-0.41,0.61c-1.88,2.72-9.73,13.68-11.61,15.01
		C211.32,187.58,215.74,178.16,215.74,178.16z"/>
	<path id="Path-38" class="st8" d="M212.78,185.96c-0.09-0.07,2.6-3.64,6.01-7.97c3.41-4.34,6.23-7.79,6.32-7.73
		c0.09,0.07-2.6,3.64-6,7.97C215.71,182.56,212.87,186.03,212.78,185.96z"/>
	<path id="Path-39" class="st8" d="M216.63,179.12c-0.02,0.12-0.34,0.16-0.73,0.15c-0.39-0.01-0.71-0.05-0.73-0.16
		s0.31-0.24,0.73-0.24S216.64,179.01,216.63,179.12z"/>
	<path id="Path-40" class="st8" d="M216.49,179.98c-0.04,0.11-0.4,0.1-0.82,0.04s-0.78-0.14-0.78-0.26c0-0.12,0.38-0.21,0.83-0.15
		S216.52,179.88,216.49,179.98z"/>
	<path id="Path-41" class="st8" d="M222.85,173.07c-0.05,0.01-0.17-0.2-0.31-0.57c-0.18-0.49-0.27-1.02-0.26-1.54
		c0.01-0.55,0.2-1.08,0.55-1.5c0.28-0.31,0.55-0.39,0.57-0.35c0.02,0.04-0.15,0.2-0.34,0.52c-0.23,0.41-0.36,0.87-0.37,1.34
		c0,0.49,0.04,0.97,0.13,1.45C222.89,172.8,222.91,173.05,222.85,173.07z"/>
	<path id="Path-42" class="st8" d="M215.66,178.41c-0.04-0.11,0.16-0.29,0.43-0.46c0.27-0.17,0.52-0.28,0.6-0.2
		s-0.08,0.35-0.38,0.54C216.01,178.49,215.7,178.52,215.66,178.41z"/>
	<path id="Path-43" class="st8" d="M215.29,177.88c-0.08-0.07,0.05-0.38,0.3-0.68s0.51-0.49,0.6-0.43c0.09,0.06-0.03,0.37-0.29,0.68
		S215.38,177.96,215.29,177.88z"/>
	<path id="Path-44" class="st8" d="M192.56,115.6c0,0-11.22,29.82-9.71,35.39s31.75,27.69,31.75,27.69l8.21-11.83
		c0,0-23.58-18.68-23.65-19.71c-0.07-1.03,9.36-25.81,9.36-25.81L192.56,115.6z"/>
	<path id="Path-45" class="st9" d="M214.08,169.59c-0.04-0.01-0.07-0.03-0.1-0.06c-0.09-0.05-0.18-0.12-0.3-0.19
		c-0.28-0.19-0.65-0.44-1.12-0.77c-0.97-0.68-2.37-1.67-4.07-2.93c-3.4-2.52-8.02-6.1-12.92-10.3c-1.23-1.05-2.42-2.09-3.56-3.1
		c-0.56-0.51-1.12-1.01-1.66-1.49c-0.57-0.45-1.06-1.01-1.44-1.64c-0.32-0.64-0.39-1.38-0.21-2.07c0.13-0.66,0.29-1.28,0.45-1.88
		c0.32-1.2,0.64-2.32,0.94-3.33c0.58-2.01,1.06-3.65,1.4-4.81c0.15-0.55,0.27-0.99,0.37-1.31c0.03-0.14,0.07-0.25,0.09-0.34
		c0.03-0.08,0.04-0.12,0.04-0.11c0,0,0,0.04-0.01,0.12c-0.01,0.08-0.04,0.21-0.07,0.35c-0.07,0.31-0.18,0.75-0.32,1.32
		c-0.29,1.15-0.74,2.8-1.31,4.84c-0.28,1.02-0.59,2.14-0.9,3.34c-0.16,0.6-0.32,1.23-0.44,1.87c-0.17,0.64-0.1,1.32,0.2,1.91
		c0.37,0.6,0.84,1.12,1.39,1.56c0.55,0.49,1.1,0.98,1.67,1.49c1.14,1.01,2.33,2.04,3.56,3.09c4.89,4.2,9.49,7.8,12.86,10.36
		c1.68,1.25,3.04,2.28,4.01,3c0.46,0.34,0.82,0.61,1.09,0.81c0.11,0.09,0.2,0.16,0.28,0.22
		C214.06,169.56,214.09,169.58,214.08,169.59z"/>
	<path id="Path-46" class="st9" d="M211.35,173.19c-0.07-0.05,1.49-2.2,3.47-4.8c1.98-2.61,3.64-4.69,3.7-4.64
		c0.06,0.04-1.5,2.2-3.48,4.8C213.06,171.15,211.41,173.23,211.35,173.19z"/>
	<path id="Path-47" class="st8" d="M212.36,58.89c1,2,1.52,3.74,3.51,4.77c0.89,0.47,1.99,0.73,2.53,1.58
		c0.58,0.93,0.31,2.27,1.05,3.09c1.08,1.18,3.29,0.22,4.5,1.26c1.08,0.93,0.73,2.92,1.9,3.74c0.66,0.46,1.55,0.36,2.29,0.65
		c1.18,0.64,1.94,1.86,1.97,3.2c0.17,1.05,0.03,2.12-0.39,3.09c-0.43,0.98-1.34,1.67-2.4,1.84c-1.39,0.15-2.96-0.81-4.09,0.01
		c-0.36,0.34-0.68,0.72-0.94,1.14c-1.19,1.52-3.39,1.79-4.91,0.6c-0.34-0.27-0.63-0.59-0.85-0.96c-0.78-1.29-0.73-3.08-1.87-4.07
		c-0.64-0.45-1.37-0.79-2.13-0.98c-0.78-0.2-1.41-0.75-1.73-1.49c-0.25-0.67-0.61-1.29-1.07-1.84c-0.56-0.85-1.33,0.19-2.08-0.23
		s-0.46-1.24-0.53-2.11"/>
	<path id="Path-48" class="st10" d="M199.15,87.86l-9.69-3.25c0,0-4.29,12.35-5.6,12.47c-7.27,0.67-15.05-1.75-17.78-2.7
		c-0.27-0.31-0.59-0.69-0.94-1.15c-0.3-0.4-0.53-0.84-0.69-1.31c-0.21-0.58-0.34-1.19-0.39-1.8c0.03-0.31-0.19-0.59-0.51-0.63
		c-0.18-0.02-0.35,0.05-0.47,0.18c-0.31,0.41-0.39,1.97,0.33,3.64c0.72,1.68-1.83,0.34-2.76-0.13c-0.93-0.47-3.9-1.79-4.26-1.61
		c-0.55,0.26-0.38,0.88,0.57,1.33c0.95,0.45,3.68,1.99,3.41,2.47c-0.27,0.48-5-1.98-5-1.98s-0.92-0.69-1.25-0.15
		c-0.6,0.99,4.61,3.22,5.11,3.43c0.35,0.14,0.08,0.68-0.29,0.51c-0.37-0.17-4.66-2.56-5.28-1.56c-0.47,0.77,4.28,1.89,4.89,2.87
		s-3.51-1.22-3.94-0.47c-0.16,0.28-0.24,0.51,2.32,1.43c1.87,0.59,3.77,1.07,5.69,1.46l-0.01,0.03c0,0,25.5,11.42,31,0.41
		C199.44,89.69,199.15,87.86,199.15,87.86z"/>
	<path id="Path-49" class="st7" d="M208.73,77.64l4.23,0.08l3.36,9.64l-2.73,11.05c-0.8,3.23,2.83,9.69,2.73,13.25l-23.74,3.85
		l-0.5-15.87l-0.01-0.53l-8.21-4.11l2.71-6.65c4.17-9.78,11.45-10.38,11.45-10.38L208.73,77.64z"/>
	<path id="Path-50" class="st9" d="M192.21,98.98c-0.19-0.06-0.36-0.15-0.51-0.27c-0.43-0.3-0.81-0.69-1.09-1.14
		c-0.44-0.67-0.64-1.47-0.57-2.27c0.04-0.97,0.36-1.92,0.93-2.71c0.44-0.63,1.01-1.14,1.68-1.51l-0.07,0.1
		c0.2-1.46,0.37-2.71,0.51-3.6c0.05-0.47,0.14-0.95,0.26-1.41c0,0.48-0.03,0.95-0.1,1.43c-0.09,0.89-0.23,2.15-0.41,3.61l-0.01,0.07
		l-0.06,0.04c-0.63,0.35-1.17,0.84-1.58,1.43c-0.53,0.76-0.84,1.64-0.89,2.57c-0.08,0.75,0.09,1.5,0.47,2.15
		c0.26,0.44,0.6,0.82,0.99,1.15C192.05,98.86,192.22,98.97,192.21,98.98z"/>
	<path id="Path-51" class="st9" d="M193.11,88.28c-0.07,0.03-0.3-0.31-0.52-0.76c-0.22-0.45-0.35-0.84-0.28-0.88
		c0.07-0.04,0.3,0.31,0.52,0.76C193.05,87.85,193.18,88.24,193.11,88.28z"/>
	<path id="Path-52" class="st10" d="M208.45,77.77l0.73-16.7l-6.63-5.03L196.52,59c0,0-0.2,7.57,0,10.85
		c0.14,1.9,1.62,3.43,3.51,3.63c0,0-0.08,1.92-0.15,3.95c-0.06,2.37,1.81,4.34,4.18,4.4C206.38,81.89,208.33,80.09,208.45,77.77
		L208.45,77.77z"/>
	<path id="Path-53" class="st8" d="M197.18,64.51c0,0.23,0.19,0.42,0.42,0.42s0.42-0.19,0.42-0.42s-0.19-0.42-0.42-0.42
		S197.18,64.28,197.18,64.51z"/>
	<path id="Path-54" class="st8" d="M196.78,64.06c0.05,0.06,0.36-0.21,0.82-0.24c0.44-0.03,0.79,0.19,0.83,0.13
		c0.03-0.03-0.03-0.13-0.18-0.23c-0.2-0.13-0.43-0.19-0.67-0.18c-0.24,0.01-0.47,0.1-0.65,0.26
		C196.79,63.92,196.75,64.03,196.78,64.06z"/>
	<path id="Path-55" class="st8" d="M202.05,64.51c0,0.23,0.19,0.42,0.42,0.42s0.42-0.19,0.42-0.42s-0.19-0.42-0.42-0.42
		S202.05,64.28,202.05,64.51z"/>
	<path id="Path-56" class="st8" d="M201.79,64.06c0.05,0.06,0.36-0.21,0.81-0.24c0.45-0.03,0.8,0.19,0.84,0.13
		c0.03-0.03-0.03-0.13-0.18-0.23c-0.2-0.13-0.44-0.19-0.68-0.18c-0.24,0.01-0.46,0.1-0.64,0.26
		C201.8,63.92,201.76,64.03,201.79,64.06z"/>
	<path id="Path-57" class="st4" d="M201.65,68.3c-0.69,0.35-1.43,0.61-2.19,0.75c0.34,0.47,0.96,0.64,1.5,0.42
		C201.94,69.09,201.65,68.3,201.65,68.3z"/>
	<path id="Path-58" class="st11" d="M200.03,73.48c1.56-0.06,3.07-0.57,4.35-1.47c-0.81,1.58-2.52,2.49-4.28,2.28L200.03,73.48z"/>
	<path id="Path-59" class="st8" d="M218.72,70.51c-0.41,0.02-0.82-0.08-1.19-0.27c-0.54-0.29-0.99-0.73-1.3-1.26
		c-0.38-0.67-0.71-1.36-0.97-2.08c-0.61-1.53-1.07-2.94-1.39-3.98c-0.05-0.16-0.09-0.31-0.13-0.46c-0.03-0.17-0.06-0.33-0.09-0.45
		c-0.98-4.34-4.58-7.59-8.99-8.12c-1.28,0-3.51-0.7-6.76,2.68c-0.49,0.51-0.91,1.08-1.24,1.7c-0.72,0.9-1.22,1.96-1.45,3.09
		c-0.14,0.53-0.17,1.09-0.08,1.63c0.07,0,0.08-0.62,0.33-1.57c0.15-0.56,0.36-1.1,0.63-1.62c-0.29,1.26-0.17,2.59,0.33,3.78
		l1.17-0.32l4.17-1.42c-0.22-1.24-0.05-2.52,0.5-3.66l0.03-0.03c0.48,2.8,2.71,4.97,5.52,5.37l0.77,10.75
		c5.55-1.19,5.43-8.62,5.39-10.14c0.25,0.85,0.58,1.83,0.99,2.85c0.27,0.74,0.61,1.45,1.02,2.12c0.34,0.56,0.84,1.02,1.44,1.3
		c0.4,0.19,0.85,0.26,1.29,0.19c0.31-0.06,0.46-0.16,0.45-0.17C219.02,70.48,218.87,70.5,218.72,70.51z"/>
	<path id="Path-60" class="st8" d="M200.15,67.87c-0.24-0.06-0.49-0.09-0.74-0.09c-0.11,0-0.23-0.02-0.25-0.11
		c-0.01-0.13,0.01-0.25,0.07-0.36c0.1-0.3,0.2-0.61,0.31-0.94c0.22-0.67,0.4-1.27,0.53-1.72c0.08-0.24,0.14-0.48,0.17-0.73
		c-0.13,0.21-0.23,0.45-0.3,0.69c-0.15,0.43-0.36,1.03-0.57,1.7c-0.1,0.33-0.21,0.64-0.3,0.94c-0.07,0.15-0.08,0.31-0.04,0.47
		c0.03,0.08,0.1,0.15,0.19,0.16c0.06,0.01,0.13,0.02,0.19,0.01C199.66,67.93,199.91,67.92,200.15,67.87z"/>
	<path id="Path-61" class="st10" d="M209.52,67.74c-0.05-0.55,0.01-1.1,0.18-1.62c0.18-0.53,0.63-0.92,1.18-1.02
		c0.65-0.03,1.22,0.43,1.33,1.08c0.08,0.64-0.24,1.27-0.81,1.58c-0.57,0.3-1.24,0.31-1.83,0.05"/>
	<path id="Path-62" class="st11" d="M210.48,67.26c0.02-0.04,0.18,0.05,0.41-0.03c0.3-0.11,0.49-0.39,0.49-0.7
		c0.02-0.16-0.02-0.32-0.12-0.44c-0.1-0.08-0.23-0.12-0.36-0.11c-0.24,0.02-0.42,0.09-0.43,0.05c-0.01-0.03,0.11-0.15,0.4-0.24
		c0.19-0.05,0.39-0.01,0.55,0.11c0.18,0.17,0.26,0.41,0.23,0.65c-0.01,0.23-0.1,0.44-0.25,0.61c-0.12,0.14-0.29,0.23-0.48,0.25
		C210.6,67.45,210.45,67.28,210.48,67.26z"/>
	<path id="Path-63" class="st7" d="M205.45,197.79v-4.78l8.95-0.06l0.08,7l-0.56,0.04c-2.47,0.15-12.57,0.6-14.22,0.11
		C197.86,199.55,205.45,197.79,205.45,197.79z"/>
	<path id="Path-64" class="st8" d="M199.5,199.67c0-0.09,3.34-0.15,7.48-0.15s7.48,0.07,7.48,0.15c0,0.09-3.35,0.15-7.48,0.15
		C202.85,199.82,199.5,199.75,199.5,199.67z"/>
	<path id="Path-65" class="st8" d="M205.3,198.77c-0.08,0.04-0.25-0.13-0.43-0.36c-0.18-0.23-0.29-0.45-0.24-0.51
		c0.05-0.06,0.29,0.07,0.48,0.32C205.3,198.47,205.38,198.73,205.3,198.77z"/>
	<path id="Path-66" class="st8" d="M204.74,199.09c-0.08,0.03-0.24-0.18-0.4-0.46c-0.16-0.28-0.28-0.52-0.21-0.58
		c0.07-0.06,0.29,0.12,0.47,0.42C204.77,198.76,204.81,199.06,204.74,199.09z"/>
	<path id="Path-67" class="st8" d="M211.75,199.63c-0.03-0.03,0.04-0.19,0.2-0.45c0.2-0.34,0.47-0.63,0.78-0.87
		c0.33-0.25,0.73-0.38,1.14-0.37c0.32,0.02,0.48,0.14,0.47,0.17c-0.02,0.05-0.19,0-0.46,0.04c-0.35,0.05-0.68,0.19-0.97,0.4
		c-0.28,0.23-0.55,0.48-0.79,0.75C211.92,199.54,211.79,199.66,211.75,199.63z"/>
	<path id="Path-68" class="st8" d="M205.27,197.87c0.04-0.07,0.25-0.04,0.47,0.04c0.22,0.08,0.4,0.18,0.39,0.26
		s-0.24,0.12-0.49,0.03C205.39,198.1,205.23,197.94,205.27,197.87z"/>
	<path id="Path-69" class="st8" d="M205.41,197.42c0.01-0.09,0.25-0.15,0.54-0.15c0.29,0,0.53,0.08,0.53,0.16
		c0,0.08-0.23,0.15-0.54,0.15S205.4,197.49,205.41,197.42z"/>
	<path id="Path-70" class="st9" d="M197.46,114.78l-4.91,0.82l2.82,3.48c0.82,16.37,0.62,32.23,1.37,40.13
		c0.11,1.2,5.18,38.87,4.67,37.98l14.91,0.62l-4.45-37.82l2.11-33.6c2.29-3.97,2.96-8.67,1.87-13.12l-0.37-1.51"/>
	<path id="Path-71" class="st8" d="M207.75,55.66c-0.76-0.29-1.33-0.92-1.54-1.71c-0.18-0.79,0.08-1.62,0.68-2.16
		c0.62-0.53,1.51-0.61,2.22-0.21c0.54,0.37,0.93,0.92,1.1,1.55c0.17,0.4,0.22,0.84,0.14,1.27c-0.21,0.63-0.73,1.1-1.38,1.24
		c-0.64,0.13-1.29,0.15-1.93,0.05"/>
	<path id="Path-72" class="st8" d="M220.89,64.77c0.06-0.22,0.07-0.45,0.03-0.67c-0.05-0.26-0.17-0.49-0.35-0.69
		c-0.24-0.25-0.54-0.42-0.88-0.51c-0.41-0.1-0.84-0.13-1.26-0.09c-0.46,0.03-0.96,0.11-1.5,0.12c-0.58,0.04-1.16-0.1-1.66-0.39
		c-0.5-0.38-0.86-0.92-0.99-1.54c-0.34-1.08-0.9-2.08-1.64-2.94c-0.6-0.7-1.32-1.29-2.11-1.76c-0.75-0.42-1.54-0.75-2.36-1
		c0-0.01,0.06,0,0.18,0.02c0.17,0.02,0.34,0.06,0.5,0.1c0.62,0.16,1.21,0.4,1.77,0.71c0.83,0.46,1.58,1.06,2.21,1.77
		c0.78,0.87,1.35,1.9,1.7,3.02c0.12,0.55,0.43,1.05,0.88,1.4c0.46,0.27,0.98,0.39,1.51,0.37c0.52-0.01,1.02-0.08,1.49-0.1
		c0.45-0.04,0.9,0.01,1.33,0.13c0.37,0.1,0.69,0.3,0.94,0.59c0.18,0.22,0.3,0.49,0.35,0.77c0.02,0.18,0.01,0.36-0.05,0.53
		C220.95,64.72,220.9,64.77,220.89,64.77z"/>
	<path id="Path-73" class="st12" d="M211.46,67.71c0.02-0.03,0.25,0.17,0.25,0.61c-0.01,0.26-0.12,0.51-0.31,0.68
		c-0.24,0.22-0.57,0.32-0.89,0.28c-0.32-0.06-0.59-0.26-0.75-0.54c-0.12-0.23-0.14-0.5-0.07-0.75c0.14-0.42,0.42-0.53,0.43-0.5
		c0.03,0.03-0.18,0.19-0.24,0.55c-0.04,0.2,0,0.4,0.11,0.58c0.12,0.21,0.33,0.36,0.57,0.4c0.24,0.04,0.49-0.04,0.68-0.19
		c0.15-0.13,0.25-0.32,0.28-0.52C211.57,67.95,211.42,67.73,211.46,67.71z"/>
	<path id="Path-74" class="st13" d="M210.14,56.3c-0.57-0.5-1.19-0.96-1.84-1.36c-0.7-0.32-1.42-0.57-2.16-0.76
		c0.8-0.08,1.6,0.11,2.29,0.52C209.16,55.04,209.76,55.6,210.14,56.3z"/>
	<path id="Path-75" class="st12" d="M212.05,67.08c0-0.04,0.14-0.05,0.23,0.12c0.05,0.1,0.05,0.22,0.01,0.32
		c-0.12,0.2-0.38,0.28-0.58,0.16c-0.05-0.03-0.09-0.07-0.13-0.11c-0.07-0.09-0.09-0.19-0.08-0.3c0.03-0.17,0.13-0.23,0.15-0.21
		c0.04,0.02,0.02,0.1,0.05,0.21c0.02,0.11,0.12,0.2,0.23,0.19c0.09,0.01,0.17-0.06,0.17-0.15c0-0.02,0-0.03,0-0.05
		C212.1,67.17,212.04,67.12,212.05,67.08z"/>
	<path id="Path-76" class="st4" d="M213.29,88.08c-19.63,4.37-29.67-4.69-31.03-6.02c0,0-0.03-0.13-0.08-0.08
		c-0.05-0.05-0.08,0.08-0.08,0.08c-1.33,1.35-11.25,10.53-30.94,6.41c0,0-2.77,35.33,8.8,49.66c12.35,15.31,22.71,19.9,22.76,19.86
		c0.06,0.04,10.44-4.59,22.48-20.14C216.47,123.3,213.29,88.08,213.29,88.08z"/>
	<path id="Path-77" class="st6" d="M210.44,91.73c-17.81,3.89-26.93-4.17-28.16-5.36c0,0-0.02-0.12-0.07-0.07
		c-0.05-0.05-0.07,0.07-0.07,0.07c-1.21,1.21-10.21,9.38-28.08,5.71c0,0-2.51,31.45,7.98,44.21c11.2,13.63,20.6,18.55,20.65,18.52
		c0.05,0.04,9.48-4.93,20.41-18.77C213.32,123.09,210.44,91.73,210.44,91.73z"/>
	<g id="Group" transform="translate(152 81.654)" class="st14">
		<path id="Path-78" class="st15" d="M30.15,7.82c0,0,0.03-0.13,0.08-0.08c0.05-0.05,0.08,0.07,0.08,0.07
			c1.26,1.22,10.46,9.36,28.41,5.84c-0.11-3.2-0.3-5.21-0.3-5.21C40.61,12.34,31.5,4.28,30.27,3.08c0,0-0.03-0.12-0.08-0.07
			c-0.04-0.05-0.07,0.07-0.07,0.07c-1.21,1.21-10.21,9.38-28.07,5.71c0,0-0.17,2.01-0.24,5.21C19.82,17.31,28.91,9.06,30.15,7.82z"
			/>
	</g>
	<path id="Path-79" class="st16" d="M205.21,100.5c-13.45,2.99-21.95-3.52-22.88-4.44c0,0-0.02-0.09-0.05-0.06
		c-0.04-0.04-0.06,0.06-0.06,0.06c-0.91,0.93-9.23,7.54-22.73,4.71c0,0-0.38,23.91,7.55,33.74c8.47,10.5,15.57,13.64,15.61,13.61
		c0.04,0.03,7.16-3.15,15.41-13.81C205.79,124.34,205.21,100.5,205.21,100.5z"/>
	<path id="Path-80" class="st9" d="M208.55,77.26c0.06,0.18,0.08,0.37,0.06,0.55c-0.01,0.51-0.11,1.01-0.3,1.49
		c-0.28,0.71-0.73,1.34-1.31,1.83c-0.73,0.59-1.63,0.94-2.57,1c-0.94,0.06-1.87-0.18-2.67-0.68c-0.64-0.42-1.16-0.99-1.53-1.66
		c-0.24-0.45-0.4-0.94-0.47-1.44c-0.04-0.18-0.04-0.37-0.01-0.56c0.11,0.67,0.33,1.31,0.65,1.9c0.37,0.62,0.88,1.15,1.49,1.54
		c0.76,0.46,1.64,0.68,2.52,0.62c0.88-0.05,1.73-0.37,2.42-0.91c0.56-0.46,1.01-1.04,1.3-1.71
		C208.38,78.6,208.53,77.93,208.55,77.26z"/>
	<path id="Path-81" class="st8" d="M207.48,194.39l-0.03-0.14c-0.01-0.11-0.04-0.24-0.06-0.41c-0.05-0.38-0.12-0.9-0.21-1.57
		c-0.17-1.37-0.4-3.34-0.67-5.79c-0.55-4.89-1.21-11.65-1.82-19.13c-0.59-7.48-1.01-14.26-1.26-19.17
		c-0.12-2.45-0.21-4.44-0.25-5.82c-0.02-0.67-0.04-1.2-0.05-1.59v-0.56c0.01,0,0.01,0.05,0.02,0.14c0.01,0.11,0.02,0.25,0.03,0.41
		c0.03,0.38,0.06,0.91,0.1,1.58c0.08,1.4,0.2,3.37,0.34,5.81c0.29,4.91,0.74,11.68,1.34,19.16c0.6,7.48,1.24,14.24,1.73,19.13
		c0.25,2.43,0.45,4.4,0.6,5.79c0.06,0.67,0.11,1.2,0.15,1.57c0.02,0.17,0.03,0.3,0.04,0.41
		C207.49,194.35,207.49,194.39,207.48,194.39z"/>
	<path id="Path-82" class="st10" d="M218.72,94.59l-8.76-5.77c0,0-4.28,12.35-5.59,12.47c-7.27,0.66-15.06-1.75-17.78-2.7
		c-0.28-0.31-0.6-0.69-0.95-1.15c-0.3-0.39-0.53-0.84-0.68-1.31c-0.22-0.58-0.35-1.18-0.39-1.8c0.03-0.31-0.19-0.59-0.51-0.63
		c-0.18-0.02-0.35,0.05-0.47,0.18c-0.32,0.41-0.39,1.97,0.32,3.64c0.71,1.68-1.82,0.34-2.76-0.13c-0.94-0.47-3.89-1.79-4.26-1.61
		c-0.55,0.25-0.37,0.88,0.57,1.33c0.96,0.46,3.68,1.99,3.41,2.47c-0.27,0.48-4.99-1.98-4.99-1.98s-0.92-0.69-1.26-0.15
		c-0.59,0.99,4.62,3.23,5.12,3.43c0.35,0.14,0.07,0.68-0.3,0.51c-0.37-0.17-4.65-2.56-5.27-1.56c-0.48,0.77,4.27,1.89,4.89,2.87
		c0.62,0.99-3.52-1.22-3.94-0.47c-0.16,0.28-0.24,0.51,2.32,1.43c1.87,0.59,3.77,1.07,5.69,1.46l-0.01,0.03c0,0,26.07,11.68,31,0.41
		C219.36,93.58,218.72,94.59,218.72,94.59z"/>
	<path id="Path-83" class="st7" d="M212.96,77.71c0,0,7.98,0.94,7.13,10.43c-0.53,5.87-2.18,11.57-4.86,16.82l-10.45-5.49
		c2.35-4.7,4.12-9.66,5.27-14.79L212.96,77.71z"/>
	<path id="Path-84" class="st9" d="M209.45,87.46c-0.01,0.17-0.04,0.34-0.09,0.5c-0.07,0.32-0.19,0.77-0.36,1.32
		c-0.32,1.1-0.82,2.63-1.46,4.28c-0.64,1.65-1.32,3.1-1.84,4.13c-0.26,0.52-0.48,0.93-0.64,1.21c-0.16,0.28-0.26,0.43-0.28,0.42
		c0.21-0.59,0.46-1.16,0.74-1.72c0.48-1.06,1.11-2.51,1.76-4.15s1.17-3.14,1.53-4.23C208.99,88.63,209.2,88.04,209.45,87.46z"/>
	<path id="Path-85" class="st9" d="M209.45,87.46c-0.01,0.17-0.04,0.34-0.09,0.5c-0.07,0.32-0.19,0.77-0.36,1.32
		c-0.32,1.11-0.82,2.63-1.46,4.28c-0.64,1.65-1.32,3.1-1.84,4.13c-0.26,0.52-0.48,0.93-0.64,1.21c-0.16,0.28-0.26,0.43-0.28,0.42
		c0.21-0.59,0.46-1.16,0.74-1.72c0.48-1.05,1.11-2.51,1.76-4.15s1.17-3.14,1.53-4.23C208.99,88.63,209.21,88.04,209.45,87.46z"/>
	<g id="Group-2" transform="translate(92 177.654)">
		<path id="Shape-3" class="st3" d="M2.48,13.78c-0.82-1.32-1.27-2.83-1.31-4.39C1.17,8.3,1.46,7.22,2,6.27
			c1.34-2.29,4.13-3.6,7.66-3.6c6.21,0,13.36,3.91,16.26,8.89c1.57,2.69,1.74,5.35,0.48,7.51c-1.33,2.28-4.12,3.59-7.65,3.59
			C12.54,22.67,5.39,18.77,2.48,13.78z"/>
		<path id="Path-86" class="st3" d="M17.75,19.04c1.86,0.14,3.67-0.68,4.78-2.18c-0.5,0.87-1.92,1.38-3.78,1.38
			c-4.61,0-10.28-3.06-12.4-6.68c-0.42-0.73-1.05-2.1-0.47-3.09c-0.69,1.4-0.6,3.06,0.24,4.37C8.15,16.52,13.15,19.04,17.75,19.04z"
			/>
		<path id="Path-87" class="st3" d="M61.36,15.55c1.26,0.03,2.31-0.98,2.34-2.24s-0.98-2.31-2.24-2.34c-0.03,0-0.06,0-0.1,0H24.6
			c-0.41,0.03-0.78,0.29-0.95,0.67c-0.52,1.01-0.52,2.22,0,3.23c0.17,0.38,0.54,0.64,0.95,0.67L61.36,15.55L61.36,15.55z"/>
		<path id="Path-88" class="st3" d="M53.15,13.72c0.94-0.05,1.79-0.54,2.31-1.32c0.2-0.28,0.23-0.64,0.08-0.94l0,0l-3.28-5.65
			l-0.08-0.14c-0.01-0.02-0.02-0.04-0.04-0.05c-0.06-0.1-0.14-0.19-0.22-0.27c-0.74-0.74-1.95-0.74-2.69,0.01
			c-0.12,0.12-0.23,0.26-0.31,0.41c-0.15,0.27-0.23,0.58-0.23,0.89c0,0.31,0.08,0.62,0.23,0.89l0.06,0.11l3.3,5.68h0.01
			C52.49,13.62,52.82,13.76,53.15,13.72z"/>
		<path id="Path-89" class="st3" d="M43.94,13.73c0.94-0.05,1.79-0.54,2.31-1.32c0.2-0.27,0.24-0.64,0.09-0.95l0,0L42.5,4.84
			L42.42,4.7c-0.01-0.02-0.02-0.04-0.03-0.05c-0.07-0.1-0.15-0.19-0.23-0.27c-0.74-0.74-1.95-0.74-2.69,0
			c-0.12,0.12-0.23,0.26-0.31,0.41c-0.15,0.27-0.23,0.58-0.23,0.89c0,0.31,0.08,0.62,0.23,0.89l0.06,0.11l3.86,6.65l0,0
			C43.28,13.61,43.61,13.76,43.94,13.73z"/>
	</g>
	<path id="Path-90" class="st0" d="M241.24,59.23h8.86c-0.21-0.27-0.4-0.55-0.57-0.85l-1.11-1.92c-1.97-3.42-0.37-6.2,3.58-6.2
		c1.73,0.05,3.43,0.47,4.98,1.23c-2-4.59,0.45-8.14,5.92-8.14c5.91,0,13.11,4.15,16.06,9.27l1.67,2.88
		c0.69,1.13,1.11,2.41,1.24,3.73h7.36c2.42,0.13,4.63,1.41,5.95,3.44c1.1,1.9,0.21,3.44-1.98,3.44h-47.99
		c-2.42-0.13-4.63-1.41-5.95-3.44C238.16,60.77,239.05,59.23,241.24,59.23z"/>
	<path id="Path-91" class="st0" d="M178.31,12.51h5.49c-0.13-0.17-0.25-0.34-0.35-0.52l-0.69-1.19c-1.23-2.12-0.23-3.84,2.22-3.84
		c1.07,0.03,2.12,0.29,3.08,0.76c-1.24-2.84,0.28-5.04,3.67-5.04c4.04,0.22,7.74,2.35,9.95,5.74l1.03,1.78
		c0.43,0.7,0.69,1.49,0.77,2.31h4.55c1.5,0.08,2.87,0.87,3.69,2.13c0.68,1.18,0.13,2.13-1.23,2.13h-29.72
		c-1.5-0.08-2.87-0.87-3.69-2.13C176.4,13.46,176.95,12.51,178.31,12.51z"/>
	<path id="Path-92" class="st0" d="M37,62.83h6.68c-0.15-0.21-0.3-0.42-0.43-0.64l-0.83-1.45c-1.5-2.58-0.29-4.68,2.7-4.68
		c1.3,0.03,2.58,0.35,3.75,0.93c-1.51-3.46,0.34-6.14,4.47-6.14c4.93,0.27,9.43,2.87,12.13,7l1.25,2.17
		c0.52,0.85,0.84,1.82,0.94,2.81h5.55c1.83,0.1,3.5,1.07,4.5,2.6c0.82,1.43,0.15,2.6-1.5,2.6H39.99c-1.83-0.1-3.49-1.07-4.49-2.6
		C34.67,63.99,35.35,62.83,37,62.83z"/>
</g>
</svg>
