<?xml version="1.0" encoding="utf-8"?>
<!-- Generator: Adobe Illustrator 24.1.1, SVG Export Plug-In . SVG Version: 6.00 Build 0)  -->
<svg version="1.1" id="Layer_1" xmlns="http://www.w3.org/2000/svg" xmlns:xlink="http://www.w3.org/1999/xlink" x="0px" y="0px"
	 viewBox="0 0 145 113" style="enable-background:new 0 0 145 113;" xml:space="preserve">
<style type="text/css">
	.st0{fill:#E7E1F0;}
	.st1{fill:#43449B;}
	.st2{fill:#EF466A;}
	.st3{fill:#4686C6;}
	.st4{fill:#FBAE2A;}
	.st5{fill:#66C5B2;}
	.st6{fill:#FFFFFF;}
	.st7{fill:#43449B;stroke:#FFFFFF;stroke-width:1.249;stroke-linecap:round;stroke-linejoin:round;stroke-miterlimit:10;}
</style>
<g id="lock" transform="translate(-2.03 -2.98)">
	<ellipse id="Oval" class="st0" cx="77.14" cy="64.79" rx="49.5" ry="49"/>
	<ellipse id="Oval-2" class="st1" cx="55.64" cy="8.29" rx="3" ry="2.5"/>
	<ellipse id="Oval-3" class="st2" cx="136.14" cy="27.79" rx="8.5" ry="9"/>
	<ellipse id="Oval-4" class="st3" cx="124.64" cy="95.29" rx="3" ry="3.5"/>
	<circle id="Oval-5" class="st4" cx="38.64" cy="94.79" r="6"/>
	<ellipse id="Oval-6" class="st5" cx="8.14" cy="50.79" rx="3.5" ry="3"/>
	<path id="Path" class="st1" d="M83.96,60.04c-0.41,0-0.75-0.33-0.76-0.74v-6.55c-0.01-3.42-2.8-6.18-6.22-6.17
		c-3.35,0.01-6.08,2.69-6.17,6.04v6.68c0,0.41-0.34,0.75-0.75,0.74h-4.15c-0.41,0-0.74-0.33-0.74-0.74v-6.55
		c0-6.55,5.3-11.86,11.85-11.86c6.55,0,11.86,5.3,11.86,11.85c0,0,0,0.01,0,0.01v6.55c0,0.41-0.34,0.75-0.76,0.74c0,0,0,0,0,0
		L83.96,60.04L83.96,60.04z"/>
	<path id="Shape" class="st6" d="M83.98,60.8c-0.83,0-1.49-0.67-1.49-1.49c0,0,0,0,0-0.01l0,0v-6.56c-0.08-3.01-2.59-5.38-5.6-5.3
		c-2.9,0.08-5.22,2.41-5.3,5.3l0,0v6.55c0,0.83-0.66,1.5-1.49,1.5c0,0,0,0-0.01,0h-4.16c-0.83,0-1.49-0.67-1.49-1.49c0,0,0,0,0-0.01
		l0,0v-6.55c0-6.96,5.63-12.6,12.59-12.61c6.96,0,12.6,5.63,12.61,12.59c0,0,0,0.01,0,0.01v6.55c0,0.83-0.66,1.5-1.49,1.5
		c0,0,0,0-0.01,0L83.98,60.8L83.98,60.8z"/>
	<path id="Path-2" class="st1" d="M63.14,87.39c-1,0-1.82-0.81-1.82-1.82c0,0,0,0,0-0.01l0,0v-25.2c0-1,0.81-1.82,1.81-1.82
		c0,0,0,0,0.01,0h27.78c1,0,1.82,0.81,1.82,1.82c0,0,0,0,0,0.01l0,0v25.19c0,1-0.81,1.82-1.81,1.82c0,0,0,0-0.01,0H63.14V87.39z"/>
	<path id="Shape-2" class="st6" d="M63.14,88.12c-1.42-0.01-2.56-1.16-2.56-2.57V60.37c0-1.42,1.14-2.57,2.56-2.57h27.78
		c1.42,0.01,2.56,1.16,2.56,2.57v25.19c0,1.42-1.14,2.57-2.56,2.57L63.14,88.12L63.14,88.12z"/>
	<path id="Path-3" class="st1" d="M90.93,59.3H85.5v19.86c0,0.59-0.48,1.07-1.07,1.07c0,0,0,0-0.01,0H62.06v5.33
		c0,0.59,0.47,1.07,1.07,1.08h27.78c0.59-0.01,1.07-0.49,1.07-1.08l0,0V60.37c0.01-0.58-0.46-1.06-1.04-1.07c0,0,0,0,0,0H90.93z"/>
	<path id="Path-4" class="st1" d="M90.93,59.3h-2.03v22.86c0,0.59-0.47,1.06-1.06,1.07H62.06v2.34c0,0.59,0.47,1.07,1.07,1.08h27.78
		c0.59-0.01,1.07-0.49,1.07-1.08l0,0v-25.2c0.01-0.58-0.46-1.06-1.04-1.07c0,0,0,0,0,0L90.93,59.3z"/>
	<path id="Path-5" class="st7" d="M81.51,71.58c0-2.49-2.02-4.5-4.51-4.49c-2.49,0-4.5,2.02-4.49,4.51c0,1.87,1.16,3.54,2.9,4.2
		v2.11c-0.02,0.88,0.69,1.61,1.57,1.63c0.88,0.02,1.61-0.69,1.63-1.57v-2.18C80.36,75.12,81.52,73.45,81.51,71.58z"/>
</g>
</svg>
