<?xml version="1.0" encoding="utf-8"?>
<!-- Generator: Adobe Illustrator 24.1.1, SVG Export Plug-In . SVG Version: 6.00 Build 0)  -->
<svg version="1.1" id="Layer_1" xmlns="http://www.w3.org/2000/svg" xmlns:xlink="http://www.w3.org/1999/xlink" x="0px" y="0px"
	 viewBox="0 0 225 142" style="enable-background:new 0 0 225 142;" xml:space="preserve">
<style type="text/css">
	.st0{fill:#F2F1F8;}
	.st1{fill:#6197B1;}
	.st2{fill:#65C5B2;}
	.st3{fill:none;stroke:#4BA5A2;stroke-width:1.629;stroke-linecap:round;stroke-miterlimit:10;}
	.st4{fill:#EF4569;}
	.st5{fill:#10393D;}
	.st6{fill:#FFFFFF;}
	.st7{fill:#42439B;}
	.st8{fill:#FEFFFF;}
	.st9{fill:#FBAE2C;}
	.st10{fill:#EE6E4C;}
	.st11{fill:#F58A68;}
	.st12{fill:#343434;}
	.st13{fill:#5958A6;}
	.st14{fill:#4786C6;}
	.st15{fill:#EC7D65;}
	.st16{fill:#DD774D;}
	.st17{opacity:0.2;}
	.st18{opacity:0.2;fill:#292949;enable-background:new    ;}
	.st19{fill:#F6A21D;}
	.st20{fill:#F17E21;}
	.st21{fill:#FDD462;}
	.st22{opacity:0.3;fill:#FFFFFF;enable-background:new    ;}
	.st23{opacity:0.2;fill:#FAE5A0;enable-background:new    ;}
	.st24{opacity:0.02;}
	.st25{opacity:0.02;enable-background:new    ;}
</style>
<g id="Group_6" transform="translate(0 0)">
	<path id="Path" class="st0" d="M112.93,139.69c60.75,0,110-15.94,110-35.59s-49.25-35.59-110-35.59s-110,15.94-110,35.59
		S52.18,139.69,112.93,139.69z"/>
	<path id="Path-2" class="st1" d="M121.89,19.26l-7.99,1.46l0.71,3.9l7.99-1.46L121.89,19.26z"/>
	<path id="Path-3" class="st2" d="M39.11,102.1c-14.7,3.25-30.28-6.66-30.46-12.53s14.1,6.32,16.17,0.34S9.28,81.54,9.03,75.22
		c-0.25-6.32,15.57,8.6,16.8,4.56S11.79,66.2,14.06,61.56s11.49,11.7,14.12,9.49s-8.02-17.42-1.61-18.59
		c6.41-1.17,5.3,12.83,7.53,15.67c2.23,2.84,2.1-13.46,5.92-12.21s-2.72,16.96-0.14,19.07s6.43-11.83,10.76-8.61
		c4.33,3.22-6.84,12.12-5.78,16.28s8.32-8.26,12.21-4.97S51.43,99.38,39.11,102.1z"/>
	<path id="Path-4" class="st3" d="M28.14,56.99c0,0,6.66,26.69,14.81,51.12"/>
	<path id="Path-5" class="st3" d="M14.9,78.11c0,0,18.24,9,24.23,17.19c0,0-0.22-14.6,9.09-24.59"/>
	<path id="Path-6" class="st3" d="M19.2,66.47c0,0,13.61,12.97,17.87,22.66c0,0-1.11-17.53,1.73-26.79"/>
	<path id="Path-7" class="st3" d="M12.31,91.3c0,0,24.67,4.08,27.77,8.16c0,0,6.83-15.29,15.31-19.38"/>
	<path id="Path-8" class="st2" d="M37.88,95.2c-3.8-8.63-15.57-27.02-25.69-24.47C0.51,73.67,26.96,91.88,26.96,91.88
		S8.78,81.49,3.86,89.66s21.83,9.26,21.83,9.26s-14.13-0.96-12,4.31c2.12,5.27,24.79,0.55,27.12,5.58
		C43.13,113.85,40.49,101.12,37.88,95.2z"/>
	<path id="Path-9" class="st3" d="M40.45,106.62c-3.52-9.31-8.96-17.78-15.97-24.85c-2.59-2.56-5.41-4.87-8.44-6.89"/>
	<path id="Path-10" class="st3" d="M40.32,106.81c-7.64-9.43-19.25-15.48-31.19-15.78"/>
	<path id="Path-11" class="st3" d="M40.2,106.91c-6.34-3.66-13.65-5.29-20.95-4.68"/>
	<path id="Path-12" class="st2" d="M43.41,105.89c-1.31-3.83-5.82-6.62-9.33-8.06C25.5,94.3,11.6,91.35,5.1,100.24
		c-2.08,2.9-2.7,6.59-1.68,10.01c1.89,6.12,8.73,8.91,14.56,9.75c7.79,1.12,18.8-0.51,23.98-7.14c0.93-1.13,1.54-2.48,1.77-3.92
		C43.85,107.91,43.74,106.87,43.41,105.89z"/>
	<path id="Path-13" class="st3" d="M42.24,108.16c0,0-23.92-6.44-37.02-2.03"/>
	<path id="Path-14" class="st3" d="M10.55,112.57c0,0,6.19-7.46,9.69-7.79c0,0-4.98-4.88-8.77-5.98"/>
	<path id="Path-15" class="st3" d="M20.38,95.99c0,0,7.03,4.95,7.19,9.32c0,0-6.27,6.19-8.63,11.09"/>
	<path id="Path-16" class="st3" d="M32.68,98.67c0,0,2.72,5.35,2.3,8.01c-2.33,3.22-4.35,6.65-6.06,10.23"/>
	<path id="Path-17" class="st4" d="M156.81,6.82l10.11,55.19c0.5,2.73-1.31,5.35-4.04,5.85c0,0-0.01,0-0.01,0L70.79,84.69
		c-2.73,0.5-5.36-1.3-5.86-4.04c0,0,0-0.01,0-0.01L54.82,25.46c-0.5-2.73,1.31-5.35,4.04-5.85c0,0,0.01,0,0.01,0l92.07-16.83
		C153.68,2.27,156.3,4.08,156.81,6.82C156.8,6.82,156.81,6.82,156.81,6.82z"/>
	<path id="Path-18" class="st5" d="M157.24,9.19L55.26,27.83l3.1,16.93l101.99-18.64L157.24,9.19z"/>
	<path id="Path-19" class="st6" d="M85.22,43.33l-17.59,3.22l0.71,3.9l17.59-3.22L85.22,43.33z"/>
	<path id="Path-20" class="st1" d="M105.27,39.67l-17.59,3.22l0.71,3.9l17.59-3.22L105.27,39.67z"/>
	<path id="Path-21" class="st7" d="M185.93,31.2V87c-0.01,2.77-2.26,5.01-5.03,5H87.36c-2.77,0.01-5.02-2.23-5.03-5V31.2
		c0.01-2.77,2.26-5.01,5.03-5h93.54C183.66,26.19,185.92,28.43,185.93,31.2z"/>
	<path id="Path-22" class="st8" d="M127.63,67.06H91.18v3.97h36.45V67.06z"/>
	<path id="Path-23" class="st8" d="M109.06,74.62H91.18v3.97h17.89V74.62z"/>
	<path id="Path-24" class="st8" d="M119.67,74.62h-8.12v3.97h8.12V74.62z"/>
	<path id="Path-25" class="st8" d="M107.19,52.04H93.04c-1.03,0-1.86,0.83-1.86,1.86c0,0,0,0,0,0.01v6.66
		c0,1.03,0.83,1.86,1.86,1.86c0,0,0,0,0.01,0h14.15c1.03,0,1.86-0.83,1.86-1.86c0,0,0,0,0,0v-6.66
		C109.06,52.88,108.23,52.04,107.19,52.04C107.2,52.04,107.19,52.04,107.19,52.04z"/>
	<path id="Path-26" class="st8" d="M174.31,42.19c0.65-2.37-0.75-4.82-3.13-5.47c-2.37-0.65-4.82,0.75-5.47,3.13
		s0.75,4.82,3.13,5.47c0,0,0,0,0,0C171.22,45.96,173.66,44.56,174.31,42.19C174.31,42.19,174.31,42.19,174.31,42.19z"/>
	<path id="Path-27" class="st8" d="M168.42,42.29c0.57-2.39-0.92-4.79-3.31-5.36c-2.39-0.57-4.79,0.92-5.36,3.31
		c-0.57,2.39,0.92,4.79,3.31,5.36c0,0,0,0,0,0C165.45,46.17,167.85,44.69,168.42,42.29C168.42,42.3,168.42,42.3,168.42,42.29z"/>
	<path id="Path-28" class="st9" d="M78.2,77.37l2.69,7.32c0.13,0.36-0.05,0.77-0.41,0.9c0,0,0,0,0,0l-12.22,4.47
		c-0.36,0.13-0.77-0.05-0.9-0.41c0,0,0,0,0,0l-2.69-7.32c-0.13-0.36,0.05-0.77,0.41-0.9c0,0,0,0,0,0l12.22-4.47
		C77.66,76.82,78.06,77,78.2,77.37C78.2,77.37,78.2,77.37,78.2,77.37z"/>
	<path id="Path-29" class="st8" d="M72.28,84.83l-4.76,1.74l0.19,0.52l4.76-1.74L72.28,84.83z"/>
	<path id="Path-30" class="st8" d="M70.23,86.71l-2.34,0.86l0.19,0.52l2.34-0.86L70.23,86.71z"/>
	<path id="Path-31" class="st8" d="M71.61,86.2l-1.06,0.39l0.19,0.51l1.06-0.38L71.61,86.2z"/>
	<path id="Path-32" class="st8" d="M68.46,84.01l-0.98,0.36c-0.37,0.14-0.57,0.55-0.43,0.93c0.14,0.37,0.55,0.57,0.93,0.43
		l0.97-0.36c0.37-0.14,0.57-0.55,0.43-0.93S68.83,83.87,68.46,84.01L68.46,84.01z"/>
	<path id="Path-33" class="st8" d="M76.57,80.02c0.34,0,0.62-0.28,0.62-0.62c0-0.34-0.28-0.62-0.62-0.62
		c-0.34,0-0.62,0.28-0.62,0.62C75.95,79.75,76.23,80.02,76.57,80.02z"/>
	<path id="Path-34" class="st8" d="M75.88,80.34c0.34-0.04,0.58-0.35,0.53-0.69c-0.04-0.34-0.35-0.58-0.69-0.53
		c-0.34,0.04-0.57,0.35-0.53,0.69C75.23,80.14,75.54,80.38,75.88,80.34C75.88,80.34,75.88,80.34,75.88,80.34z"/>
	<path id="Path-35" class="st1" d="M44.08,61.91c0.43,6.55,7.83,6.2,7.83,6.2s-0.1-29.99-2.13-31.13
		C47.76,35.83,42.8,42.26,44.08,61.91z"/>
	<path id="Path-36" class="st10" d="M35.02,124.39c0.32-0.33,0.61-0.7,0.84-1.1c0.45-0.65,1.23-0.98,2-0.85
		c0.41,0.35,0.47,1.97,0.48,2.35h0.51c0.41-1.06,0.62-2.19,0.61-3.32c-0.15-0.63-0.63-2.08-0.83-2.78c-0.06-0.18-0.1-0.37-0.11-0.56
		c0.57-2.38,2.52-10.49,5.92-17.02c2.69-5.19,3.56-7.26,4.1-11.91s4.78-16.29,4.78-16.29s-5.97-16.19-8.43-6.12
		c-2.46,10.07-2.79,22.41-3.2,24.88c-0.41,2.46-4.11,19.74-6.31,26.97c-0.77,1.78-1.88,3.4-3.25,4.77
		c-0.01,0.01-0.01,0.01-0.02,0.01c-0.39,0.11-0.75,0.3-1.06,0.56c-0.14,0.13-0.27,0.27-0.38,0.42H35.02z"/>
	<path id="Path-37" class="st11" d="M63.61,70.03c0.66,10.26-1.29,12.81-2.05,17.02c-0.57,3.19,1.05,7.81-0.58,12.96
		c-1.09,3.42-3.52,17.94-3.52,17.94v6.02H53.4c0,0,1.6-6.67,1.6-9.18c0-10.82,1.5-23.72,1.28-28.61
		c-0.22-4.79-1.83-14.24-1.83-14.24L63.61,70.03z"/>
	<path id="Path-38" class="st9" d="M58.13,124.8c0.01-1.03-0.03-2.06-0.12-3.09c-0.09-0.86-0.29-1.71-0.59-2.52
		c-0.93-0.96-2.56,0.06-2.56,0.06c-0.73,1.15-0.83,2.05-1.46,2.61c-0.45,0.39-0.49,2.17-0.48,2.94H58.13z"/>
	<path id="Path-39" class="st10" d="M36.55,114.45c2.15-8.25,4.8-20.72,5.14-22.79c0.22-1.33,0.42-5.58,0.95-10.78
		c0.14-5.93,0.82-19.5,4.16-27.2l7.86,0.18c-0.32,6.12,5.62,12.72-1.61,19.79c-0.94,2.64-4.06,11.6-4.51,15.55
		c-0.53,4.66-1.4,6.72-4.1,11.91c-2.1,4.27-3.77,8.74-4.97,13.34H36.55z"/>
	<path id="Path-40" class="st9" d="M35.02,124.8c0.44,0,1.28-0.91,1.88-1.37c0.24-0.23,0.54-0.37,0.87-0.41
		c0.37,0.52,0.58,1.14,0.58,1.78h0.51c0.41-1.06,0.62-2.19,0.61-3.32c-0.3-0.87-0.51-1.77-0.63-2.68c-1.59-0.91-2.97,2.17-5.03,3.89
		c-1.03,0.87-1.68,0.72-1.68,0.72c-0.01,0-0.01,0.01-0.02,0c-0.44,0.08-0.87,0.22-1.28,0.4c-0.44,0.2-0.79,0.55-0.99,0.99
		L35.02,124.8L35.02,124.8z"/>
	<path id="Path-41" class="st11" d="M63.18,80.51c-0.5,2.61-1.22,4.35-1.61,6.54c-0.57,3.19,1.05,7.82-0.59,12.96
		c-0.78,2.44-2.23,10.47-3,14.91H55v-0.13c0-10.82,1.5-23.72,1.28-28.61c-0.09-2.07-0.45-5-0.82-7.67c0-0.01-1.42-9.12-2.54-9.78
		c-0.67-0.4-6.11-15.06-6.11-15.06l11.76,0.55c4.29,4.05,6.2,10.02,5.05,15.8c0,0,0,0.1,0.02,0.29
		C63.92,73.71,63.76,77.14,63.18,80.51z"/>
	<path id="Path-42" class="st12" d="M36.35,115.2c1.67,1.75,2.74,0.63,2.74,0.63c2.82-4.53,5.01-9.42,6.51-14.55
		c4.89-15.78,6.3-24.05,6.3-24.05l1.36-3.01l0.9,2.39l0.71,39.71c1.06,1.26,2.81,0.24,2.81,0.24c3.39-14.42,5.89-29.03,7.5-43.75
		c0.14-3.25-0.19-6.51-0.98-9.67c-1.83-7.03-5.53-9.9-5.53-9.9c-1.12,0.32-2.28,0.5-3.44,0.54c-1.88,0.09-3.76,0.08-5.64-0.06
		c-0.54-0.03-1.01-0.07-1.42-0.1c-0.84-0.06-1.37-0.12-1.37-0.12c-1.01,1.95-1.96,6.41-2.71,10.74c-0.04,0.23-0.08,0.45-0.12,0.67
		c-0.55,3.27-1.07,6.38-1.21,8.21C40.38,101.92,36.35,115.2,36.35,115.2z"/>
	<path id="Path-43" class="st9" d="M51.49,21.52c1.02,6.31-3.39,10.32,4.68,10.4s9.56,1.48,9.56,1.48s-1.49-2.66-1.11-9.39
		c0.31-5.64-2.32-8.95-7.25-8.52S51.16,19.45,51.49,21.52z"/>
	<path id="Path-44" class="st13" d="M43.76,38.14c-2.46,3.76-5.18,7.56-6.53,9.43v6.82c0.31,0.11,0.65,0.16,0.98,0.13
		c2.22-0.36,8.18-8.75,8.18-8.75l5.06-14.47C48.26,32.77,45.59,35.15,43.76,38.14z"/>
	<path id="Path-45" class="st2" d="M61.71,45.99c-1.63,2.43-2.7,5.18-3.15,8.06c0,0-6.31,1.83-11.76-0.55l-0.4-7.74
		c0,0-3.31-6.12,3.66-12.4c0.41-0.37,0.86-0.74,1.34-1.11c0.25-0.19,0.5-0.38,0.77-0.56c2.06-0.53,4.2-0.67,6.32-0.41
		c1.63,0.3,4.06-0.48,5.93,0.26c0.57,0.22,1.06,0.59,1.43,1.07C68.64,36.15,64.1,42.63,61.71,45.99z"/>
	<path id="Path-46" class="st11" d="M65.22,33.11c0,0-7.12,3.53-10.63,3.24c-1.9-0.21-3.58-1.31-4.53-2.97
		c-0.15-0.23-0.27-0.47-0.38-0.72c0.3-0.34,0.64-0.65,1-0.93c0.2,0.16,0.45,0.34,0.72,0.54c0.25-0.19,0.5-0.38,0.77-0.56
		c2.06-0.53,4.21-0.67,6.32-0.41c1.63,0.3,4.06-0.48,5.93,0.26c0.14,0.18,0.27,0.37,0.39,0.57C64.99,32.44,65.13,32.76,65.22,33.11z
		"/>
	<path id="Path-47" class="st10" d="M64.8,32.13c-3.08,0.83-6.23,1.42-9.4,1.77l-1.22,1.01V33.9c-1.01-0.39-1.95-0.94-2.79-1.63
		c0.25-0.19,0.5-0.37,0.77-0.56c2.06-0.53,4.21-0.67,6.32-0.41c1.63,0.3,4.06-0.48,5.93,0.26C64.56,31.74,64.69,31.93,64.8,32.13z"
		/>
	<path id="Path-48" class="st10" d="M67.63,80.02c-0.04,0.4,0.99,0.83,0.99,0.83s0.36,0.69,0.9,0.69c0.53,0,1.63-1.81,0.77-2.74
		C69.43,77.87,67.77,78.79,67.63,80.02z"/>
	<path id="Path-49" class="st14" d="M62.58,31.11c-2.75,4.46-4.51,9.45-5.17,14.65c-0.75,7.89,7.39,23.85,7.39,23.85
		c0.88-0.29,1.59-0.96,1.93-1.82c0,0-2.92-13.53-1.05-22.03C67.4,37.93,70.19,31.11,62.58,31.11z"/>
	<path id="Path-50" class="st14" d="M54.18,31.29c-5.07,3.22-8.45,8.52-9.25,14.47c-0.71,5.35-0.99,10.75-0.84,16.15
		c0,0-2.65-24.63,7.37-30.61C52.35,31.07,53.28,31.07,54.18,31.29z"/>
	<path id="Path-51" class="st11" d="M54.78,16c0,0,6.97-2.33,8.37,2.57c1.4,4.9-0.02,10.02-3.76,9.9
		C54.75,28.32,49.36,18.76,54.78,16z"/>
	<path id="Path-52" class="st12" d="M59.4,21.61c0.02,0.31,0.2,0.56,0.4,0.55c0.2-0.01,0.34-0.29,0.32-0.6
		c-0.02-0.31-0.2-0.56-0.4-0.55C59.53,21.02,59.38,21.29,59.4,21.61z"/>
	<path id="Path-53" class="st15" d="M58.28,22.89c0.01,0.33,0.28,0.6,0.61,0.6c0.33,0.07,0.65-0.14,0.73-0.46
		c0-0.33-0.27-0.6-0.61-0.6C58.68,22.35,58.36,22.56,58.28,22.89z"/>
	<path id="Path-54" class="st12" d="M59.21,21.52c0,0,0.17-0.73,0.42-0.74c0.26-0.02,0.68,0.46,0.68,0.46l0.47-0.34l-0.45,0.18
		c0,0-0.39-0.56-0.75-0.44S59.21,21.52,59.21,21.52z"/>
	<path id="Path-55" class="st12" d="M62.32,21.16c0.02,0.31,0.2,0.56,0.4,0.54c0.2-0.01,0.34-0.28,0.32-0.6
		c-0.02-0.31-0.2-0.56-0.4-0.55C62.45,20.57,62.3,20.84,62.32,21.16z"/>
	<path id="Path-56" class="st12" d="M62.13,21.08c0,0,0.17-0.73,0.42-0.74c0.26-0.02,0.68,0.46,0.68,0.46l0.47-0.34l-0.45,0.18
		c0,0-0.39-0.56-0.75-0.44S62.13,21.08,62.13,21.08z"/>
	<path id="Path-57" class="st12" d="M58.83,19.88c0.05,0,0.09-0.03,0.12-0.07c0.19-0.28,0.52-0.43,0.85-0.4
		c0.08,0.01,0.15-0.05,0.16-0.13c0.01-0.08-0.05-0.15-0.13-0.16c-0.45-0.04-0.88,0.17-1.13,0.53c-0.04,0.07-0.03,0.15,0.04,0.2
		c0,0,0,0,0,0C58.77,19.88,58.8,19.89,58.83,19.88z"/>
	<path id="Path-58" class="st12" d="M62.04,19.14c0.03,0,0.06-0.01,0.08-0.03c0.27-0.2,0.63-0.25,0.94-0.12
		c0.07,0.03,0.15,0,0.18-0.07c0,0,0-0.01,0-0.01c0.03-0.07,0-0.15-0.07-0.18c0,0,0,0,0,0c-0.41-0.17-0.89-0.11-1.24,0.16
		c-0.06,0.05-0.07,0.14-0.02,0.2c0,0,0,0,0,0C61.95,19.12,61.99,19.14,62.04,19.14z"/>
	<path id="Path-59" class="st16" d="M62.14,22.05c0,0,1.24,0.01,1.12,0.45c-0.2,0.39-0.49,0.73-0.84,1
		C62.43,23.5,61.87,22.6,62.14,22.05z"/>
	<path id="Path-60" class="st12" d="M62.75,24.28c-0.91,0.44-1.96,0.47-2.89,0.08c0,0,0.29,1.79,1.46,1.52
		C62.05,25.64,62.59,25.03,62.75,24.28z"/>
	<path id="Path-61" class="st9" d="M57.55,18.52c-0.99,1.35-1.52,2.99-1.51,4.66c0,0-1.17-1.43-1.78-0.19
		c-0.61,1.24,1.15,2.23,1.15,2.23s1.31,3.04,0.23,3.07c-1.09,0.04-4.59-5.06-3.95-7.11C52.33,19.13,54.28,17.08,57.55,18.52z"/>
	<path id="Path-62" class="st10" d="M56.18,24.96c0.54,1.44,2.58,3.93,4.76,3.22c0,0-0.14,2.75,0.76,3.53
		c-1.38,0.71-2.83,1.27-4.33,1.67c-1.4,0.16-1.45-1.12-1.35-1.69c0.77-4.12-0.61-6.47-0.61-6.47c0.19,0.17,0.49,0.16,0.66-0.04
		C56.12,25.12,56.16,25.04,56.18,24.96z"/>
	<path id="Path-63" class="st9" d="M58.95,16.75c1.01-0.2,2.05,0.15,2.74,0.92c1.36,1.32,1.85,5.52,2.92,6.35
		c0,0,1.47-8.49-4.61-9.68s-9.79,2.55-8.35,7.86c0,0,3.03,0.35,4.52-0.52C57.66,20.8,59.48,18.62,58.95,16.75z"/>
	<path id="Path-64" class="st13" d="M35.17,41.55l1.18,7.21c0,0,0.67-0.91,1.7-2.35c1.19-1.64,4.49,4.29,4.49,4.29
		c-1.62,1.9-3.34,3.64-4.33,3.8c-2.22,0.36-4.05-1.67-4.41-2.96c-0.65-2.77-0.63-5.66,0.06-8.43
		C34.36,41.28,35.17,41.55,35.17,41.55z"/>
	<path id="Path-65" class="st11" d="M33.17,42.34c0,0,0.08-1.4,0.88-1.46c0.61,0.18,1.13,0.59,1.45,1.15
		c-0.07,0.35-0.7,0.15-0.7,0.15s0.94,0.6,1.03,0.99c0.09,0.39-0.53,0.31-0.53,0.31s1.12,0.88,0.3,1.09c0,0,0.35,0.39-0.35,0.47
		c0,0,0.01,0.65-0.55,0.63C34,45.63,33.22,44.12,33.17,42.34z"/>
	<path id="Path-66" class="st11" d="M70.53,76.04c0,0,1.97,2.64,1.77,3.24c-0.2,0.6-1.77,1.29-1.77,1.29s-0.3,1.08-1.01,0.97
		c0.18-0.41,0.22-0.87,0.09-1.3c-0.23-0.66-1.3-0.86-1.3-0.86l-0.68,0.63c-0.05-1.24,0.09-2.49,0.39-3.69
		C68.46,75.49,70.53,76.04,70.53,76.04z"/>
	<path id="Path-67" class="st13" d="M67.1,33.09c-1.5-1.6-3.02,1.55-3.97,5.18c-0.95,3.63,0.49,17.09,0.49,17.09l4.01,21.08
		c0,0,2.17,0.95,3.25,0c0,0-1.57-18.18-2.33-21.66C68.55,54.79,69.94,36.11,67.1,33.09z"/>
	<path id="Path-68" class="st2" d="M186.67,91.27c14.74,3.24,30.36-6.65,30.54-12.51c0.18-5.86-14.14,6.31-16.21,0.34
		c-2.07-5.96,15.58-8.36,15.83-14.66c0.25-6.31-15.61,8.58-16.84,4.56c-1.23-4.03,14.07-13.56,11.8-18.2s-11.52,11.68-14.15,9.48
		s8.04-17.39,1.61-18.56c-6.43-1.17-5.31,12.81-7.55,15.65c-2.24,2.84-2.11-13.44-5.94-12.19s2.73,16.93,0.14,19.04
		c-2.59,2.11-6.44-11.81-10.79-8.6c-4.35,3.21,6.86,12.1,5.79,16.25s-8.34-8.24-12.24-4.96C164.75,70.18,174.32,88.56,186.67,91.27z
		"/>
	<path id="Path-69" class="st3" d="M197.67,46.24c0,0-6.68,26.65-14.84,51.04"/>
	<path id="Path-70" class="st3" d="M210.94,67.32c0,0-18.29,8.98-24.29,17.16c0,0,0.22-14.58-9.12-24.55"/>
	<path id="Path-71" class="st3" d="M206.62,55.7c0,0-13.64,12.95-17.92,22.63c0,0,1.11-17.5-1.73-26.75"/>
	<path id="Path-72" class="st3" d="M213.54,80.49c0,0-24.74,4.08-27.84,8.15c0,0-6.86-15.27-15.36-19.35"/>
	<path id="Path-73" class="st2" d="M187.9,84.39c3.81-8.62,15.61-26.98,25.76-24.43c11.71,2.94-14.8,21.12-14.8,21.12
		s18.22-10.37,23.14-2.22s-21.88,9.25-21.88,9.25s14.16-0.96,12.04,4.3c-2.12,5.26-24.86,0.55-27.18,5.58
		C182.65,103.01,185.28,90.3,187.9,84.39z"/>
	<path id="Path-74" class="st3" d="M185.32,95.79c3.53-9.3,8.98-17.76,16.01-24.81c2.59-2.56,5.43-4.86,8.46-6.88"/>
	<path id="Path-75" class="st3" d="M185.45,95.98c7.66-9.41,19.3-15.45,31.27-15.75"/>
	<path id="Path-76" class="st3" d="M185.57,96.08c6.37-3.65,13.69-5.28,21.01-4.67"/>
	<path id="Path-77" class="st2" d="M182.36,95.05c1.31-3.83,5.84-6.61,9.35-8.05c8.6-3.52,22.53-6.47,29.06,2.42
		c2.09,2.89,2.71,6.58,1.68,9.99c-1.9,6.11-8.76,8.89-14.6,9.73c-7.81,1.12-18.85-0.51-24.04-7.13c-0.93-1.12-1.54-2.48-1.77-3.92
		C181.91,97.08,182.02,96.03,182.36,95.05z"/>
	<path id="Path-78" class="st3" d="M183.53,97.33c0,0,23.98-6.43,37.11-2.03"/>
	<path id="Path-79" class="st3" d="M215.3,101.72c0,0-6.2-7.45-9.71-7.78c0,0,5-4.88,8.8-5.97"/>
	<path id="Path-80" class="st3" d="M205.44,85.18c0,0-7.05,4.94-7.21,9.31c0,0,6.29,6.18,8.65,11.08"/>
	<path id="Path-81" class="st3" d="M193.11,87.85c0,0-2.72,5.34-2.3,8c2.33,3.21,4.36,6.63,6.07,10.21"/>
	<path id="Path-82" class="st9" d="M134.8,42.32c7.42-0.01,13.42-6.04,13.41-13.46c-0.01-7.42-6.04-13.42-13.46-13.41
		c-7.41,0.01-13.41,6.02-13.41,13.43C121.35,36.31,127.37,42.32,134.8,42.32C134.8,42.32,134.8,42.32,134.8,42.32z"/>
	<path id="Path-83" class="st6" d="M140.41,28.33h-5.05v-5.04c0.02-0.29-0.21-0.54-0.5-0.56c-0.02,0-0.04,0-0.06,0
		c-0.29-0.02-0.54,0.2-0.56,0.5c0,0.02,0,0.04,0,0.06v5.04h-5.05c-0.29-0.02-0.54,0.21-0.56,0.5c0,0.02,0,0.04,0,0.06
		c-0.02,0.29,0.21,0.54,0.5,0.56c0.02,0,0.04,0,0.06,0h5.05v5.04c-0.02,0.29,0.21,0.54,0.5,0.56c0.02,0,0.04,0,0.06,0
		c0.29,0.02,0.54-0.2,0.56-0.5c0-0.02,0-0.04,0-0.06v-5.04h5.05c0.29,0.02,0.54-0.2,0.56-0.5c0-0.02,0-0.04,0-0.06
		c0.02-0.29-0.21-0.54-0.5-0.56C140.44,28.33,140.42,28.33,140.41,28.33z"/>
	<g id="Group" transform="translate(26.705 24.102)">
		<path id="Path-84" class="st6" d="M3.86,18.47c-0.41-0.03-0.71-0.38-0.69-0.79L3.31,3.55C3.29,3.14,3.6,2.8,4.01,2.78l7.08,0.08
			c0.41,0.03,0.72,0.38,0.69,0.79l-0.13,14.13c0.02,0.41-0.29,0.75-0.7,0.78L3.86,18.47z"/>
		<path id="Shape" class="st12" d="M4.12,18.59c-0.51-0.03-0.91-0.46-0.89-0.98V3.57C3.21,3.05,3.6,2.62,4.12,2.59h7.23
			c0.51,0.03,0.91,0.46,0.89,0.97v14.05c0.02,0.51-0.37,0.95-0.89,0.98H4.12z"/>
	</g>
	<g id="Group-2" transform="translate(27.681 30.645)">
		<path id="Path-85" class="st4" d="M9.91,6.42l-5.3,2.19C4.49,8.66,4.37,8.6,4.32,8.49L2.95,5.18C2.9,5.07,2.96,4.95,3.07,4.9
			l5.3-2.19C8.47,2.67,8.6,2.72,8.65,2.83l1.37,3.31C10.07,6.25,10.02,6.37,9.91,6.42z"/>
		<path id="Path-86" class="st6" d="M4.97,6.48l-0.96,0.4C4,6.88,4,6.88,3.99,6.87l-0.3-0.71c0-0.01,0-0.02,0.01-0.03l0.96-0.4
			c0.01,0,0.02,0,0.03,0.01c0,0,0,0,0,0l0.29,0.71C4.99,6.47,4.98,6.48,4.97,6.48z"/>
		<g id="Group-3" transform="translate(1.081 3.345)" class="st17">
			<path id="Path-87" class="st18" d="M3.86,2.99l-0.12-0.3c-0.19,0.33-0.47,0.6-0.8,0.79C2.97,3.5,3.01,3.51,3.05,3.49l0.73-0.3
				c0.07-0.03,0.11-0.11,0.08-0.19C3.86,3,3.86,3,3.86,2.99z"/>
		</g>
		<path id="Path-88" class="st6" d="M5.25,6.66L4.1,7.14l0.15,0.37L5.4,7.03L5.25,6.66z"/>
		<path id="Path-89" class="st6" d="M6.54,6.13L5.38,6.61l0.15,0.37L6.68,6.5L6.54,6.13z"/>
		<path id="Path-90" class="st6" d="M7.82,5.6L6.67,6.08l0.15,0.37l1.15-0.48L7.82,5.6z"/>
		<path id="Path-91" class="st6" d="M9.11,5.07L7.95,5.55l0.15,0.37l1.15-0.48L9.11,5.07z"/>
		<path id="Path-92" class="st6" d="M9.37,5.7L6.93,6.71l0.05,0.11l2.44-1.01L9.37,5.7z"/>
	</g>
	<g id="Group-4" transform="translate(28.392 27.914)">
		<path id="Path-93" class="st7" d="M8.88,6.73L3.15,6.71c-0.12,0-0.22-0.1-0.22-0.22l0.01-3.58c0-0.12,0.1-0.22,0.22-0.22
			l5.74,0.02c0.12,0,0.22,0.1,0.22,0.22L9.1,6.51C9.1,6.63,9,6.73,8.88,6.73z"/>
		<path id="Path-94" class="st6" d="M4.31,4.89l-1.04,0c-0.01,0-0.02-0.01-0.02-0.02V4.1c0-0.01,0.01-0.02,0.02-0.02c0,0,0,0,0,0
			h1.04c0.01,0,0.02,0.01,0.02,0.02v0.77C4.33,4.88,4.32,4.89,4.31,4.89C4.31,4.89,4.31,4.89,4.31,4.89z"/>
		<g id="Group-5" transform="translate(0.356 1.72)" class="st17">
			<path id="Path-95" class="st18" d="M3.97,3.02V2.69c-0.3,0.23-0.66,0.38-1.04,0.43C2.96,3.15,3,3.16,3.03,3.17h0.79
				C3.9,3.17,3.97,3.1,3.97,3.02C3.97,3.02,3.97,3.02,3.97,3.02z"/>
		</g>
		<path id="Path-96" class="st6" d="M4.5,5.16L3.25,5.16v0.4h1.25L4.5,5.16z"/>
		<path id="Path-97" class="st6" d="M5.89,5.16H4.64v0.4h1.25L5.89,5.16z"/>
		<path id="Path-98" class="st6" d="M7.28,5.16H6.03v0.4h1.25L7.28,5.16z"/>
		<path id="Path-99" class="st6" d="M8.67,5.17H7.42v0.4h1.25L8.67,5.17z"/>
		<path id="Path-100" class="st6" d="M8.67,5.85L6.03,5.85v0.12l2.64,0.01V5.85z"/>
	</g>
	<ellipse id="Oval" class="st9" cx="36.44" cy="40.84" rx="0.81" ry="0.81"/>
	<path id="Path-101" class="st6" d="M36.76,40.81h-0.29v-0.29c0-0.02-0.01-0.03-0.03-0.03c0,0,0,0-0.01,0
		c-0.02,0-0.03,0.01-0.03,0.03c0,0,0,0,0,0v0.29h-0.29c-0.02,0-0.03,0.01-0.03,0.03c0,0,0,0,0,0.01c0,0.02,0.01,0.03,0.03,0.03
		c0,0,0,0,0,0h0.29v0.29c0,0.02,0.01,0.03,0.03,0.03c0,0,0,0,0,0c0.02,0,0.03-0.01,0.03-0.03c0,0,0,0,0-0.01v-0.29h0.29
		c0.02,0,0.03-0.01,0.03-0.03c0,0,0,0,0,0C36.79,40.82,36.78,40.81,36.76,40.81C36.76,40.81,36.76,40.81,36.76,40.81z"/>
	<path id="Path-102" class="st12" d="M31.59,27.39v-0.25h5.11v0.3c-0.07,0.16-0.34,0.22-0.47,0.23c-1.26,0.01-3.87,0.01-4.19,0
		C31.72,27.66,31.61,27.48,31.59,27.39z"/>
	<path id="Path-103" class="st19" d="M191.94,106.93c0,0.01,0,0.03,0,0.04c-0.04,0.54-0.3,1.05-0.73,1.38
		c-0.12,0.11-0.25,0.22-0.39,0.31c-0.46,0.32-0.95,0.59-1.46,0.8c-0.12,0.05-0.25,0.11-0.39,0.16c-0.45,0.18-0.93,0.34-1.46,0.49
		c-0.13,0.04-0.26,0.07-0.39,0.11c-0.46,0.12-0.95,0.24-1.46,0.34c-0.13,0.03-0.26,0.05-0.39,0.07c-0.47,0.09-0.96,0.17-1.46,0.24
		c-0.13,0.02-0.26,0.04-0.39,0.05c-0.47,0.06-0.96,0.12-1.46,0.16l-0.39,0.03c-0.48,0.04-0.97,0.07-1.46,0.09l-0.39,0.02
		c-0.48,0.02-0.97,0.03-1.46,0.03h-0.39c-0.49,0-0.98-0.01-1.46-0.03l-0.39-0.01c-0.37-0.02-0.73-0.04-1.08-0.06l-0.38-0.03
		l-0.39-0.03c-0.5-0.04-0.99-0.1-1.46-0.16c-0.13-0.02-0.26-0.03-0.39-0.05c-0.3-0.04-0.6-0.09-0.89-0.13
		c-0.19-0.03-0.38-0.06-0.57-0.1l-0.39-0.07c-0.51-0.1-1-0.21-1.47-0.34l-0.27-0.07l-0.11-0.03c-0.21-0.06-0.41-0.12-0.61-0.18
		c-0.3-0.1-0.58-0.2-0.85-0.3c-0.13-0.05-0.26-0.1-0.39-0.15c-0.45-0.18-0.89-0.4-1.3-0.66c-0.06-0.04-0.11-0.07-0.17-0.11
		c-0.05-0.04-0.13-0.09-0.19-0.14c-0.06-0.05-0.13-0.1-0.19-0.15c-0.5-0.34-0.81-0.89-0.86-1.49c0-0.04,0-0.07,0-0.11v-2.97h1.25
		h1.46h2.24h1.46h0.39h1.46h0.39h1.46h0.39h1.46h0.39h1.46h0.39h1.46h0.39h1.46h0.39h1.46h0.39h1.46h0.39h1.46h0.48l1.36-0.04h0.39
		h1.46h1.11L191.94,106.93L191.94,106.93L191.94,106.93z"/>
	<path id="Path-104" class="st20" d="M165.32,103.88v4.86c-0.07-0.04-0.13-0.09-0.2-0.14c-0.07-0.05-0.13-0.1-0.19-0.15v-4.57
		H165.32z"/>
	<path id="Path-105" class="st20" d="M167.17,103.88v5.78c-0.13-0.05-0.26-0.1-0.39-0.15v-5.63H167.17z"/>
	<path id="Path-106" class="st20" d="M169.02,103.88v6.37l-0.27-0.07l-0.11-0.04v-6.26H169.02z"/>
	<path id="Path-107" class="st20" d="M170.87,103.88v6.78l-0.39-0.08v-6.7H170.87z"/>
	<path id="Path-108" class="st20" d="M172.72,103.87v7.07c-0.13-0.02-0.26-0.03-0.39-0.05v-7.01H172.72z"/>
	<path id="Path-109" class="st20" d="M174.56,103.87v7.26l-0.39-0.03v-7.22H174.56z"/>
	<path id="Path-110" class="st20" d="M176.41,103.87v7.36l-0.39-0.01v-7.35H176.41z"/>
	<path id="Path-111" class="st20" d="M178.26,103.86v7.39h-0.39v-7.39H178.26z"/>
	<path id="Path-112" class="st20" d="M180.11,103.86v7.35l-0.39,0.02v-7.36H180.11z"/>
	<path id="Path-113" class="st20" d="M181.96,103.86v7.22l-0.39,0.03v-7.26H181.96z"/>
	<path id="Path-114" class="st20" d="M183.81,103.86v7.01l-0.39,0.05v-7.07H183.81z"/>
	<path id="Path-115" class="st20" d="M185.66,103.85v6.7c-0.13,0.03-0.26,0.05-0.39,0.08v-6.78H185.66z"/>
	<path id="Path-116" class="st20" d="M187.51,103.85v6.25c-0.13,0.04-0.26,0.07-0.39,0.11v-6.36H187.51z"/>
	<path id="Path-117" class="st20" d="M189.36,103.85v5.61c-0.13,0.05-0.25,0.11-0.39,0.16v-5.76H189.36z"/>
	<path id="Path-118" class="st20" d="M191.21,103.85v4.5c-0.12,0.11-0.25,0.22-0.39,0.31v-4.81H191.21z"/>
	<path id="Path-119" class="st21" d="M191.94,103.88c0,2.18-6.24,3.95-13.93,3.95c-1.05,0-2.08-0.03-3.06-0.1
		c-1.24-0.08-2.41-0.2-3.5-0.37c-0.97-0.14-1.88-0.33-2.7-0.53c-0.25-0.07-0.49-0.13-0.72-0.2c-0.88-0.24-1.73-0.58-2.54-1.02
		c-0.13-0.07-0.25-0.15-0.36-0.22c-0.58-0.3-0.97-0.86-1.05-1.51c0-0.05,0-0.1,0.01-0.15c0.27-2.11,6.4-3.8,13.92-3.8
		c1.75,0,3.5,0.09,5.23,0.29c0.31,0.04,0.62,0.07,0.92,0.12c1.2,0.16,2.38,0.4,3.55,0.71c0.23,0.06,0.45,0.13,0.66,0.2
		c0.67,0.2,1.33,0.47,1.95,0.79c0.47,0.23,0.9,0.55,1.25,0.95c0.19,0.21,0.31,0.47,0.35,0.75
		C191.93,103.79,191.94,103.83,191.94,103.88z"/>
	<path id="Path-120" class="st22" d="M191.57,102.98l-16.63,4.75c-1.24-0.08-2.41-0.2-3.5-0.37l18.88-5.33
		C190.79,102.27,191.22,102.59,191.57,102.98z"/>
	<path id="Path-121" class="st22" d="M184.16,100.34l-18.67,5.28c-0.13-0.07-0.25-0.15-0.36-0.22l18.11-5.17
		C183.55,100.26,183.86,100.3,184.16,100.34z"/>
	<path id="Path-122" class="st22" d="M188.37,101.24l-19.62,5.59c-0.25-0.06-0.49-0.13-0.73-0.2l19.68-5.58
		C187.93,101.11,188.15,101.18,188.37,101.24z"/>
	<path id="Path-123" class="st20" d="M189.14,103.88c0,0.05,0,0.1-0.01,0.15c-0.27,1.67-5.16,3.01-11.12,3.01
		c-5.96,0-10.85-1.34-11.12-3.01c-0.01-0.05-0.01-0.1-0.01-0.14c0-1.74,5-3.16,11.13-3.16
		C184.14,100.73,189.14,102.14,189.14,103.88z"/>
	<path id="Path-124" class="st19" d="M189.13,104.03c-0.27,1.67-5.16,3.01-11.12,3.01h-0.4c-1.26-0.01-2.52-0.09-3.78-0.23
		c-1.07-0.12-2.14-0.3-3.18-0.56c-0.24-0.06-0.47-0.12-0.69-0.19c-0.83-0.22-1.61-0.57-2.33-1.04c-0.12-0.09-0.23-0.18-0.34-0.29
		c-0.21-0.19-0.35-0.44-0.41-0.71c0.27-1.67,5.15-3.01,11.12-3.01c0.76,0,1.49,0.02,2.21,0.06c0.36,0.02,0.72,0.05,1.07,0.08
		c1.3,0.11,2.6,0.31,3.87,0.6c0.24,0.06,0.48,0.12,0.7,0.18c0.75,0.2,1.47,0.48,2.15,0.85c0.45,0.22,0.81,0.57,1.05,1
		C189.09,103.87,189.12,103.95,189.13,104.03z"/>
	<path id="Path-125" class="st23" d="M189.06,103.79l-11.45,3.25c-1.26-0.01-2.52-0.09-3.78-0.23l14.18-4.02
		C188.46,103,188.82,103.35,189.06,103.79z"/>
	<path id="Path-126" class="st23" d="M181.29,101.16l-13.66,3.87c-0.12-0.09-0.23-0.18-0.34-0.28l12.92-3.66
		C180.58,101.1,180.94,101.13,181.29,101.16z"/>
	<path id="Path-127" class="st23" d="M185.86,101.94l-15.21,4.31c-0.24-0.06-0.47-0.12-0.69-0.19l15.2-4.31
		C185.4,101.81,185.63,101.87,185.86,101.94z"/>
	<path id="Path-128" class="st20" d="M179.55,105.67v0.53h-2.35v-0.5c-1.43-0.01-2.86-0.12-4.28-0.33l1.27-0.81
		c1.27,0.2,2.56,0.3,3.85,0.3c1.12,0,1.52-0.07,1.52-0.18c0-0.42-6.45-0.08-6.45-1.31c0-0.53,1.37-0.98,4.1-1.09v-0.52h2.35v0.5
		c1.13,0.02,2.26,0.11,3.38,0.27l-1.18,0.81c-1.08-0.16-2.16-0.24-3.25-0.25c-1.15,0-1.52,0.1-1.52,0.21c0,0.4,6.45,0.07,6.45,1.28
		C183.44,105.1,182.14,105.55,179.55,105.67z"/>
	<path id="Path-129" class="st21" d="M179.49,105.5v0.53h-2.35v-0.5c-1.43-0.01-2.87-0.12-4.28-0.33l1.27-0.81
		c1.27,0.2,2.56,0.3,3.85,0.3c1.12,0,1.52-0.07,1.52-0.18c0-0.42-6.45-0.08-6.45-1.31c0-0.53,1.37-0.98,4.1-1.09v-0.52h2.35v0.5
		c1.13,0.02,2.26,0.11,3.38,0.27l-1.18,0.81c-1.08-0.16-2.16-0.24-3.25-0.25c-1.15,0-1.52,0.1-1.52,0.21c0,0.4,6.45,0.07,6.45,1.28
		C183.37,104.93,182.07,105.37,179.49,105.5z"/>
	<path id="Path-130" class="st19" d="M192.82,102.06c0,0.01,0,0.03,0,0.04c-0.04,0.54-0.3,1.04-0.73,1.38
		c-0.12,0.11-0.25,0.21-0.39,0.31c-0.46,0.32-0.95,0.59-1.46,0.8c-0.12,0.05-0.25,0.11-0.39,0.16c-0.45,0.18-0.94,0.34-1.46,0.49
		c-0.13,0.04-0.26,0.07-0.39,0.11c-0.46,0.12-0.95,0.24-1.46,0.34c-0.13,0.03-0.26,0.05-0.39,0.08c-0.47,0.09-0.95,0.17-1.46,0.24
		l-0.39,0.05c-0.47,0.06-0.96,0.12-1.46,0.16l-0.39,0.03c-0.48,0.04-0.97,0.07-1.46,0.09l-0.39,0.02c-0.48,0.02-0.97,0.03-1.46,0.03
		h-0.39c-0.49,0-0.98-0.01-1.46-0.03l-0.39-0.01c-0.37-0.02-0.73-0.04-1.08-0.06l-0.38-0.03l-0.39-0.03
		c-0.5-0.04-0.99-0.09-1.47-0.15c-0.13-0.02-0.26-0.03-0.39-0.05c-0.3-0.04-0.6-0.09-0.89-0.13c-0.19-0.03-0.38-0.07-0.57-0.1
		l-0.39-0.07c-0.51-0.1-1-0.21-1.46-0.33l-0.27-0.08l-0.12-0.03c-0.21-0.06-0.41-0.12-0.61-0.18c-0.3-0.1-0.58-0.2-0.85-0.3
		c-0.13-0.05-0.26-0.1-0.39-0.15c-0.45-0.18-0.89-0.4-1.3-0.66c-0.06-0.04-0.11-0.07-0.17-0.11c-0.05-0.04-0.13-0.09-0.19-0.14
		c-0.06-0.05-0.13-0.1-0.19-0.15c-0.5-0.34-0.81-0.89-0.86-1.49c0-0.04,0-0.07,0.01-0.11v-2.97h1.24h1.46h0.39h1.14h0.71h1.46h0.39
		h1.46h0.39h1.46h0.39h1.46h0.39h1.46h0.39h1.46h0.39h1.46h0.39h1.46h0.39h1.46h0.39H188h0.48l1.36-0.04h0.39h1.46h1.11
		L192.82,102.06L192.82,102.06L192.82,102.06z"/>
	<path id="Path-131" class="st20" d="M166.19,99.01v4.86c-0.07-0.04-0.13-0.09-0.19-0.14c-0.06-0.05-0.13-0.1-0.19-0.15v-4.57
		H166.19z"/>
	<path id="Path-132" class="st20" d="M168.04,99.01v5.78c-0.13-0.05-0.26-0.1-0.39-0.15v-5.63H168.04z"/>
	<path id="Path-133" class="st20" d="M169.89,99.01v6.37l-0.27-0.07l-0.11-0.04v-6.26H169.89z"/>
	<path id="Path-134" class="st20" d="M171.74,99.01v6.78l-0.39-0.08v-6.7H171.74z"/>
	<path id="Path-135" class="st20" d="M173.59,99v7.07c-0.13-0.02-0.26-0.03-0.39-0.05V99H173.59z"/>
	<path id="Path-136" class="st20" d="M175.44,99v7.26c-0.13-0.01-0.26-0.02-0.39-0.03V99H175.44z"/>
	<path id="Path-137" class="st20" d="M177.29,99v7.36l-0.39-0.01V99H177.29z"/>
	<path id="Path-138" class="st20" d="M179.14,98.99v7.39h-0.39v-7.39H179.14z"/>
	<path id="Path-139" class="st20" d="M180.99,98.99v7.35l-0.39,0.02v-7.36H180.99z"/>
	<path id="Path-140" class="st20" d="M182.84,98.99v7.22l-0.39,0.03v-7.26H182.84z"/>
	<path id="Path-141" class="st20" d="M184.69,98.99V106c-0.13,0.02-0.26,0.04-0.39,0.05v-7.07H184.69z"/>
	<path id="Path-142" class="st20" d="M186.54,98.98v6.7c-0.13,0.03-0.26,0.05-0.39,0.08v-6.78H186.54z"/>
	<path id="Path-143" class="st20" d="M188.39,98.98v6.25c-0.13,0.04-0.26,0.07-0.39,0.11v-6.36H188.39z"/>
	<path id="Path-144" class="st20" d="M190.24,98.98v5.61c-0.12,0.05-0.25,0.11-0.39,0.16v-5.77H190.24z"/>
	<path id="Path-145" class="st20" d="M192.08,98.98v4.5c-0.12,0.11-0.25,0.22-0.39,0.31v-4.81H192.08z"/>
	<path id="Path-146" class="st21" d="M192.81,99.01c0,2.18-6.24,3.95-13.93,3.95c-1.05,0-2.08-0.03-3.06-0.1
		c-1.24-0.08-2.42-0.2-3.5-0.37c-0.97-0.14-1.88-0.33-2.7-0.53c-0.25-0.06-0.49-0.13-0.73-0.2c-0.88-0.24-1.73-0.58-2.54-1.02
		c-0.13-0.07-0.25-0.15-0.36-0.22c-0.58-0.3-0.97-0.86-1.06-1.51c0-0.05,0-0.1,0.01-0.15c0.27-2.11,6.4-3.8,13.92-3.8
		c1.75,0,3.49,0.09,5.23,0.29c0.31,0.04,0.62,0.07,0.92,0.12c1.2,0.16,2.38,0.4,3.55,0.71c0.23,0.06,0.45,0.13,0.66,0.19
		c0.67,0.2,1.33,0.47,1.95,0.79c0.47,0.23,0.9,0.55,1.25,0.95c0.19,0.21,0.31,0.48,0.35,0.76
		C192.81,98.91,192.81,98.96,192.81,99.01z"/>
	<path id="Path-147" class="st22" d="M192.45,98.11l-16.63,4.75c-1.24-0.08-2.41-0.2-3.5-0.37l18.88-5.33
		C191.67,97.4,192.09,97.72,192.45,98.11z"/>
	<path id="Path-148" class="st22" d="M185.03,95.47l-18.67,5.28c-0.13-0.07-0.25-0.15-0.36-0.22l18.11-5.17
		C184.43,95.39,184.73,95.43,185.03,95.47z"/>
	<path id="Path-149" class="st22" d="M189.24,96.38l-19.62,5.58c-0.25-0.06-0.49-0.13-0.73-0.2l19.68-5.58
		C188.81,96.24,189.03,96.31,189.24,96.38z"/>
	<path id="Path-150" class="st20" d="M190.02,99.01c0,0.05,0,0.1-0.01,0.15c-0.27,1.67-5.15,3.01-11.12,3.01
		c-5.97,0-10.85-1.34-11.12-3.01c-0.01-0.05-0.01-0.1-0.01-0.14c0-1.74,5-3.16,11.14-3.16S190.02,97.27,190.02,99.01z"/>
	<path id="Path-151" class="st19" d="M190.01,99.16c-0.27,1.67-5.16,3.01-11.12,3.01h-0.4c-1.26-0.01-2.52-0.09-3.78-0.23
		c-1.07-0.12-2.14-0.31-3.18-0.56c-0.24-0.06-0.47-0.12-0.69-0.19c-0.83-0.22-1.61-0.57-2.33-1.04c-0.12-0.09-0.23-0.18-0.34-0.29
		c-0.21-0.19-0.35-0.44-0.41-0.71c0.27-1.67,5.15-3.01,11.12-3.01c0.76,0,1.49,0.02,2.21,0.06c0.36,0.02,0.72,0.05,1.07,0.08
		c1.3,0.11,2.6,0.31,3.87,0.6c0.24,0.06,0.48,0.12,0.7,0.18c0.75,0.2,1.47,0.48,2.15,0.85c0.44,0.22,0.81,0.57,1.05,1
		C189.97,99,189.99,99.08,190.01,99.16z"/>
	<path id="Path-152" class="st23" d="M189.94,98.92l-11.45,3.25c-1.26-0.01-2.52-0.09-3.78-0.23l14.18-4.02
		C189.33,98.13,189.7,98.48,189.94,98.92z"/>
	<path id="Path-153" class="st23" d="M182.16,96.29l-13.66,3.87c-0.12-0.09-0.23-0.18-0.34-0.28l12.92-3.66
		C181.45,96.23,181.81,96.26,182.16,96.29z"/>
	<path id="Path-154" class="st23" d="M186.73,97.07l-15.21,4.31c-0.24-0.06-0.47-0.12-0.69-0.19l15.2-4.31
		C186.27,96.94,186.51,97,186.73,97.07z"/>
	<path id="Path-155" class="st20" d="M180.43,100.8v0.52h-2.35v-0.5c-1.43-0.01-2.87-0.12-4.28-0.33l1.27-0.81
		c1.27,0.2,2.56,0.3,3.85,0.3c1.12,0,1.52-0.07,1.52-0.18c0-0.42-6.45-0.08-6.45-1.31c0-0.53,1.37-0.98,4.1-1.09v-0.52h2.35v0.5
		c1.13,0.02,2.26,0.11,3.38,0.27l-1.18,0.81c-1.08-0.16-2.16-0.24-3.25-0.25c-1.15,0-1.52,0.09-1.52,0.21c0,0.4,6.45,0.07,6.45,1.29
		C184.31,100.23,183.01,100.68,180.43,100.8z"/>
	<path id="Path-156" class="st21" d="M180.36,100.63v0.52h-2.35v-0.5c-1.43-0.01-2.87-0.12-4.28-0.33l1.27-0.81
		c1.27,0.2,2.56,0.3,3.85,0.3c1.12,0,1.52-0.07,1.52-0.18c0-0.42-6.45-0.08-6.45-1.31c0-0.53,1.37-0.98,4.1-1.09v-0.52h2.35v0.5
		c1.13,0.02,2.26,0.11,3.38,0.27l-1.18,0.81c-1.08-0.16-2.16-0.24-3.25-0.25c-1.15,0-1.52,0.1-1.52,0.21c0,0.4,6.45,0.07,6.45,1.29
		C184.24,100.06,182.94,100.5,180.36,100.63z"/>
	<path id="Path-157" class="st19" d="M192.69,97.19c0,0.01,0,0.03,0,0.04c-0.03,0.54-0.3,1.05-0.73,1.38
		c-0.12,0.11-0.25,0.22-0.39,0.31c-0.46,0.32-0.95,0.59-1.46,0.8c-0.12,0.05-0.25,0.11-0.39,0.16c-0.45,0.18-0.94,0.34-1.46,0.49
		c-0.13,0.04-0.26,0.07-0.39,0.11c-0.46,0.12-0.95,0.24-1.46,0.34c-0.13,0.03-0.26,0.05-0.39,0.08c-0.47,0.09-0.96,0.17-1.46,0.24
		l-0.39,0.05c-0.47,0.06-0.96,0.12-1.46,0.16l-0.39,0.03c-0.48,0.04-0.97,0.07-1.46,0.09l-0.39,0.02c-0.48,0.02-0.97,0.03-1.46,0.03
		h-0.39c-0.49,0-0.98-0.01-1.46-0.03l-0.39-0.01c-0.37-0.02-0.73-0.04-1.08-0.06l-0.38-0.03l-0.39-0.03
		c-0.5-0.04-0.99-0.1-1.46-0.16c-0.13-0.02-0.26-0.03-0.39-0.05c-0.3-0.04-0.6-0.09-0.89-0.13c-0.19-0.03-0.38-0.06-0.57-0.1
		c-0.13-0.02-0.26-0.05-0.39-0.07c-0.51-0.1-1-0.21-1.47-0.33l-0.27-0.07l-0.11-0.03c-0.21-0.06-0.41-0.12-0.61-0.18
		c-0.3-0.1-0.58-0.2-0.85-0.3c-0.13-0.05-0.26-0.1-0.39-0.15c-0.45-0.18-0.89-0.4-1.3-0.66c-0.06-0.04-0.11-0.07-0.17-0.11
		c-0.05-0.04-0.13-0.09-0.19-0.14c-0.06-0.05-0.13-0.1-0.19-0.15c-0.5-0.34-0.81-0.89-0.86-1.49c0-0.04,0-0.07,0-0.11v-2.97h1.25
		h1.46h2.24h1.46h0.39h1.46h0.39h1.46h0.39h1.46h0.39h1.46h0.39h1.46h0.39h1.46h0.39h1.46h0.39h1.46h0.39h1.46h0.48l1.36-0.04h0.39
		h1.46h1.11L192.69,97.19L192.69,97.19L192.69,97.19z"/>
	<path id="Path-158" class="st20" d="M166.07,94.14V99c-0.07-0.05-0.13-0.09-0.19-0.14c-0.06-0.05-0.13-0.1-0.19-0.15v-4.57H166.07z
		"/>
	<path id="Path-159" class="st20" d="M167.92,94.14v5.78c-0.13-0.05-0.26-0.1-0.39-0.15v-5.63H167.92z"/>
	<path id="Path-160" class="st20" d="M169.76,94.14v6.37l-0.27-0.07l-0.12-0.04v-6.26H169.76z"/>
	<path id="Path-161" class="st20" d="M171.61,94.14v6.78c-0.13-0.02-0.26-0.05-0.39-0.08v-6.7H171.61z"/>
	<path id="Path-162" class="st20" d="M173.46,94.13v7.07c-0.13-0.02-0.26-0.03-0.39-0.05v-7.01H173.46z"/>
	<path id="Path-163" class="st20" d="M175.31,94.13v7.26l-0.39-0.03v-7.22H175.31z"/>
	<path id="Path-164" class="st20" d="M177.16,94.13v7.36l-0.39-0.01v-7.35H177.16z"/>
	<path id="Path-165" class="st20" d="M179.01,94.13v7.39h-0.39v-7.39H179.01z"/>
	<path id="Path-166" class="st20" d="M180.86,94.12v7.35l-0.39,0.02v-7.36H180.86z"/>
	<path id="Path-167" class="st20" d="M182.71,94.12v7.22l-0.39,0.03v-7.26H182.71z"/>
	<path id="Path-168" class="st20" d="M184.56,94.12v7.01l-0.39,0.05v-7.07H184.56z"/>
	<path id="Path-169" class="st20" d="M186.41,94.11v6.7c-0.13,0.03-0.26,0.05-0.39,0.08v-6.78H186.41z"/>
	<path id="Path-170" class="st20" d="M188.26,94.11v6.25c-0.13,0.04-0.26,0.07-0.39,0.11v-6.36H188.26z"/>
	<path id="Path-171" class="st20" d="M190.11,94.11v5.61c-0.13,0.05-0.25,0.11-0.39,0.16v-5.76H190.11z"/>
	<path id="Path-172" class="st20" d="M191.96,94.11v4.5c-0.12,0.11-0.25,0.22-0.39,0.31v-4.81H191.96z"/>
	<path id="Path-173" class="st21" d="M192.69,94.14c0,2.18-6.24,3.95-13.93,3.95c-1.05,0-2.08-0.03-3.06-0.1
		c-1.24-0.08-2.41-0.2-3.5-0.37c-0.97-0.14-1.88-0.33-2.7-0.53c-0.25-0.06-0.49-0.13-0.72-0.2c-0.88-0.24-1.73-0.58-2.54-1.02
		c-0.13-0.07-0.25-0.15-0.36-0.22c-0.58-0.3-0.97-0.86-1.05-1.51c0-0.05,0-0.1,0.01-0.15c0.27-2.11,6.4-3.8,13.92-3.8
		c1.75,0,3.5,0.09,5.23,0.29c0.31,0.04,0.62,0.07,0.92,0.12c1.2,0.16,2.38,0.4,3.55,0.71c0.23,0.06,0.45,0.13,0.66,0.2
		c0.67,0.2,1.33,0.47,1.95,0.79c0.47,0.23,0.9,0.55,1.25,0.95c0.19,0.21,0.31,0.47,0.35,0.75
		C192.68,94.05,192.69,94.09,192.69,94.14z"/>
	<path id="Path-174" class="st22" d="M192.32,93.24l-16.63,4.75c-1.23-0.08-2.41-0.2-3.5-0.37l18.88-5.33
		C191.54,92.53,191.97,92.85,192.32,93.24z"/>
	<path id="Path-175" class="st22" d="M184.9,90.6l-18.67,5.28c-0.13-0.07-0.25-0.15-0.36-0.22l18.11-5.17
		C184.3,90.52,184.6,90.56,184.9,90.6z"/>
	<path id="Path-176" class="st22" d="M189.12,91.5l-19.62,5.59c-0.25-0.06-0.49-0.13-0.73-0.2l19.68-5.58
		C188.68,91.37,188.9,91.44,189.12,91.5z"/>
	<path id="Path-177" class="st20" d="M189.89,94.14c0,0.05,0,0.1-0.01,0.15c-0.27,1.67-5.16,3.01-11.12,3.01
		c-5.96,0-10.85-1.34-11.12-3.01c-0.01-0.05-0.01-0.1-0.01-0.15c0-1.74,5-3.15,11.14-3.15S189.89,92.4,189.89,94.14z"/>
	<path id="Path-178" class="st19" d="M189.88,94.29c-0.27,1.67-5.16,3.01-11.12,3.01h-0.4c-1.26-0.01-2.52-0.09-3.78-0.23
		c-1.07-0.12-2.14-0.3-3.18-0.56c-0.24-0.06-0.47-0.12-0.69-0.19c-0.83-0.22-1.61-0.57-2.33-1.04c-0.12-0.09-0.23-0.18-0.34-0.29
		c-0.21-0.19-0.35-0.44-0.41-0.71c0.27-1.67,5.16-3.01,11.12-3.01c0.76,0,1.49,0.02,2.21,0.06c0.36,0.02,0.72,0.05,1.07,0.08
		c1.3,0.11,2.6,0.31,3.87,0.6c0.24,0.06,0.48,0.12,0.7,0.18c0.75,0.2,1.47,0.48,2.15,0.85c0.45,0.22,0.81,0.57,1.05,1
		C189.84,94.13,189.86,94.21,189.88,94.29z"/>
	<path id="Path-179" class="st23" d="M189.81,94.05l-11.45,3.25c-1.26-0.01-2.52-0.09-3.78-0.23l14.18-4.02
		C189.21,93.27,189.57,93.62,189.81,94.05z"/>
	<path id="Path-180" class="st23" d="M182.04,91.42l-13.66,3.87c-0.12-0.09-0.23-0.18-0.34-0.28l12.92-3.66
		C181.32,91.36,181.68,91.39,182.04,91.42z"/>
	<path id="Path-181" class="st23" d="M186.6,92.2l-15.21,4.31c-0.24-0.06-0.47-0.12-0.69-0.19l15.2-4.31
		C186.15,92.07,186.38,92.13,186.6,92.2z"/>
	<path id="Path-182" class="st20" d="M180.3,95.93v0.52h-2.35v-0.5c-1.43-0.01-2.87-0.12-4.28-0.33l1.27-0.81
		c1.27,0.2,2.56,0.3,3.85,0.3c1.12,0,1.52-0.07,1.52-0.18c0-0.42-6.45-0.08-6.45-1.31c0-0.53,1.37-0.98,4.1-1.09v-0.52h2.35v0.5
		c1.13,0.02,2.26,0.11,3.38,0.27l-1.18,0.81c-1.08-0.16-2.16-0.24-3.25-0.25c-1.15,0-1.52,0.1-1.52,0.21c0,0.4,6.45,0.07,6.45,1.29
		C184.19,95.36,182.89,95.81,180.3,95.93z"/>
	<path id="Path-183" class="st21" d="M180.23,95.76v0.52h-2.35v-0.5c-1.43-0.01-2.87-0.12-4.28-0.33l1.27-0.81
		c1.27,0.2,2.56,0.3,3.85,0.3c1.12,0,1.52-0.07,1.52-0.18c0-0.42-6.45-0.08-6.45-1.31c0-0.53,1.37-0.98,4.1-1.09v-0.52h2.35v0.5
		c1.13,0.02,2.26,0.11,3.38,0.27l-1.18,0.81c-1.08-0.16-2.16-0.24-3.25-0.25c-1.15,0-1.52,0.1-1.52,0.21c0,0.4,6.45,0.07,6.45,1.29
		C184.12,95.19,182.82,95.63,180.23,95.76z"/>
	<path id="Path-184" class="st19" d="M193.72,92.83v0.04c-0.04,0.54-0.3,1.05-0.73,1.38c-0.12,0.11-0.25,0.22-0.39,0.31
		c-0.46,0.32-0.95,0.59-1.46,0.8c-0.13,0.05-0.25,0.11-0.39,0.16c-0.45,0.18-0.94,0.34-1.46,0.49c-0.13,0.04-0.26,0.07-0.39,0.11
		c-0.46,0.12-0.95,0.24-1.46,0.34c-0.13,0.03-0.26,0.05-0.39,0.07c-0.47,0.09-0.95,0.17-1.46,0.24c-0.13,0.02-0.26,0.04-0.39,0.05
		c-0.47,0.06-0.96,0.12-1.46,0.16l-0.39,0.03c-0.48,0.04-0.97,0.07-1.46,0.09l-0.39,0.02c-0.48,0.02-0.97,0.03-1.46,0.03h-0.39
		c-0.49,0-0.98-0.01-1.46-0.03l-0.39-0.01c-0.37-0.02-0.73-0.04-1.08-0.06c-0.13-0.01-0.25-0.02-0.38-0.03L175.96,97
		c-0.5-0.04-0.99-0.09-1.47-0.15c-0.13-0.02-0.26-0.03-0.39-0.05c-0.3-0.04-0.6-0.09-0.89-0.13c-0.19-0.03-0.38-0.07-0.57-0.1
		l-0.39-0.07c-0.51-0.1-1-0.21-1.46-0.33l-0.27-0.08l-0.12-0.03c-0.21-0.06-0.41-0.12-0.61-0.18c-0.3-0.09-0.58-0.19-0.85-0.3
		c-0.13-0.05-0.26-0.1-0.39-0.15c-0.45-0.18-0.89-0.4-1.3-0.66c-0.06-0.04-0.11-0.07-0.17-0.11c-0.05-0.04-0.13-0.09-0.19-0.14
		c-0.06-0.05-0.13-0.1-0.19-0.15c-0.5-0.34-0.81-0.89-0.86-1.49c0-0.04,0-0.07,0.01-0.11v-2.97h1.24h1.46h0.39h1.14h0.71h1.46h0.39
		h1.46h0.39h1.46h0.39h1.46h0.39h1.46h0.39h1.46h0.39h1.46h0.39h1.46h0.39h1.46h0.39h1.46h0.48h1.37h0.39h1.46h1.11l0,3.08l0,0
		L193.72,92.83z"/>
	<path id="Path-185" class="st20" d="M167.1,89.79v4.86c-0.07-0.04-0.13-0.09-0.19-0.14c-0.07-0.05-0.13-0.1-0.19-0.15v-4.57H167.1z
		"/>
	<path id="Path-186" class="st20" d="M168.95,89.79v5.78c-0.13-0.05-0.26-0.1-0.39-0.15v-5.63H168.95z"/>
	<path id="Path-187" class="st20" d="M170.8,89.78v6.37l-0.27-0.07l-0.11-0.04v-6.26H170.8z"/>
	<path id="Path-188" class="st20" d="M172.65,89.78v6.78l-0.39-0.08v-6.7H172.65z"/>
	<path id="Path-189" class="st20" d="M174.5,89.78v7.07c-0.13-0.02-0.26-0.03-0.39-0.05v-7.01H174.5z"/>
	<path id="Path-190" class="st20" d="M176.35,89.77v7.26L175.96,97v-7.22H176.35z"/>
	<path id="Path-191" class="st20" d="M178.2,89.77v7.36l-0.39-0.01v-7.35H178.2z"/>
	<path id="Path-192" class="st20" d="M180.05,89.77v7.39h-0.39v-7.39H180.05z"/>
	<path id="Path-193" class="st20" d="M181.9,89.77v7.35l-0.39,0.02v-7.36H181.9z"/>
	<path id="Path-194" class="st20" d="M183.75,89.76v7.22l-0.39,0.03v-7.26H183.75z"/>
	<path id="Path-195" class="st20" d="M185.6,89.76v7.01l-0.39,0.05v-7.07H185.6z"/>
	<path id="Path-196" class="st20" d="M187.45,89.76v6.7c-0.13,0.03-0.26,0.05-0.39,0.08v-6.78H187.45z"/>
	<path id="Path-197" class="st20" d="M189.29,89.76v6.25c-0.13,0.04-0.26,0.07-0.39,0.11v-6.36H189.29z"/>
	<path id="Path-198" class="st20" d="M191.14,89.75v5.61c-0.13,0.05-0.25,0.11-0.39,0.16v-5.76H191.14z"/>
	<path id="Path-199" class="st20" d="M192.99,89.75v4.5c-0.12,0.11-0.25,0.22-0.39,0.31v-4.81H192.99z"/>
	<path id="Path-200" class="st21" d="M193.72,89.79c0,2.18-6.24,3.95-13.93,3.95c-1.05,0-2.08-0.03-3.06-0.1
		c-1.24-0.08-2.41-0.2-3.5-0.37c-0.97-0.14-1.88-0.33-2.7-0.53c-0.25-0.07-0.49-0.13-0.72-0.2c-0.88-0.24-1.73-0.58-2.54-1.02
		c-0.13-0.07-0.25-0.15-0.36-0.22c-0.58-0.3-0.97-0.86-1.05-1.51c0-0.05,0-0.1,0.01-0.15c0.27-2.11,6.4-3.8,13.92-3.8
		c1.75,0,3.5,0.09,5.23,0.29c0.31,0.04,0.62,0.07,0.92,0.12c1.2,0.16,2.38,0.4,3.55,0.71c0.23,0.06,0.45,0.13,0.66,0.2
		c0.67,0.2,1.33,0.47,1.95,0.79c0.47,0.23,0.9,0.55,1.25,0.95c0.19,0.21,0.31,0.48,0.35,0.76
		C193.72,89.69,193.72,89.74,193.72,89.79z"/>
	<path id="Path-201" class="st22" d="M193.36,88.88l-16.63,4.75c-1.23-0.08-2.41-0.2-3.5-0.37l18.88-5.33
		C192.58,88.17,193,88.49,193.36,88.88z"/>
	<path id="Path-202" class="st22" d="M185.94,86.24l-18.67,5.28c-0.13-0.07-0.25-0.15-0.36-0.22l18.11-5.17
		C185.33,86.16,185.64,86.2,185.94,86.24z"/>
	<path id="Path-203" class="st22" d="M190.15,87.15l-19.62,5.58c-0.25-0.06-0.49-0.13-0.73-0.2l19.68-5.59
		C189.72,87.01,189.94,87.08,190.15,87.15z"/>
	<path id="Path-204" class="st20" d="M190.92,89.79c0,0.05,0,0.1-0.01,0.15c-0.27,1.67-5.16,3.01-11.12,3.01
		c-5.96,0-10.86-1.34-11.12-3.01c-0.01-0.05-0.01-0.1-0.01-0.15c0-1.74,4.99-3.15,11.13-3.15
		C185.93,86.63,190.92,88.05,190.92,89.79z"/>
	<path id="Path-205" class="st19" d="M190.91,89.93c-0.27,1.67-5.16,3.01-11.12,3.01c-0.13,0-0.27,0-0.4,0
		c-1.26-0.01-2.52-0.09-3.78-0.23c-1.07-0.12-2.14-0.3-3.18-0.56c-0.24-0.06-0.47-0.12-0.69-0.19c-0.83-0.22-1.61-0.57-2.33-1.04
		c-0.12-0.09-0.23-0.18-0.34-0.29c-0.21-0.19-0.35-0.44-0.41-0.71c0.27-1.67,5.15-3.01,11.12-3.01c0.76,0,1.49,0.02,2.21,0.06
		c0.36,0.02,0.72,0.05,1.07,0.08c1.3,0.11,2.6,0.31,3.87,0.6c0.24,0.06,0.48,0.12,0.7,0.18c0.75,0.2,1.47,0.48,2.15,0.85
		c0.44,0.22,0.81,0.57,1.05,1C190.88,89.77,190.9,89.85,190.91,89.93z"/>
	<path id="Path-206" class="st23" d="M190.84,89.69l-11.45,3.25c-1.26-0.01-2.52-0.09-3.78-0.23l14.18-4.02
		C190.24,88.91,190.61,89.26,190.84,89.69z"/>
	<path id="Path-207" class="st23" d="M183.07,87.06l-13.66,3.87c-0.12-0.09-0.23-0.18-0.34-0.28L182,86.98
		C182.36,87,182.72,87.03,183.07,87.06z"/>
	<path id="Path-208" class="st23" d="M187.64,87.84l-15.21,4.31c-0.24-0.06-0.47-0.12-0.69-0.19l15.2-4.31
		C187.18,87.72,187.42,87.78,187.64,87.84z"/>
	<path id="Path-209" class="st20" d="M181.34,91.58v0.52h-2.35v-0.5c-1.43-0.01-2.87-0.12-4.28-0.33l1.27-0.81
		c1.27,0.2,2.56,0.3,3.85,0.3c1.12,0,1.52-0.07,1.52-0.18c0-0.42-6.45-0.08-6.45-1.31c0-0.53,1.37-0.98,4.1-1.09v-0.52h2.35v0.5
		c1.13,0.02,2.26,0.11,3.38,0.27l-1.18,0.81c-1.08-0.16-2.16-0.24-3.25-0.25c-1.15,0-1.52,0.1-1.52,0.21c0,0.4,6.45,0.07,6.45,1.29
		C185.22,91.01,183.92,91.45,181.34,91.58z"/>
	<path id="Path-210" class="st21" d="M181.27,91.4v0.52h-2.35v-0.5c-1.43-0.01-2.87-0.12-4.28-0.33l1.27-0.81
		c1.27,0.2,2.56,0.3,3.85,0.3c1.12,0,1.52-0.07,1.52-0.18c0-0.42-6.45-0.08-6.45-1.31c0-0.53,1.37-0.98,4.1-1.09v-0.52h2.35v0.51
		c1.13,0.02,2.26,0.11,3.38,0.27l-1.18,0.81c-1.08-0.16-2.16-0.24-3.25-0.25c-1.15,0-1.52,0.09-1.52,0.21c0,0.4,6.45,0.07,6.45,1.28
		C185.15,90.83,183.85,91.27,181.27,91.4z"/>
	<path id="Path-211" class="st19" d="M191.6,87.98c0,0.01,0,0.03,0,0.04c-0.04,0.54-0.3,1.04-0.73,1.38
		c-0.12,0.11-0.25,0.22-0.39,0.31c-0.46,0.32-0.95,0.59-1.46,0.8c-0.13,0.05-0.25,0.11-0.39,0.16c-0.45,0.18-0.94,0.34-1.46,0.49
		c-0.13,0.04-0.26,0.07-0.39,0.11c-0.46,0.12-0.95,0.24-1.46,0.34c-0.13,0.03-0.26,0.05-0.39,0.07c-0.47,0.09-0.96,0.17-1.46,0.24
		c-0.13,0.02-0.26,0.04-0.39,0.05c-0.47,0.06-0.96,0.12-1.46,0.16l-0.39,0.03c-0.48,0.04-0.97,0.07-1.46,0.09l-0.39,0.02
		c-0.48,0.02-0.97,0.03-1.46,0.03h-0.39c-0.49,0-0.98-0.01-1.46-0.03l-0.39-0.01c-0.37-0.02-0.73-0.04-1.08-0.06l-0.38-0.03
		l-0.39-0.03c-0.5-0.04-0.99-0.1-1.46-0.16c-0.13-0.02-0.26-0.03-0.39-0.05c-0.3-0.04-0.6-0.09-0.89-0.13
		c-0.19-0.03-0.38-0.06-0.57-0.1c-0.13-0.02-0.26-0.05-0.39-0.07c-0.51-0.1-1-0.21-1.46-0.33l-0.28-0.07l-0.11-0.03
		c-0.21-0.06-0.41-0.12-0.61-0.18c-0.3-0.09-0.58-0.19-0.85-0.3c-0.13-0.05-0.26-0.1-0.39-0.15c-0.45-0.18-0.89-0.4-1.3-0.66
		c-0.06-0.04-0.11-0.07-0.17-0.11c-0.05-0.04-0.13-0.09-0.19-0.14c-0.06-0.05-0.13-0.1-0.19-0.15c-0.5-0.34-0.81-0.89-0.86-1.49
		c0-0.04,0-0.07,0.01-0.11v-2.97h1.24h1.46h0.39h1.14h0.71h1.46h0.39l1.46-0.01h0.39h1.46h0.39h1.46h0.39h1.46h0.39h1.46h0.39h1.46
		h0.39h1.46h0.39h1.46h0.39h1.46h0.48l1.36-0.03h0.39h1.46h1.11L191.6,87.98L191.6,87.98L191.6,87.98z"/>
	<path id="Path-212" class="st20" d="M164.98,84.94v4.86c-0.07-0.04-0.13-0.09-0.19-0.14c-0.06-0.05-0.13-0.1-0.19-0.15v-4.57
		H164.98z"/>
	<path id="Path-213" class="st20" d="M166.83,84.94v5.78c-0.13-0.05-0.26-0.1-0.39-0.15v-5.63H166.83z"/>
	<path id="Path-214" class="st20" d="M168.68,84.93v6.37l-0.27-0.07l-0.12-0.04v-6.26H168.68z"/>
	<path id="Path-215" class="st20" d="M170.53,84.93v6.78l-0.39-0.08v-6.7H170.53z"/>
	<path id="Path-216" class="st20" d="M172.38,84.93v7.07c-0.13-0.02-0.26-0.03-0.39-0.05v-7.01H172.38z"/>
	<path id="Path-217" class="st20" d="M174.22,84.92v7.26l-0.39-0.03v-7.22H174.22z"/>
	<path id="Path-218" class="st20" d="M176.07,84.92v7.36l-0.39-0.01v-7.35H176.07z"/>
	<path id="Path-219" class="st20" d="M177.92,84.92v7.39h-0.39v-7.39H177.92z"/>
	<path id="Path-220" class="st20" d="M179.77,84.92v7.35l-0.39,0.02v-7.36H179.77z"/>
	<path id="Path-221" class="st20" d="M181.62,84.91v7.22l-0.39,0.03v-7.26H181.62z"/>
	<path id="Path-222" class="st20" d="M183.47,84.91v7.01c-0.13,0.02-0.26,0.04-0.39,0.05v-7.07H183.47z"/>
	<path id="Path-223" class="st20" d="M185.32,84.91v6.7c-0.13,0.03-0.26,0.05-0.39,0.08v-6.78H185.32z"/>
	<path id="Path-224" class="st20" d="M187.17,84.91v6.25c-0.13,0.04-0.26,0.07-0.39,0.11v-6.36H187.17z"/>
	<path id="Path-225" class="st20" d="M189.02,84.9v5.61c-0.12,0.05-0.25,0.11-0.39,0.16V84.9H189.02z"/>
	<path id="Path-226" class="st20" d="M190.87,84.9v4.5c-0.12,0.11-0.25,0.21-0.39,0.31V84.9H190.87z"/>
	<path id="Path-227" class="st21" d="M191.6,84.94c0,2.18-6.24,3.95-13.93,3.95c-1.05,0-2.08-0.03-3.06-0.1
		c-1.24-0.08-2.41-0.2-3.5-0.37c-0.97-0.14-1.88-0.33-2.7-0.53c-0.25-0.06-0.49-0.13-0.72-0.2c-0.88-0.24-1.73-0.58-2.54-1.02
		c-0.13-0.07-0.25-0.15-0.36-0.22c-0.58-0.3-0.97-0.86-1.05-1.51c0-0.05,0-0.1,0.01-0.15c0.27-2.11,6.4-3.8,13.92-3.8
		c1.75,0,3.5,0.09,5.23,0.29c0.31,0.04,0.62,0.07,0.92,0.12c1.2,0.16,2.38,0.4,3.55,0.71c0.23,0.06,0.45,0.13,0.66,0.2
		c0.67,0.2,1.33,0.47,1.95,0.79c0.47,0.23,0.9,0.55,1.25,0.95c0.19,0.21,0.31,0.47,0.35,0.75C191.59,84.84,191.6,84.89,191.6,84.94z
		"/>
	<path id="Path-228" class="st22" d="M191.23,84.03l-16.63,4.75c-1.23-0.08-2.41-0.2-3.5-0.37l18.88-5.33
		C190.45,83.32,190.88,83.64,191.23,84.03z"/>
	<path id="Path-229" class="st22" d="M183.82,81.39l-18.67,5.28c-0.13-0.07-0.25-0.15-0.36-0.22l18.11-5.17
		C183.21,81.31,183.52,81.35,183.82,81.39z"/>
	<path id="Path-230" class="st22" d="M188.03,82.3l-19.62,5.59c-0.25-0.06-0.49-0.13-0.73-0.2l19.68-5.58
		C187.59,82.17,187.81,82.23,188.03,82.3z"/>
	<path id="Path-231" class="st20" d="M188.8,84.94c0,0.05,0,0.1-0.01,0.15c-0.27,1.67-5.16,3.01-11.12,3.01
		c-5.96,0-10.86-1.34-11.12-3.01c-0.01-0.05-0.01-0.1-0.01-0.15c0-1.74,4.99-3.15,11.13-3.15C183.81,81.78,188.8,83.2,188.8,84.94z"
		/>
	<path id="Path-232" class="st19" d="M188.79,85.08c-0.27,1.67-5.16,3.01-11.12,3.01h-0.4c-1.26-0.01-2.52-0.09-3.78-0.23
		c-1.07-0.12-2.14-0.3-3.18-0.56c-0.24-0.06-0.47-0.12-0.69-0.19c-0.83-0.22-1.61-0.57-2.33-1.04c-0.12-0.09-0.23-0.18-0.34-0.29
		c-0.21-0.19-0.35-0.44-0.41-0.71c0.27-1.67,5.16-3.01,11.12-3.01c0.76,0,1.49,0.02,2.21,0.06c0.36,0.02,0.72,0.05,1.07,0.08
		c1.3,0.11,2.6,0.31,3.87,0.6c0.24,0.06,0.48,0.12,0.7,0.18c0.75,0.2,1.47,0.48,2.15,0.85c0.44,0.22,0.81,0.57,1.05,1
		C188.75,84.92,188.78,85,188.79,85.08z"/>
	<path id="Path-233" class="st23" d="M188.72,84.84l-11.45,3.25c-1.26-0.01-2.52-0.09-3.78-0.23l14.18-4.02
		C188.12,84.06,188.48,84.41,188.72,84.84z"/>
	<path id="Path-234" class="st23" d="M180.95,82.21l-13.66,3.87c-0.12-0.09-0.23-0.18-0.34-0.28l12.92-3.66
		C180.24,82.15,180.6,82.18,180.95,82.21z"/>
	<path id="Path-235" class="st23" d="M185.52,82.99L170.3,87.3c-0.24-0.06-0.47-0.12-0.69-0.19l15.2-4.31
		C185.06,82.87,185.29,82.93,185.52,82.99z"/>
	<path id="Path-236" class="st20" d="M179.21,86.73v0.53h-2.35v-0.5c-1.43-0.01-2.87-0.12-4.28-0.33l1.27-0.81
		c1.27,0.2,2.56,0.3,3.85,0.3c1.12,0,1.52-0.07,1.52-0.18c0-0.42-6.45-0.08-6.45-1.31c0-0.53,1.37-0.98,4.1-1.09v-0.52h2.35v0.5
		c1.13,0.02,2.26,0.11,3.38,0.27l-1.18,0.81c-1.08-0.16-2.16-0.24-3.25-0.25c-1.15,0-1.52,0.1-1.52,0.21c0,0.4,6.45,0.07,6.45,1.29
		C183.1,86.16,181.8,86.6,179.21,86.73z"/>
	<path id="Path-237" class="st21" d="M179.15,86.55v0.52h-2.35v-0.5c-1.43-0.01-2.86-0.12-4.28-0.33l1.27-0.81
		c1.27,0.2,2.56,0.3,3.85,0.3c1.12,0,1.52-0.07,1.52-0.18c0-0.42-6.45-0.08-6.45-1.31c0-0.53,1.37-0.98,4.1-1.09v-0.51h2.35v0.51
		c1.13,0.02,2.26,0.11,3.38,0.27l-1.18,0.81c-1.08-0.16-2.16-0.24-3.25-0.24c-1.15,0-1.52,0.09-1.52,0.21c0,0.4,6.45,0.07,6.45,1.28
		C183.03,85.98,181.73,86.43,179.15,86.55z"/>
	<path id="Path-238" class="st19" d="M193.21,83.09v0.04c-0.04,0.54-0.3,1.05-0.73,1.38c-0.12,0.11-0.25,0.22-0.39,0.31
		c-0.46,0.32-0.95,0.59-1.46,0.8c-0.12,0.05-0.25,0.11-0.39,0.16c-0.45,0.18-0.94,0.34-1.46,0.49c-0.13,0.04-0.26,0.07-0.39,0.11
		c-0.46,0.12-0.95,0.24-1.46,0.34c-0.13,0.03-0.26,0.05-0.39,0.08c-0.47,0.09-0.95,0.17-1.46,0.24l-0.39,0.05
		c-0.47,0.06-0.96,0.12-1.46,0.16l-0.39,0.03c-0.48,0.04-0.97,0.07-1.46,0.09l-0.39,0.02c-0.48,0.02-0.97,0.03-1.46,0.03h-0.39
		c-0.49,0-0.98-0.01-1.46-0.03l-0.39-0.01c-0.36-0.02-0.73-0.04-1.08-0.06l-0.38-0.03l-0.39-0.03c-0.5-0.04-0.99-0.1-1.46-0.16
		c-0.13-0.02-0.26-0.03-0.39-0.05c-0.3-0.04-0.6-0.09-0.89-0.13c-0.19-0.03-0.38-0.06-0.57-0.1c-0.13-0.02-0.27-0.05-0.39-0.07
		c-0.51-0.1-1-0.21-1.46-0.33l-0.27-0.07l-0.11-0.03c-0.21-0.06-0.41-0.12-0.61-0.18c-0.3-0.1-0.58-0.2-0.85-0.3
		c-0.13-0.05-0.26-0.1-0.39-0.15c-0.45-0.18-0.89-0.4-1.3-0.66c-0.06-0.04-0.11-0.07-0.17-0.11c-0.05-0.04-0.13-0.09-0.19-0.14
		s-0.13-0.1-0.19-0.15c-0.5-0.34-0.81-0.89-0.86-1.49c0-0.04,0-0.07,0-0.11v-2.97h1.25h1.46h2.24h1.46h0.39l1.46-0.01h0.39h1.46
		h0.39h1.46h0.39h1.46h0.39H181h0.39h1.46h0.39h1.46h0.39h1.46h0.39h1.46h0.48l1.36-0.03h0.39h1.46h1.11L193.21,83.09L193.21,83.09
		L193.21,83.09z"/>
	<path id="Path-239" class="st20" d="M166.58,80.05v4.86c-0.07-0.04-0.13-0.09-0.19-0.14c-0.06-0.05-0.13-0.1-0.19-0.15v-4.57
		H166.58z"/>
	<path id="Path-240" class="st20" d="M168.43,80.05v5.78c-0.13-0.05-0.26-0.1-0.39-0.15v-5.63H168.43z"/>
	<path id="Path-241" class="st20" d="M170.28,80.04v6.37l-0.27-0.07l-0.11-0.04v-6.26H170.28z"/>
	<path id="Path-242" class="st20" d="M172.13,80.04v6.78l-0.39-0.08v-6.7H172.13z"/>
	<path id="Path-243" class="st20" d="M173.98,80.04v7.07c-0.13-0.02-0.26-0.03-0.39-0.05v-7.01H173.98z"/>
	<path id="Path-244" class="st20" d="M175.83,80.04v7.26c-0.13-0.01-0.26-0.02-0.39-0.03v-7.22H175.83z"/>
	<path id="Path-245" class="st20" d="M177.68,80.03v7.36l-0.39-0.01v-7.35H177.68z"/>
	<path id="Path-246" class="st20" d="M179.53,80.03v7.39h-0.39v-7.39H179.53z"/>
	<path id="Path-247" class="st20" d="M181.38,80.03v7.35l-0.39,0.02v-7.36H181.38z"/>
	<path id="Path-248" class="st20" d="M183.23,80.02v7.22l-0.39,0.03v-7.26H183.23z"/>
	<path id="Path-249" class="st20" d="M185.08,80.02v7.01l-0.39,0.05v-7.07H185.08z"/>
	<path id="Path-250" class="st20" d="M186.93,80.02v6.7c-0.13,0.03-0.26,0.05-0.39,0.08v-6.78H186.93z"/>
	<path id="Path-251" class="st20" d="M188.78,80.02v6.25c-0.13,0.04-0.26,0.07-0.39,0.11v-6.36H188.78z"/>
	<path id="Path-252" class="st20" d="M190.63,80.01v5.61c-0.13,0.05-0.25,0.11-0.39,0.16v-5.77H190.63z"/>
	<path id="Path-253" class="st20" d="M192.47,80.01v4.5c-0.12,0.11-0.25,0.21-0.39,0.31v-4.81H192.47z"/>
	<path id="Path-254" class="st21" d="M193.2,80.05c0,2.18-6.24,3.95-13.93,3.95c-1.05,0-2.08-0.03-3.06-0.1
		c-1.24-0.08-2.41-0.2-3.5-0.37c-0.98-0.14-1.88-0.33-2.7-0.53c-0.25-0.07-0.49-0.13-0.72-0.2c-0.88-0.24-1.73-0.58-2.54-1.02
		c-0.13-0.07-0.25-0.15-0.36-0.22c-0.58-0.3-0.97-0.86-1.06-1.51c0-0.05,0-0.1,0.01-0.15c0.27-2.11,6.4-3.8,13.92-3.8
		c1.75,0,3.49,0.09,5.23,0.29c0.31,0.04,0.62,0.07,0.92,0.12c1.2,0.16,2.38,0.4,3.55,0.71c0.23,0.06,0.45,0.13,0.66,0.19
		c0.67,0.2,1.33,0.47,1.95,0.79c0.47,0.23,0.9,0.55,1.25,0.95c0.19,0.21,0.31,0.48,0.36,0.76C193.2,79.95,193.2,80,193.2,80.05z"/>
	<path id="Path-255" class="st22" d="M192.84,79.15l-16.63,4.75c-1.23-0.08-2.41-0.2-3.5-0.37l18.88-5.33
		C192.06,78.43,192.48,78.75,192.84,79.15z"/>
	<path id="Path-256" class="st22" d="M185.42,76.5l-18.67,5.28c-0.13-0.07-0.25-0.15-0.36-0.22l18.11-5.17
		C184.82,76.42,185.12,76.46,185.42,76.5z"/>
	<path id="Path-257" class="st22" d="M189.63,77.41L170.01,83c-0.25-0.06-0.49-0.13-0.73-0.2l19.68-5.59
		C189.2,77.28,189.42,77.34,189.63,77.41z"/>
	<path id="Path-258" class="st20" d="M190.41,80.05c0,0.05,0,0.1-0.01,0.14c-0.27,1.67-5.16,3.01-11.12,3.01
		c-5.96,0-10.85-1.34-11.12-3.01c-0.01-0.05-0.01-0.1-0.01-0.14c0-1.74,5-3.16,11.13-3.16C185.41,76.89,190.41,78.31,190.41,80.05z"
		/>
	<path id="Path-259" class="st19" d="M190.4,80.19c-0.27,1.67-5.16,3.01-11.12,3.01h-0.4c-1.26-0.01-2.52-0.09-3.78-0.23
		c-1.07-0.12-2.14-0.31-3.18-0.56c-0.24-0.06-0.47-0.12-0.69-0.19c-0.83-0.22-1.61-0.57-2.33-1.04c-0.12-0.09-0.23-0.18-0.34-0.29
		c-0.21-0.19-0.35-0.44-0.41-0.71c0.27-1.67,5.15-3.01,11.12-3.01c0.76,0,1.49,0.02,2.21,0.06c0.36,0.02,0.72,0.05,1.07,0.08
		c1.3,0.11,2.6,0.31,3.87,0.6c0.24,0.06,0.48,0.12,0.7,0.18c0.75,0.2,1.47,0.48,2.15,0.85c0.44,0.22,0.81,0.57,1.05,1
		C190.36,80.03,190.38,80.11,190.4,80.19z"/>
	<path id="Path-260" class="st23" d="M190.33,79.95l-11.45,3.25c-1.26-0.01-2.52-0.09-3.78-0.23l14.18-4.02
		C189.72,79.17,190.09,79.52,190.33,79.95z"/>
	<path id="Path-261" class="st23" d="M182.56,77.32l-13.66,3.87c-0.12-0.09-0.23-0.18-0.34-0.28l12.92-3.66
		C181.84,77.26,182.2,77.29,182.56,77.32z"/>
	<path id="Path-262" class="st23" d="M187.12,78.1l-15.21,4.31c-0.24-0.06-0.47-0.12-0.69-0.19l15.2-4.31
		C186.66,77.98,186.9,78.04,187.12,78.1z"/>
	<path id="Path-263" class="st20" d="M180.82,81.84v0.52h-2.35v-0.5c-1.43-0.01-2.86-0.12-4.28-0.33l1.27-0.81
		c1.27,0.2,2.56,0.3,3.85,0.3c1.12,0,1.52-0.07,1.52-0.18c0-0.42-6.45-0.08-6.45-1.31c0-0.53,1.37-0.98,4.1-1.09v-0.52h2.35v0.5
		c1.13,0.02,2.26,0.11,3.38,0.27l-1.18,0.81c-1.08-0.16-2.16-0.24-3.25-0.25c-1.15,0-1.52,0.1-1.52,0.21c0,0.4,6.45,0.07,6.45,1.28
		C184.7,81.27,183.4,81.71,180.82,81.84z"/>
	<path id="Path-264" class="st21" d="M180.75,81.66v0.52h-2.35v-0.5c-1.43-0.01-2.87-0.12-4.28-0.33l1.27-0.81
		c1.27,0.2,2.56,0.3,3.85,0.3c1.12,0,1.52-0.07,1.52-0.18c0-0.42-6.45-0.08-6.45-1.31c0-0.53,1.37-0.98,4.1-1.09v-0.52h2.35v0.51
		c1.13,0.02,2.26,0.11,3.38,0.27l-1.18,0.81c-1.08-0.16-2.16-0.24-3.25-0.25c-1.15,0-1.52,0.1-1.52,0.21c0,0.4,6.45,0.07,6.45,1.29
		C184.63,81.09,183.33,81.53,180.75,81.66z"/>
	<path id="Path-265" class="st19" d="M193.4,78.18v0.04c-0.04,0.54-0.3,1.05-0.73,1.38c-0.12,0.11-0.25,0.22-0.39,0.31
		c-0.46,0.32-0.95,0.59-1.46,0.8c-0.13,0.05-0.25,0.11-0.39,0.16c-0.45,0.18-0.94,0.34-1.46,0.49c-0.13,0.04-0.26,0.07-0.39,0.11
		c-0.46,0.12-0.95,0.24-1.46,0.34c-0.13,0.03-0.26,0.05-0.39,0.07c-0.47,0.09-0.96,0.17-1.46,0.24l-0.39,0.05
		c-0.47,0.06-0.96,0.12-1.46,0.16l-0.39,0.03c-0.48,0.04-0.97,0.07-1.46,0.09l-0.39,0.02c-0.48,0.02-0.97,0.03-1.46,0.03h-0.39
		c-0.49,0-0.98-0.01-1.46-0.03l-0.39-0.01c-0.37-0.02-0.73-0.04-1.08-0.06l-0.38-0.03l-0.39-0.03c-0.5-0.04-0.99-0.1-1.46-0.16
		c-0.13-0.02-0.26-0.03-0.39-0.05c-0.3-0.04-0.6-0.09-0.89-0.13c-0.19-0.03-0.38-0.06-0.57-0.1c-0.13-0.02-0.26-0.05-0.39-0.07
		c-0.51-0.1-1-0.21-1.46-0.33l-0.28-0.07l-0.11-0.03c-0.21-0.06-0.41-0.12-0.61-0.18c-0.3-0.1-0.58-0.2-0.85-0.3
		c-0.13-0.05-0.26-0.1-0.39-0.15c-0.45-0.18-0.89-0.4-1.3-0.66c-0.06-0.04-0.11-0.07-0.17-0.11c-0.05-0.04-0.13-0.09-0.19-0.14
		s-0.13-0.1-0.19-0.15c-0.5-0.34-0.81-0.89-0.86-1.49c0-0.04,0-0.07,0.01-0.11v-2.97h1.24h1.46h2.24h1.46h0.39h1.46h0.39h1.46h0.39
		h1.46h0.39h1.46h0.39h1.46h0.39h1.46h0.39h1.46h0.39h1.46h0.39h1.46h0.48l1.36-0.04h0.39h1.46h1.11L193.4,78.18L193.4,78.18
		L193.4,78.18z"/>
	<path id="Path-266" class="st20" d="M166.78,75.14V80c-0.07-0.04-0.13-0.09-0.19-0.14c-0.06-0.05-0.13-0.1-0.19-0.15v-4.57H166.78z
		"/>
	<path id="Path-267" class="st20" d="M168.62,75.14v5.78c-0.13-0.05-0.26-0.1-0.39-0.15v-5.63H168.62z"/>
	<path id="Path-268" class="st20" d="M170.47,75.14v6.37l-0.27-0.07l-0.11-0.04v-6.26H170.47z"/>
	<path id="Path-269" class="st20" d="M172.32,75.14v6.78l-0.39-0.08v-6.7H172.32z"/>
	<path id="Path-270" class="st20" d="M174.17,75.13v7.07c-0.13-0.02-0.26-0.03-0.39-0.05v-7.01H174.17z"/>
	<path id="Path-271" class="st20" d="M176.02,75.13v7.26l-0.39-0.03v-7.22H176.02z"/>
	<path id="Path-272" class="st20" d="M177.87,75.13v7.36l-0.39-0.01v-7.35H177.87z"/>
	<path id="Path-273" class="st20" d="M179.72,75.12v7.39h-0.39v-7.39H179.72z"/>
	<path id="Path-274" class="st20" d="M181.57,75.12v7.35l-0.39,0.02v-7.36H181.57z"/>
	<path id="Path-275" class="st20" d="M183.42,75.12v7.22l-0.39,0.03v-7.26H183.42z"/>
	<path id="Path-276" class="st20" d="M185.27,75.12v7.01l-0.39,0.05v-7.07H185.27z"/>
	<path id="Path-277" class="st20" d="M187.12,75.11v6.7c-0.13,0.03-0.26,0.05-0.39,0.08v-6.78H187.12z"/>
	<path id="Path-278" class="st20" d="M188.97,75.11v6.25c-0.13,0.04-0.26,0.07-0.39,0.11v-6.36H188.97z"/>
	<path id="Path-279" class="st20" d="M190.82,75.11v5.61c-0.12,0.05-0.25,0.11-0.39,0.16v-5.76H190.82z"/>
	<path id="Path-280" class="st20" d="M192.67,75.11v4.5c-0.12,0.11-0.25,0.22-0.39,0.31v-4.81H192.67z"/>
	<path id="Path-281" class="st21" d="M193.4,75.14c0,2.18-6.24,3.95-13.93,3.95c-1.05,0-2.08-0.03-3.06-0.1
		c-1.24-0.08-2.42-0.2-3.5-0.37c-0.97-0.14-1.88-0.33-2.7-0.53c-0.25-0.06-0.49-0.13-0.73-0.2c-0.88-0.24-1.73-0.58-2.54-1.02
		c-0.13-0.07-0.25-0.15-0.36-0.22c-0.58-0.3-0.97-0.86-1.06-1.51c0-0.05,0-0.1,0.01-0.15c0.27-2.11,6.4-3.8,13.92-3.8
		c1.75,0,3.49,0.09,5.23,0.29c0.31,0.04,0.62,0.07,0.92,0.12c1.2,0.16,2.38,0.4,3.55,0.71c0.23,0.06,0.45,0.13,0.66,0.19
		c0.67,0.2,1.33,0.47,1.95,0.79c0.47,0.23,0.9,0.55,1.25,0.95c0.19,0.21,0.31,0.48,0.35,0.76C193.39,75.04,193.4,75.09,193.4,75.14z
		"/>
	<path id="Path-282" class="st22" d="M193.03,74.24l-16.63,4.75c-1.24-0.08-2.41-0.2-3.5-0.37l18.88-5.33
		C192.25,73.53,192.68,73.85,193.03,74.24z"/>
	<path id="Path-283" class="st22" d="M185.61,71.6l-18.67,5.28c-0.13-0.07-0.25-0.15-0.36-0.22l18.11-5.17
		C185.01,71.52,185.31,71.56,185.61,71.6z"/>
	<path id="Path-284" class="st22" d="M189.82,72.51l-19.62,5.58c-0.25-0.06-0.49-0.13-0.73-0.2l19.68-5.58
		C189.39,72.37,189.61,72.44,189.82,72.51z"/>
	<path id="Path-285" class="st20" d="M190.6,75.14c0,0.05,0,0.1-0.01,0.14c-0.27,1.67-5.16,3.01-11.12,3.01
		c-5.96,0-10.85-1.34-11.12-3.01c-0.01-0.05-0.01-0.1-0.01-0.14c0-1.74,5-3.16,11.13-3.16C185.6,71.99,190.6,73.4,190.6,75.14z"/>
	<path id="Path-286" class="st19" d="M190.59,75.29c-0.27,1.67-5.16,3.01-11.12,3.01h-0.4c-1.26-0.01-2.52-0.09-3.78-0.23
		c-1.07-0.12-2.14-0.3-3.18-0.56c-0.24-0.06-0.47-0.12-0.69-0.19c-0.83-0.22-1.61-0.57-2.33-1.04c-0.12-0.09-0.23-0.18-0.34-0.29
		c-0.21-0.19-0.35-0.44-0.41-0.71c0.27-1.67,5.15-3.01,11.12-3.01c0.76,0,1.49,0.02,2.21,0.06c0.36,0.02,0.72,0.05,1.07,0.08
		c1.3,0.11,2.6,0.31,3.87,0.6c0.24,0.06,0.48,0.12,0.7,0.18c0.75,0.2,1.47,0.48,2.15,0.85c0.45,0.22,0.81,0.57,1.05,1
		C190.55,75.13,190.57,75.21,190.59,75.29z"/>
	<path id="Path-287" class="st23" d="M190.52,75.05l-11.45,3.25c-1.26-0.01-2.52-0.09-3.78-0.23l14.18-4.02
		C189.92,74.26,190.28,74.61,190.52,75.05z"/>
	<path id="Path-288" class="st23" d="M182.75,72.42l-13.66,3.87c-0.12-0.09-0.23-0.18-0.34-0.28l12.92-3.66
		C182.03,72.36,182.39,72.38,182.75,72.42z"/>
	<path id="Path-289" class="st23" d="M187.31,73.2l-15.21,4.31c-0.24-0.06-0.47-0.12-0.69-0.19l15.2-4.31
		C186.86,73.07,187.09,73.13,187.31,73.2z"/>
	<path id="Path-290" class="st20" d="M181.01,76.93v0.52h-2.35v-0.5c-1.43-0.01-2.87-0.12-4.28-0.33l1.27-0.81
		c1.27,0.2,2.56,0.3,3.85,0.3c1.12,0,1.52-0.07,1.52-0.18c0-0.42-6.45-0.08-6.45-1.31c0-0.53,1.37-0.98,4.1-1.09v-0.52h2.35v0.5
		c1.13,0.02,2.26,0.11,3.38,0.27l-1.18,0.81c-1.08-0.16-2.16-0.24-3.25-0.25c-1.15,0-1.52,0.1-1.52,0.21c0,0.4,6.45,0.07,6.45,1.29
		C184.9,76.36,183.6,76.8,181.01,76.93z"/>
	<path id="Path-291" class="st21" d="M180.94,76.76v0.53h-2.35v-0.5c-1.43-0.01-2.87-0.12-4.28-0.33l1.27-0.81
		c1.27,0.2,2.56,0.3,3.85,0.3c1.12,0,1.52-0.07,1.52-0.18c0-0.42-6.45-0.08-6.45-1.31c0-0.53,1.37-0.98,4.1-1.09v-0.52h2.35v0.5
		c1.13,0.02,2.26,0.11,3.38,0.27l-1.18,0.81c-1.08-0.16-2.16-0.24-3.25-0.25c-1.15,0-1.52,0.1-1.52,0.21c0,0.4,6.45,0.07,6.45,1.29
		C184.83,76.19,183.53,76.63,180.94,76.76z"/>
	<path id="Path-292" class="st21" d="M197.36,99.81c-0.3,7.02-6.24,12.48-13.26,12.17c-3.11-0.13-6.06-1.4-8.3-3.56
		c-0.22-0.21-0.43-0.43-0.64-0.66c-0.9-1-1.64-2.14-2.18-3.37c-0.11-0.24-0.21-0.49-0.3-0.74c-0.57-1.56-0.83-3.23-0.76-4.89
		c0.01-0.16,0.02-0.31,0.03-0.47c0.57-7.02,6.72-12.24,13.74-11.67c1.46,0.12,2.88,0.49,4.22,1.09c0.28,0.13,0.55,0.26,0.82,0.41
		c1.17,0.64,2.23,1.45,3.14,2.41c0.2,0.21,0.39,0.43,0.58,0.65c0.66,0.8,1.23,1.68,1.68,2.62c0.83,1.73,1.25,3.62,1.24,5.53
		C197.37,99.5,197.36,99.66,197.36,99.81z"/>
	<path id="Path-293" class="st22" d="M197.14,96.9l-15.81,14.66c-1.1-0.3-2.16-0.74-3.15-1.32l17.94-16.43
		C196.6,94.79,196.94,95.83,197.14,96.9z"/>
	<path id="Path-294" class="st22" d="M190.73,88.13l-17.74,16.27c-0.11-0.24-0.21-0.49-0.3-0.74l17.22-15.94
		C190.18,87.85,190.46,87.98,190.73,88.13z"/>
	<path id="Path-295" class="st22" d="M194.45,91.19l-18.65,17.23c-0.22-0.21-0.43-0.43-0.64-0.66l18.71-17.22
		C194.07,90.75,194.26,90.97,194.45,91.19z"/>
	<path id="Path-296" class="st20" d="M194.81,99.71c-0.01,0.16-0.02,0.31-0.03,0.47c-0.5,5.6-5.45,9.73-11.05,9.23
		c-5.22-0.47-9.23-4.82-9.27-10.06c0-0.15,0-0.31,0.01-0.47c0.28-5.61,5.06-9.93,10.67-9.65C190.69,89.5,194.98,94.16,194.81,99.71
		L194.81,99.71z"/>
	<path id="Path-297" class="st19" d="M194.78,100.17c-0.49,5.41-5.13,9.48-10.56,9.26c-0.12,0-0.24-0.01-0.36-0.02
		c-2.35-0.18-4.56-1.17-6.25-2.79c-0.21-0.2-0.41-0.41-0.6-0.63c-0.88-1-1.56-2.16-1.99-3.41c-0.11-0.3-0.2-0.61-0.27-0.93
		c-0.18-0.76-0.28-1.53-0.28-2.31c0.5-5.6,5.46-9.73,11.06-9.23c0.51,0.05,1.01,0.13,1.51,0.25c1.65,0.4,3.17,1.22,4.42,2.36
		c0.21,0.19,0.42,0.4,0.62,0.61c0.77,0.83,1.4,1.78,1.85,2.82c0.46,1.03,0.73,2.13,0.82,3.26
		C194.76,99.66,194.78,99.92,194.78,100.17z"/>
	<path id="Path-298" class="st23" d="M194.74,99.41l-10.89,10c-1.18-0.09-2.34-0.38-3.42-0.87l13.48-12.39
		C194.38,97.18,194.65,98.28,194.74,99.41z"/>
	<path id="Path-299" class="st23" d="M188,90.65l-12.98,11.93c-0.11-0.3-0.2-0.61-0.27-0.93l12.29-11.29
		C187.36,90.44,187.68,90.54,188,90.65z"/>
	<path id="Path-300" class="st23" d="M192.07,93.33l-14.46,13.29c-0.21-0.2-0.41-0.41-0.6-0.63l14.45-13.27
		C191.66,92.91,191.87,93.12,192.07,93.33z"/>
	<path id="Path-301" class="st20" d="M185.82,105.1l-0.07,1.68l-2.15-0.09l0.07-1.61c-1.37-0.11-2.69-0.53-3.87-1.22l1.26-2.56
		c1.05,0.66,2.24,1.04,3.47,1.12c1.02,0.04,1.39-0.16,1.41-0.52c0.05-1.34-5.88-0.5-5.71-4.46c0.07-1.71,1.38-3.11,3.89-3.35
		l0.07-1.65l2.15,0.09l-0.07,1.63c1.08,0.13,2.11,0.47,3.05,1.01l-1.19,2.55c-0.89-0.53-1.9-0.84-2.93-0.91
		c-1.05-0.04-1.4,0.25-1.41,0.61c-0.05,1.28,5.88,0.46,5.72,4.37C189.44,103.41,188.19,104.79,185.82,105.1z"/>
	<path id="Path-302" class="st21" d="M185.78,104.54l-0.07,1.68l-2.15-0.09l0.07-1.61c-1.37-0.11-2.69-0.53-3.87-1.22l1.26-2.57
		c1.05,0.66,2.24,1.04,3.48,1.12c1.02,0.04,1.39-0.16,1.41-0.52c0.05-1.34-5.88-0.5-5.71-4.46c0.07-1.72,1.38-3.11,3.89-3.35
		l0.07-1.65l2.14,0.09l-0.07,1.62c1.08,0.13,2.11,0.47,3.05,1.01l-1.19,2.55c-0.89-0.53-1.9-0.84-2.93-0.91
		c-1.05-0.04-1.4,0.25-1.41,0.61c-0.05,1.28,5.88,0.46,5.72,4.37C189.4,102.85,188.15,104.23,185.78,104.54z"/>
	<path id="Path-303" class="st19" d="M161.66,112.58c0,0.01,0,0.03,0,0.04c-0.04,0.54-0.3,1.05-0.73,1.38
		c-0.12,0.11-0.25,0.21-0.39,0.31c-0.46,0.32-0.95,0.59-1.46,0.8c-0.12,0.05-0.25,0.11-0.39,0.16c-0.45,0.18-0.93,0.34-1.46,0.49
		c-0.13,0.04-0.26,0.07-0.39,0.11c-0.46,0.12-0.95,0.24-1.46,0.34c-0.13,0.03-0.26,0.05-0.39,0.08c-0.47,0.09-0.96,0.17-1.46,0.24
		l-0.39,0.05c-0.47,0.06-0.96,0.12-1.46,0.16l-0.39,0.03c-0.48,0.04-0.97,0.07-1.46,0.09l-0.39,0.02c-0.48,0.02-0.97,0.03-1.46,0.03
		h-0.39c-0.49,0-0.98-0.01-1.46-0.03l-0.39-0.01c-0.37-0.02-0.73-0.04-1.08-0.06l-0.38-0.03l-0.39-0.03
		c-0.5-0.04-0.99-0.1-1.46-0.16c-0.13-0.02-0.26-0.03-0.39-0.05c-0.3-0.04-0.6-0.09-0.89-0.13c-0.19-0.03-0.38-0.06-0.57-0.1
		c-0.13-0.02-0.26-0.05-0.39-0.07c-0.51-0.1-1-0.21-1.46-0.33l-0.28-0.07l-0.11-0.03c-0.21-0.06-0.41-0.12-0.61-0.18
		c-0.3-0.09-0.58-0.19-0.85-0.3c-0.13-0.05-0.26-0.1-0.39-0.15c-0.45-0.18-0.89-0.4-1.3-0.66c-0.06-0.04-0.11-0.07-0.17-0.11
		c-0.05-0.04-0.13-0.09-0.19-0.14c-0.06-0.05-0.13-0.1-0.19-0.15c-0.5-0.34-0.81-0.89-0.86-1.49c0-0.04,0-0.07,0-0.11v-2.97h1.25
		h1.46h0.39h1.14h0.71h1.46h0.39l1.46-0.01h0.39h1.46h0.39h1.46h0.39h1.46h0.39h1.46h0.39h1.46h0.39h1.46h0.39H155h0.39h1.46h0.48
		l1.36-0.03h0.39h1.46h1.11L161.66,112.58L161.66,112.58L161.66,112.58z"/>
	<path id="Path-304" class="st20" d="M135.04,109.53v4.86c-0.07-0.05-0.13-0.09-0.2-0.14c-0.07-0.05-0.13-0.1-0.19-0.15v-4.57
		H135.04z"/>
	<path id="Path-305" class="st20" d="M136.89,109.53v5.78c-0.13-0.05-0.26-0.1-0.39-0.15v-5.63H136.89z"/>
	<path id="Path-306" class="st20" d="M138.74,109.53v6.37l-0.27-0.07l-0.11-0.04v-6.26H138.74z"/>
	<path id="Path-307" class="st20" d="M140.59,109.53v6.78c-0.13-0.02-0.26-0.05-0.39-0.08v-6.7H140.59z"/>
	<path id="Path-308" class="st20" d="M142.44,109.52v7.07c-0.13-0.02-0.26-0.03-0.39-0.05v-7.01H142.44z"/>
	<path id="Path-309" class="st20" d="M144.29,109.52v7.26l-0.39-0.03v-7.22H144.29z"/>
	<path id="Path-310" class="st20" d="M146.14,109.52v7.36l-0.39-0.01v-7.35H146.14z"/>
	<path id="Path-311" class="st20" d="M147.99,109.52v7.39h-0.39v-7.39H147.99z"/>
	<path id="Path-312" class="st20" d="M149.84,109.51v7.35l-0.39,0.02v-7.36H149.84z"/>
	<path id="Path-313" class="st20" d="M151.69,109.51v7.22l-0.39,0.03v-7.26H151.69z"/>
	<path id="Path-314" class="st20" d="M153.54,109.51v7.01c-0.13,0.02-0.26,0.04-0.39,0.05v-7.07H153.54z"/>
	<path id="Path-315" class="st20" d="M155.39,109.5v6.7c-0.13,0.03-0.26,0.05-0.39,0.08v-6.78H155.39z"/>
	<path id="Path-316" class="st20" d="M157.24,109.5v6.25c-0.13,0.04-0.26,0.07-0.39,0.11v-6.36H157.24z"/>
	<path id="Path-317" class="st20" d="M159.08,109.5v5.61c-0.13,0.05-0.25,0.11-0.39,0.16v-5.77H159.08z"/>
	<path id="Path-318" class="st20" d="M160.93,109.5v4.5c-0.12,0.11-0.25,0.21-0.39,0.31v-4.81H160.93z"/>
	<path id="Path-319" class="st21" d="M161.66,109.53c0,2.18-6.24,3.95-13.93,3.95c-1.05,0-2.08-0.03-3.06-0.1
		c-1.24-0.08-2.41-0.2-3.5-0.37c-0.97-0.14-1.88-0.33-2.7-0.53c-0.25-0.07-0.49-0.13-0.72-0.2c-0.88-0.24-1.73-0.58-2.54-1.02
		c-0.13-0.07-0.25-0.15-0.36-0.22c-0.58-0.3-0.97-0.86-1.05-1.51c0-0.05,0-0.1,0.01-0.15c0.27-2.11,6.4-3.8,13.92-3.8
		c1.75,0,3.5,0.09,5.23,0.29c0.31,0.04,0.62,0.07,0.92,0.12c1.2,0.16,2.38,0.4,3.55,0.71c0.23,0.06,0.45,0.13,0.66,0.19
		c0.67,0.2,1.33,0.47,1.95,0.79c0.47,0.23,0.9,0.55,1.25,0.95c0.19,0.21,0.31,0.48,0.35,0.76
		C161.66,109.44,161.66,109.49,161.66,109.53z"/>
	<path id="Path-320" class="st22" d="M161.3,108.63l-16.63,4.75c-1.24-0.08-2.41-0.2-3.5-0.37l18.88-5.33
		C160.52,107.92,160.94,108.24,161.3,108.63z"/>
	<path id="Path-321" class="st22" d="M153.88,105.99l-18.67,5.28c-0.13-0.07-0.25-0.15-0.36-0.22l18.11-5.17
		C153.28,105.91,153.58,105.95,153.88,105.99z"/>
	<path id="Path-322" class="st22" d="M158.09,106.9l-19.62,5.58c-0.25-0.06-0.49-0.13-0.73-0.2l19.68-5.58
		C157.66,106.76,157.88,106.83,158.09,106.9z"/>
	<path id="Path-323" class="st20" d="M158.87,109.53c0,0.05,0,0.1-0.01,0.14c-0.27,1.67-5.16,3.01-11.12,3.01
		c-5.96,0-10.85-1.34-11.12-3.01c-0.01-0.05-0.01-0.1-0.01-0.14c0-1.74,5-3.16,11.13-3.16
		C153.87,106.38,158.87,107.79,158.87,109.53z"/>
	<path id="Path-324" class="st19" d="M158.86,109.68c-0.27,1.67-5.16,3.01-11.12,3.01h-0.4c-1.26-0.01-2.52-0.09-3.78-0.23
		c-1.07-0.12-2.14-0.31-3.18-0.56c-0.24-0.06-0.47-0.12-0.69-0.19c-0.83-0.22-1.61-0.57-2.33-1.04c-0.12-0.09-0.23-0.18-0.34-0.29
		c-0.21-0.19-0.35-0.44-0.41-0.71c0.27-1.67,5.15-3.01,11.12-3.01c0.76,0,1.49,0.02,2.21,0.06c0.36,0.02,0.72,0.05,1.07,0.08
		c1.3,0.11,2.6,0.31,3.87,0.6c0.24,0.06,0.48,0.12,0.7,0.18c0.75,0.2,1.47,0.48,2.15,0.85c0.45,0.22,0.81,0.57,1.05,1
		C158.82,109.52,158.84,109.6,158.86,109.68z"/>
	<path id="Path-325" class="st23" d="M158.78,109.44l-11.45,3.25c-1.26-0.01-2.52-0.09-3.78-0.23l14.18-4.02
		C158.18,108.66,158.55,109.01,158.78,109.44z"/>
	<path id="Path-326" class="st23" d="M151.01,106.81l-13.66,3.87c-0.12-0.09-0.23-0.18-0.34-0.28l12.92-3.66
		C150.3,106.75,150.66,106.78,151.01,106.81z"/>
	<path id="Path-327" class="st23" d="M155.58,107.59l-15.21,4.31c-0.24-0.06-0.47-0.12-0.69-0.19l15.2-4.31
		C155.12,107.46,155.36,107.52,155.58,107.59z"/>
	<path id="Path-328" class="st20" d="M149.28,111.32v0.52h-2.35v-0.5c-1.43-0.01-2.86-0.12-4.28-0.33l1.27-0.81
		c1.27,0.2,2.56,0.3,3.85,0.3c1.12,0,1.52-0.07,1.52-0.18c0-0.42-6.45-0.08-6.45-1.31c0-0.53,1.37-0.98,4.1-1.09v-0.51h2.35v0.51
		c1.13,0.02,2.26,0.11,3.38,0.27l-1.18,0.81c-1.08-0.16-2.16-0.24-3.25-0.25c-1.15,0-1.52,0.09-1.52,0.21c0,0.4,6.45,0.07,6.45,1.28
		C153.16,110.75,151.86,111.2,149.28,111.32z"/>
	<path id="Path-329" class="st21" d="M149.21,111.15v0.53h-2.35v-0.5c-1.43-0.01-2.87-0.12-4.28-0.33l1.27-0.81
		c1.27,0.2,2.56,0.3,3.85,0.3c1.12,0,1.52-0.07,1.52-0.18c0-0.42-6.45-0.08-6.45-1.31c0-0.53,1.37-0.98,4.1-1.09v-0.52h2.35v0.5
		c1.13,0.02,2.26,0.11,3.38,0.27l-1.18,0.81c-1.08-0.16-2.16-0.24-3.25-0.25c-1.15,0-1.52,0.09-1.52,0.21c0,0.4,6.45,0.07,6.45,1.29
		C153.09,110.58,151.79,111.02,149.21,111.15z"/>
	<path id="Path-330" class="st19" d="M162.54,107.71c0,0.01,0,0.03,0,0.04c-0.04,0.54-0.3,1.04-0.73,1.38
		c-0.12,0.11-0.25,0.21-0.39,0.31c-0.46,0.32-0.95,0.59-1.46,0.8c-0.12,0.05-0.25,0.11-0.39,0.16c-0.45,0.18-0.94,0.34-1.46,0.49
		c-0.13,0.04-0.26,0.07-0.39,0.11c-0.46,0.12-0.95,0.24-1.46,0.34c-0.13,0.03-0.26,0.05-0.39,0.07c-0.47,0.09-0.95,0.17-1.46,0.24
		l-0.39,0.05c-0.47,0.06-0.96,0.12-1.46,0.16l-0.39,0.03c-0.48,0.04-0.97,0.07-1.46,0.09l-0.39,0.02c-0.48,0.02-0.97,0.03-1.46,0.03
		h-0.39c-0.49,0-0.98-0.01-1.46-0.03l-0.39-0.01c-0.37-0.02-0.73-0.04-1.08-0.06l-0.38-0.03c-0.13-0.01-0.26-0.02-0.39-0.03
		c-0.5-0.04-0.99-0.09-1.47-0.15c-0.13-0.02-0.26-0.03-0.39-0.05c-0.3-0.04-0.6-0.09-0.89-0.13c-0.19-0.03-0.38-0.07-0.57-0.1
		c-0.13-0.02-0.26-0.05-0.39-0.07c-0.51-0.1-1-0.21-1.46-0.33l-0.27-0.08l-0.12-0.03c-0.21-0.06-0.41-0.12-0.61-0.18
		c-0.3-0.09-0.58-0.19-0.85-0.3c-0.13-0.05-0.26-0.1-0.39-0.15c-0.45-0.18-0.89-0.4-1.3-0.66c-0.06-0.04-0.11-0.07-0.17-0.11
		c-0.05-0.04-0.13-0.09-0.19-0.14c-0.06-0.05-0.13-0.1-0.19-0.15c-0.5-0.34-0.81-0.89-0.86-1.49c0-0.04,0-0.07,0.01-0.11v-2.97h1.24
		h1.46h2.24h1.46h0.39l1.46-0.01h0.39h1.46h0.39h1.46h0.39h1.46h0.39h1.46h0.39h1.46h0.39h1.46h0.39h1.46h0.39h1.46h0.48l1.36-0.03
		h0.39h1.46h1.11L162.54,107.71L162.54,107.71L162.54,107.71z"/>
	<path id="Path-331" class="st20" d="M135.92,104.66v4.86c-0.07-0.05-0.13-0.09-0.19-0.14c-0.06-0.05-0.13-0.1-0.19-0.15v-4.57
		H135.92z"/>
	<path id="Path-332" class="st20" d="M137.77,104.66v5.78c-0.13-0.05-0.26-0.1-0.39-0.15v-5.63H137.77z"/>
	<path id="Path-333" class="st20" d="M139.62,104.66v6.37l-0.27-0.07l-0.11-0.04v-6.26H139.62z"/>
	<path id="Path-334" class="st20" d="M141.47,104.66v6.78c-0.13-0.02-0.26-0.05-0.39-0.08v-6.7H141.47z"/>
	<path id="Path-335" class="st20" d="M143.32,104.65v7.07c-0.13-0.02-0.26-0.03-0.39-0.05v-7.01H143.32z"/>
	<path id="Path-336" class="st20" d="M145.17,104.65v7.26l-0.39-0.03v-7.22H145.17z"/>
	<path id="Path-337" class="st20" d="M147.01,104.65v7.36l-0.39-0.01v-7.35H147.01z"/>
	<path id="Path-338" class="st20" d="M148.86,104.65v7.39h-0.39v-7.39H148.86z"/>
	<path id="Path-339" class="st20" d="M150.71,104.64v7.35l-0.39,0.02v-7.36H150.71z"/>
	<path id="Path-340" class="st20" d="M152.56,104.64v7.22l-0.39,0.03v-7.26H152.56z"/>
	<path id="Path-341" class="st20" d="M154.41,104.64v7.01l-0.39,0.05v-7.07H154.41z"/>
	<path id="Path-342" class="st20" d="M156.26,104.64v6.7c-0.13,0.03-0.26,0.05-0.39,0.08v-6.78H156.26z"/>
	<path id="Path-343" class="st20" d="M158.11,104.63v6.25c-0.13,0.04-0.26,0.07-0.39,0.11v-6.36H158.11z"/>
	<path id="Path-344" class="st20" d="M159.96,104.63v5.61c-0.12,0.05-0.25,0.11-0.39,0.16v-5.76H159.96z"/>
	<path id="Path-345" class="st20" d="M161.81,104.63v4.5c-0.12,0.11-0.25,0.21-0.39,0.31v-4.81H161.81z"/>
	<path id="Path-346" class="st21" d="M162.54,104.66c0,2.18-6.24,3.95-13.93,3.95c-1.05,0-2.08-0.03-3.06-0.1
		c-1.24-0.08-2.42-0.2-3.5-0.37c-0.97-0.14-1.88-0.33-2.7-0.53c-0.25-0.06-0.49-0.13-0.73-0.2c-0.88-0.24-1.73-0.58-2.54-1.02
		c-0.13-0.07-0.25-0.15-0.36-0.22c-0.58-0.3-0.98-0.86-1.06-1.51c0-0.05,0-0.1,0.01-0.15c0.27-2.11,6.4-3.8,13.92-3.8
		c1.75,0,3.49,0.09,5.23,0.29c0.31,0.04,0.62,0.08,0.92,0.12c1.2,0.16,2.38,0.4,3.55,0.71c0.23,0.06,0.45,0.13,0.66,0.2
		c0.67,0.2,1.33,0.47,1.95,0.79c0.47,0.23,0.9,0.55,1.25,0.95c0.19,0.21,0.31,0.47,0.35,0.75
		C162.53,104.57,162.54,104.62,162.54,104.66z"/>
	<path id="Path-347" class="st22" d="M162.17,103.76l-16.63,4.75c-1.24-0.08-2.41-0.2-3.5-0.37l18.88-5.33
		C161.39,103.05,161.82,103.37,162.17,103.76z"/>
	<path id="Path-348" class="st22" d="M154.76,101.12l-18.67,5.28c-0.13-0.07-0.25-0.15-0.36-0.22l18.11-5.17
		C154.15,101.04,154.46,101.08,154.76,101.12z"/>
	<path id="Path-349" class="st22" d="M158.97,102.03l-19.62,5.58c-0.25-0.06-0.49-0.13-0.73-0.2l19.68-5.58
		C158.53,101.89,158.75,101.96,158.97,102.03z"/>
	<path id="Path-350" class="st20" d="M159.74,104.66c0,0.05,0,0.1-0.01,0.15c-0.27,1.67-5.16,3.01-11.12,3.01
		c-5.96,0-10.85-1.34-11.12-3.01c-0.01-0.05-0.01-0.1-0.01-0.15c0-1.74,5-3.15,11.14-3.15S159.74,102.92,159.74,104.66z"/>
	<path id="Path-351" class="st19" d="M159.73,104.81c-0.27,1.67-5.16,3.01-11.12,3.01h-0.4c-1.26-0.01-2.52-0.09-3.78-0.23
		c-1.07-0.12-2.14-0.3-3.18-0.56c-0.24-0.06-0.47-0.12-0.69-0.19c-0.83-0.22-1.61-0.57-2.33-1.04c-0.12-0.09-0.23-0.18-0.34-0.29
		c-0.21-0.19-0.35-0.44-0.41-0.71c0.27-1.67,5.15-3.01,11.12-3.01c0.76,0,1.49,0.02,2.21,0.06c0.36,0.02,0.72,0.05,1.07,0.08
		c1.3,0.11,2.6,0.31,3.87,0.6c0.24,0.06,0.48,0.12,0.7,0.18c0.75,0.2,1.47,0.48,2.15,0.85c0.44,0.22,0.81,0.57,1.05,1
		C159.69,104.65,159.72,104.73,159.73,104.81z"/>
	<path id="Path-352" class="st23" d="M159.66,104.57l-11.45,3.25c-1.26-0.01-2.52-0.09-3.78-0.23l14.18-4.02
		C159.06,103.79,159.42,104.14,159.66,104.57z"/>
	<path id="Path-353" class="st23" d="M151.89,101.94l-13.66,3.87c-0.12-0.09-0.23-0.18-0.34-0.28l12.92-3.66
		C151.18,101.88,151.54,101.91,151.89,101.94z"/>
	<path id="Path-354" class="st23" d="M156.46,102.72l-15.21,4.31c-0.24-0.06-0.47-0.12-0.69-0.19l15.2-4.31
		C156,102.59,156.23,102.65,156.46,102.72z"/>
	<path id="Path-355" class="st20" d="M150.15,106.45v0.52h-2.35v-0.5c-1.43-0.01-2.87-0.12-4.28-0.33l1.27-0.81
		c1.27,0.2,2.56,0.3,3.85,0.3c1.12,0,1.52-0.07,1.52-0.18c0-0.42-6.45-0.08-6.45-1.31c0-0.53,1.37-0.98,4.1-1.09v-0.52h2.35v0.51
		c1.13,0.02,2.26,0.11,3.38,0.27l-1.18,0.81c-1.08-0.16-2.16-0.24-3.25-0.25c-1.15,0-1.52,0.1-1.52,0.21c0,0.4,6.45,0.07,6.45,1.29
		C154.04,105.88,152.74,106.33,150.15,106.45z"/>
	<path id="Path-356" class="st21" d="M150.09,106.28v0.52h-2.35v-0.5c-1.43-0.01-2.87-0.12-4.28-0.33l1.27-0.81
		c1.27,0.2,2.56,0.3,3.85,0.3c1.12,0,1.52-0.07,1.52-0.18c0-0.42-6.45-0.08-6.45-1.31c0-0.53,1.37-0.98,4.1-1.09v-0.52h2.35v0.51
		c1.13,0.02,2.26,0.11,3.38,0.27l-1.18,0.81c-1.08-0.16-2.16-0.24-3.25-0.24c-1.15,0-1.52,0.09-1.52,0.21c0,0.4,6.45,0.07,6.45,1.28
		C153.97,105.71,152.67,106.15,150.09,106.28z"/>
	<path id="Path-357" class="st19" d="M162.41,102.84c0,0.01,0,0.03,0,0.04c-0.04,0.54-0.3,1.05-0.73,1.38
		c-0.12,0.11-0.25,0.22-0.39,0.31c-0.46,0.32-0.95,0.59-1.46,0.8c-0.12,0.05-0.25,0.11-0.39,0.16c-0.45,0.18-0.94,0.34-1.46,0.49
		c-0.13,0.04-0.26,0.07-0.39,0.11c-0.46,0.12-0.95,0.24-1.46,0.34c-0.13,0.03-0.26,0.05-0.39,0.07c-0.47,0.09-0.96,0.17-1.46,0.24
		c-0.13,0.02-0.26,0.04-0.39,0.05c-0.47,0.06-0.96,0.12-1.46,0.16l-0.39,0.03c-0.48,0.04-0.97,0.07-1.46,0.09l-0.39,0.02
		c-0.48,0.02-0.97,0.03-1.46,0.03h-0.39c-0.49,0-0.98-0.01-1.46-0.03c-0.13,0-0.26-0.01-0.39-0.01c-0.37-0.02-0.73-0.04-1.08-0.06
		l-0.38-0.03c-0.13-0.01-0.26-0.02-0.39-0.03c-0.5-0.04-0.99-0.1-1.46-0.16c-0.13-0.02-0.26-0.03-0.39-0.05
		c-0.3-0.04-0.6-0.09-0.89-0.13c-0.19-0.03-0.38-0.07-0.57-0.1l-0.39-0.07c-0.51-0.1-1-0.21-1.47-0.34l-0.27-0.07l-0.11-0.03
		c-0.21-0.06-0.41-0.12-0.61-0.18c-0.3-0.1-0.58-0.2-0.85-0.3c-0.13-0.05-0.26-0.1-0.39-0.15c-0.45-0.18-0.89-0.4-1.3-0.66
		c-0.06-0.04-0.11-0.07-0.17-0.11c-0.05-0.04-0.13-0.09-0.19-0.14c-0.06-0.05-0.13-0.1-0.19-0.15c-0.5-0.34-0.81-0.89-0.86-1.49
		c0-0.04,0-0.07,0-0.11V99.8h1.25h1.46h2.24h1.46h0.39l1.46-0.01h0.39h1.46h0.39h1.46h0.39h1.46h0.39h1.46h0.39h1.46h0.39h1.46h0.39
		h1.46h0.39h1.46h0.48l1.36-0.03h0.39h1.46h1.11L162.41,102.84L162.41,102.84L162.41,102.84z"/>
	<path id="Path-358" class="st20" d="M135.79,99.8v4.86c-0.07-0.04-0.13-0.09-0.19-0.14c-0.06-0.05-0.13-0.1-0.19-0.15V99.8H135.79z
		"/>
	<path id="Path-359" class="st20" d="M137.64,99.79v5.78c-0.13-0.05-0.26-0.1-0.39-0.15v-5.63H137.64z"/>
	<path id="Path-360" class="st20" d="M139.49,99.79v6.37l-0.27-0.07l-0.12-0.04v-6.26H139.49z"/>
	<path id="Path-361" class="st20" d="M141.34,99.79v6.78l-0.39-0.08v-6.7H141.34z"/>
	<path id="Path-362" class="st20" d="M143.19,99.78v7.07c-0.13-0.02-0.26-0.03-0.39-0.05v-7.01H143.19z"/>
	<path id="Path-363" class="st20" d="M145.04,99.78v7.26c-0.13-0.01-0.26-0.02-0.39-0.03v-7.22H145.04z"/>
	<path id="Path-364" class="st20" d="M146.89,99.78v7.36c-0.13,0-0.26-0.01-0.39-0.01v-7.35H146.89z"/>
	<path id="Path-365" class="st20" d="M148.74,99.78v7.39h-0.39v-7.39H148.74z"/>
	<path id="Path-366" class="st20" d="M150.59,99.77v7.35l-0.39,0.02v-7.36H150.59z"/>
	<path id="Path-367" class="st20" d="M152.43,99.77V107l-0.39,0.03v-7.26H152.43z"/>
	<path id="Path-368" class="st20" d="M154.28,99.77v7.01c-0.13,0.02-0.26,0.04-0.39,0.05v-7.07H154.28z"/>
	<path id="Path-369" class="st20" d="M156.13,99.77v6.7c-0.13,0.03-0.26,0.05-0.39,0.08v-6.78H156.13z"/>
	<path id="Path-370" class="st20" d="M157.98,99.76v6.25c-0.13,0.04-0.26,0.07-0.39,0.11v-6.36H157.98z"/>
	<path id="Path-371" class="st20" d="M159.83,99.76v5.61c-0.13,0.05-0.25,0.11-0.39,0.16v-5.76H159.83z"/>
	<path id="Path-372" class="st20" d="M161.68,99.76v4.5c-0.12,0.11-0.25,0.21-0.39,0.31v-4.81H161.68z"/>
	<path id="Path-373" class="st21" d="M162.41,99.79c0,2.18-6.24,3.95-13.93,3.95c-1.05,0-2.08-0.03-3.06-0.1
		c-1.24-0.08-2.41-0.2-3.5-0.37c-0.97-0.14-1.88-0.33-2.7-0.53c-0.25-0.06-0.49-0.13-0.72-0.2c-0.88-0.24-1.73-0.58-2.54-1.02
		c-0.13-0.07-0.25-0.15-0.36-0.22c-0.58-0.3-0.97-0.86-1.05-1.51c0-0.05,0-0.1,0.01-0.15c0.27-2.11,6.4-3.8,13.92-3.8
		c1.75,0,3.5,0.09,5.23,0.29c0.31,0.04,0.62,0.07,0.92,0.12c1.2,0.16,2.38,0.4,3.55,0.71c0.23,0.06,0.45,0.13,0.66,0.19
		c0.67,0.2,1.33,0.47,1.95,0.79c0.47,0.23,0.9,0.55,1.25,0.95c0.19,0.21,0.31,0.48,0.35,0.76C162.41,99.7,162.41,99.74,162.41,99.79
		z"/>
	<path id="Path-374" class="st22" d="M162.04,98.89l-16.63,4.75c-1.23-0.08-2.41-0.2-3.5-0.37l18.88-5.33
		C161.27,98.18,161.69,98.5,162.04,98.89z"/>
	<path id="Path-375" class="st22" d="M154.63,96.25l-18.67,5.28c-0.13-0.07-0.25-0.15-0.36-0.22l18.11-5.17
		C154.02,96.17,154.33,96.21,154.63,96.25z"/>
	<path id="Path-376" class="st22" d="M158.84,97.15l-19.62,5.59c-0.25-0.06-0.49-0.13-0.73-0.2l19.68-5.58
		C158.4,97.02,158.63,97.09,158.84,97.15z"/>
	<path id="Path-377" class="st20" d="M159.61,99.79c0,0.05,0,0.1-0.01,0.15c-0.27,1.67-5.16,3.01-11.12,3.01
		c-5.96,0-10.85-1.34-11.12-3.01c-0.01-0.05-0.01-0.1-0.01-0.14c0-1.74,5-3.16,11.14-3.16S159.61,98.05,159.61,99.79z"/>
	<path id="Path-378" class="st19" d="M159.6,99.94c-0.27,1.67-5.16,3.01-11.12,3.01h-0.4c-1.26-0.01-2.52-0.09-3.78-0.23
		c-1.07-0.12-2.14-0.3-3.18-0.56c-0.24-0.06-0.47-0.12-0.69-0.19c-0.83-0.22-1.61-0.57-2.33-1.04c-0.12-0.09-0.23-0.18-0.34-0.29
		c-0.21-0.19-0.35-0.44-0.41-0.71c0.27-1.67,5.16-3.01,11.12-3.01c0.76,0,1.49,0.02,2.21,0.06c0.36,0.02,0.72,0.05,1.07,0.08
		c1.3,0.11,2.6,0.31,3.87,0.6c0.24,0.06,0.48,0.12,0.7,0.18c0.75,0.2,1.47,0.48,2.15,0.85c0.45,0.22,0.81,0.57,1.05,1
		C159.56,99.78,159.59,99.86,159.6,99.94z"/>
	<path id="Path-379" class="st23" d="M159.53,99.7l-11.45,3.25c-1.26-0.01-2.52-0.09-3.78-0.23l14.18-4.02
		C158.93,98.92,159.3,99.27,159.53,99.7z"/>
	<path id="Path-380" class="st23" d="M151.76,97.07l-13.66,3.87c-0.12-0.09-0.23-0.18-0.34-0.28l12.92-3.66
		C151.05,97.01,151.41,97.04,151.76,97.07z"/>
	<path id="Path-381" class="st23" d="M156.33,97.85l-15.21,4.31c-0.24-0.06-0.47-0.12-0.69-0.19l15.2-4.31
		C155.87,97.72,156.11,97.78,156.33,97.85z"/>
	<path id="Path-382" class="st20" d="M150.03,101.58v0.52h-2.35v-0.5c-1.43-0.01-2.87-0.12-4.28-0.33l1.27-0.81
		c1.27,0.2,2.56,0.3,3.85,0.3c1.12,0,1.52-0.07,1.52-0.18c0-0.42-6.45-0.08-6.45-1.31c0-0.53,1.37-0.98,4.1-1.09v-0.52h2.35v0.51
		c1.13,0.02,2.26,0.11,3.38,0.27l-1.18,0.81c-1.08-0.16-2.16-0.24-3.25-0.25c-1.15,0-1.52,0.09-1.52,0.21c0,0.4,6.45,0.07,6.45,1.28
		C153.91,101.01,152.61,101.46,150.03,101.58z"/>
	<path id="Path-383" class="st21" d="M149.96,101.41v0.52h-2.35v-0.5c-1.43-0.01-2.87-0.12-4.28-0.33l1.27-0.81
		c1.27,0.2,2.56,0.3,3.85,0.3c1.12,0,1.52-0.07,1.52-0.18c0-0.42-6.45-0.08-6.45-1.31c0-0.53,1.37-0.98,4.1-1.09v-0.52h2.35V98
		c1.13,0.02,2.26,0.11,3.38,0.27l-1.18,0.81c-1.08-0.16-2.16-0.24-3.25-0.25c-1.15,0-1.52,0.1-1.52,0.21c0,0.4,6.45,0.07,6.45,1.29
		C153.84,100.84,152.54,101.28,149.96,101.41z"/>
	<path id="Path-384" class="st19" d="M163.45,98.48v0.04c-0.04,0.54-0.3,1.05-0.73,1.38c-0.12,0.11-0.25,0.22-0.39,0.31
		c-0.46,0.32-0.95,0.59-1.46,0.8c-0.13,0.05-0.25,0.11-0.39,0.16c-0.45,0.18-0.94,0.34-1.46,0.49c-0.13,0.04-0.26,0.07-0.39,0.11
		c-0.46,0.12-0.95,0.24-1.46,0.34c-0.13,0.03-0.26,0.05-0.39,0.08c-0.47,0.09-0.95,0.17-1.46,0.24l-0.39,0.05
		c-0.47,0.06-0.96,0.12-1.46,0.16l-0.39,0.03c-0.48,0.04-0.97,0.07-1.46,0.09l-0.39,0.02c-0.48,0.02-0.97,0.03-1.46,0.03h-0.39
		c-0.49,0-0.98-0.01-1.46-0.03l-0.39-0.01c-0.37-0.02-0.73-0.04-1.08-0.06l-0.38-0.03l-0.39-0.03c-0.5-0.04-0.99-0.09-1.47-0.15
		c-0.13-0.02-0.26-0.03-0.39-0.05c-0.3-0.04-0.6-0.09-0.89-0.13c-0.19-0.03-0.38-0.07-0.57-0.1c-0.13-0.02-0.26-0.05-0.39-0.07
		c-0.51-0.1-1-0.22-1.46-0.34l-0.27-0.07l-0.12-0.03c-0.21-0.06-0.41-0.12-0.61-0.18c-0.3-0.1-0.59-0.2-0.85-0.3
		c-0.13-0.05-0.26-0.1-0.39-0.15c-0.45-0.18-0.89-0.4-1.3-0.66c-0.06-0.04-0.11-0.07-0.17-0.11c-0.05-0.04-0.13-0.09-0.19-0.14
		c-0.06-0.05-0.13-0.1-0.19-0.15c-0.5-0.34-0.81-0.89-0.86-1.49c0-0.04,0-0.07,0.01-0.11v-2.97h1.24h1.46h2.24h1.46h0.39l1.46-0.01
		h0.39h1.46h0.39h1.46h0.39h1.46h0.39h1.46h0.39h1.46h0.39h1.46h0.39h1.46h0.39h1.46h0.48h1.37h0.39h1.46h1.11l0,3.08l0,0
		L163.45,98.48z"/>
	<path id="Path-385" class="st20" d="M136.83,95.44v4.86c-0.07-0.05-0.13-0.09-0.19-0.14c-0.07-0.05-0.13-0.1-0.19-0.15v-4.57
		H136.83z"/>
	<path id="Path-386" class="st20" d="M138.68,95.44v5.78c-0.13-0.05-0.26-0.1-0.39-0.15v-5.63H138.68z"/>
	<path id="Path-387" class="st20" d="M140.53,95.43v6.37l-0.27-0.07l-0.11-0.04v-6.26H140.53z"/>
	<path id="Path-388" class="st20" d="M142.38,95.43v6.78c-0.13-0.02-0.26-0.05-0.39-0.08v-6.7H142.38z"/>
	<path id="Path-389" class="st20" d="M144.22,95.43v7.07c-0.13-0.02-0.26-0.03-0.39-0.05v-7.01H144.22z"/>
	<path id="Path-390" class="st20" d="M146.07,95.43v7.26l-0.39-0.03v-7.22H146.07z"/>
	<path id="Path-391" class="st20" d="M147.92,95.42v7.36l-0.39-0.01v-7.35H147.92z"/>
	<path id="Path-392" class="st20" d="M149.77,95.42v7.39h-0.39v-7.39H149.77z"/>
	<path id="Path-393" class="st20" d="M151.62,95.42v7.35l-0.39,0.02v-7.36H151.62z"/>
	<path id="Path-394" class="st20" d="M153.47,95.41v7.22l-0.39,0.03v-7.26H153.47z"/>
	<path id="Path-395" class="st20" d="M155.32,95.41v7.01c-0.13,0.02-0.26,0.04-0.39,0.05v-7.07H155.32z"/>
	<path id="Path-396" class="st20" d="M157.17,95.41v6.7c-0.13,0.03-0.26,0.05-0.39,0.08v-6.78H157.17z"/>
	<path id="Path-397" class="st20" d="M159.02,95.41v6.25c-0.13,0.04-0.26,0.07-0.39,0.11v-6.36H159.02z"/>
	<path id="Path-398" class="st20" d="M160.87,95.4v5.61c-0.13,0.05-0.25,0.11-0.39,0.16V95.4H160.87z"/>
	<path id="Path-399" class="st20" d="M162.72,95.4v4.5c-0.12,0.11-0.25,0.21-0.39,0.31V95.4H162.72z"/>
	<path id="Path-400" class="st21" d="M163.45,95.44c0,2.18-6.24,3.95-13.93,3.95c-1.05,0-2.08-0.03-3.06-0.1
		c-1.24-0.08-2.41-0.2-3.5-0.37c-0.97-0.14-1.88-0.33-2.7-0.53c-0.25-0.07-0.49-0.13-0.72-0.2c-0.88-0.24-1.73-0.58-2.54-1.02
		c-0.13-0.07-0.25-0.15-0.36-0.22c-0.58-0.3-0.97-0.86-1.05-1.51c0-0.05,0-0.1,0.01-0.15c0.27-2.11,6.4-3.8,13.92-3.8
		c1.75,0,3.5,0.09,5.23,0.29c0.31,0.04,0.62,0.07,0.92,0.12c1.2,0.16,2.38,0.4,3.55,0.71c0.23,0.06,0.45,0.13,0.66,0.2
		c0.67,0.2,1.33,0.47,1.95,0.79c0.47,0.23,0.9,0.55,1.25,0.95c0.19,0.21,0.31,0.47,0.35,0.75
		C163.44,95.34,163.45,95.39,163.45,95.44z"/>
	<path id="Path-401" class="st22" d="M163.08,94.54l-16.63,4.75c-1.23-0.08-2.41-0.2-3.5-0.37l18.88-5.33
		C162.3,93.82,162.73,94.14,163.08,94.54z"/>
	<path id="Path-402" class="st22" d="M155.67,91.89L137,97.17c-0.13-0.07-0.25-0.15-0.36-0.22l18.11-5.17
		C155.06,91.81,155.37,91.85,155.67,91.89z"/>
	<path id="Path-403" class="st22" d="M159.88,92.8l-19.62,5.58c-0.25-0.06-0.49-0.13-0.73-0.2l19.68-5.59
		C159.44,92.67,159.66,92.73,159.88,92.8z"/>
	<path id="Path-404" class="st20" d="M160.65,95.44c0,0.05,0,0.1-0.01,0.14c-0.27,1.67-5.16,3.01-11.12,3.01
		c-5.96,0-10.86-1.34-11.12-3.01c-0.01-0.05-0.01-0.1-0.01-0.14c0-1.74,4.99-3.16,11.13-3.16C155.65,92.28,160.65,93.7,160.65,95.44
		z"/>
	<path id="Path-405" class="st19" d="M160.64,95.58c-0.27,1.67-5.16,3.01-11.12,3.01h-0.4c-1.26-0.01-2.52-0.09-3.78-0.23
		c-1.07-0.12-2.14-0.31-3.18-0.56c-0.24-0.06-0.47-0.12-0.69-0.19c-0.83-0.22-1.61-0.57-2.33-1.04c-0.12-0.09-0.23-0.18-0.34-0.29
		c-0.21-0.19-0.35-0.44-0.41-0.71c0.27-1.67,5.15-3.01,11.12-3.01c0.76,0,1.49,0.02,2.21,0.06c0.36,0.02,0.72,0.05,1.07,0.08
		c1.3,0.11,2.6,0.31,3.87,0.6c0.24,0.06,0.48,0.12,0.7,0.18c0.75,0.2,1.47,0.48,2.15,0.85c0.44,0.22,0.81,0.57,1.05,1
		C160.6,95.42,160.63,95.5,160.64,95.58z"/>
	<path id="Path-406" class="st23" d="M160.57,95.34l-11.45,3.25c-1.26-0.01-2.52-0.09-3.78-0.23l14.18-4.02
		C159.97,94.56,160.33,94.91,160.57,95.34z"/>
	<path id="Path-407" class="st23" d="M152.8,92.71l-13.66,3.87c-0.12-0.09-0.23-0.18-0.34-0.28l12.92-3.66
		C152.09,92.66,152.44,92.68,152.8,92.71z"/>
	<path id="Path-408" class="st23" d="M157.37,93.49l-15.21,4.31c-0.24-0.06-0.47-0.12-0.69-0.19l15.2-4.31
		C156.91,93.37,157.14,93.43,157.37,93.49z"/>
	<path id="Path-409" class="st20" d="M151.06,97.23v0.52h-2.35v-0.5c-1.43-0.01-2.87-0.12-4.28-0.33l1.27-0.81
		c1.27,0.2,2.56,0.3,3.85,0.3c1.12,0,1.52-0.07,1.52-0.18c0-0.42-6.45-0.08-6.45-1.31c0-0.53,1.37-0.98,4.1-1.09v-0.51h2.35v0.51
		c1.13,0.02,2.26,0.11,3.38,0.27l-1.18,0.81c-1.08-0.16-2.16-0.24-3.25-0.24c-1.15,0-1.52,0.09-1.52,0.21c0,0.4,6.45,0.07,6.45,1.28
		C154.95,96.66,153.65,97.1,151.06,97.23z"/>
	<path id="Path-410" class="st21" d="M151,97.05v0.52h-2.35v-0.5c-1.43-0.01-2.87-0.12-4.28-0.33l1.27-0.81
		c1.27,0.2,2.56,0.3,3.85,0.3c1.12,0,1.52-0.07,1.52-0.18c0-0.42-6.45-0.08-6.45-1.31c0-0.53,1.37-0.98,4.1-1.09v-0.52H151v0.51
		c1.13,0.02,2.26,0.11,3.38,0.27l-1.18,0.81c-1.08-0.16-2.16-0.24-3.25-0.25c-1.15,0-1.52,0.1-1.52,0.21c0,0.4,6.45,0.07,6.45,1.29
		C154.88,96.48,153.58,96.93,151,97.05z"/>
	<path id="Path-411" class="st19" d="M161.32,93.63c0,0.01,0,0.03,0,0.04c-0.04,0.54-0.3,1.05-0.73,1.38
		c-0.12,0.11-0.25,0.21-0.39,0.31c-0.46,0.32-0.95,0.59-1.46,0.8c-0.13,0.05-0.25,0.11-0.39,0.16c-0.45,0.18-0.94,0.34-1.46,0.49
		c-0.13,0.04-0.26,0.07-0.39,0.11c-0.46,0.12-0.95,0.24-1.46,0.34c-0.13,0.03-0.26,0.05-0.39,0.08c-0.47,0.09-0.96,0.17-1.46,0.24
		l-0.39,0.05c-0.47,0.06-0.96,0.12-1.46,0.16l-0.39,0.03c-0.48,0.04-0.97,0.07-1.46,0.09l-0.39,0.02c-0.48,0.02-0.97,0.03-1.46,0.03
		h-0.39c-0.49,0-0.98-0.01-1.46-0.03l-0.39-0.02c-0.37-0.02-0.73-0.04-1.08-0.06l-0.38-0.02l-0.39-0.03
		c-0.5-0.04-0.99-0.1-1.46-0.16c-0.13-0.02-0.26-0.03-0.39-0.05c-0.3-0.04-0.6-0.09-0.89-0.13c-0.19-0.03-0.38-0.06-0.57-0.1
		l-0.39-0.07c-0.51-0.1-1-0.21-1.47-0.34l-0.27-0.07l-0.11-0.03c-0.21-0.06-0.41-0.12-0.61-0.18c-0.3-0.1-0.58-0.2-0.85-0.3
		c-0.13-0.05-0.26-0.1-0.39-0.15c-0.45-0.18-0.89-0.4-1.3-0.66c-0.06-0.04-0.11-0.07-0.17-0.11c-0.05-0.04-0.13-0.09-0.19-0.14
		c-0.06-0.05-0.13-0.1-0.19-0.15c-0.5-0.34-0.81-0.89-0.86-1.49c0-0.04,0-0.07,0.01-0.11v-2.97h1.24h1.46h2.24h1.46h0.39h1.46h0.39
		h1.46h0.39h1.46h0.39h1.46h0.39h1.46h0.39h1.46h0.39h1.46h0.39h1.46h0.39h1.46h0.48l1.36-0.04h0.39h1.46h1.11L161.32,93.63
		L161.32,93.63L161.32,93.63z"/>
	<path id="Path-412" class="st20" d="M134.7,90.59v4.86c-0.07-0.05-0.13-0.09-0.19-0.14c-0.06-0.05-0.13-0.1-0.19-0.15v-4.57H134.7z
		"/>
	<path id="Path-413" class="st20" d="M136.55,90.59v5.78c-0.13-0.05-0.26-0.1-0.39-0.15v-5.63H136.55z"/>
	<path id="Path-414" class="st20" d="M138.4,90.58v6.37l-0.27-0.07l-0.12-0.04v-6.26H138.4z"/>
	<path id="Path-415" class="st20" d="M140.25,90.58v6.78c-0.13-0.02-0.26-0.05-0.39-0.08v-6.7H140.25z"/>
	<path id="Path-416" class="st20" d="M142.1,90.58v7.07c-0.13-0.02-0.26-0.03-0.39-0.05v-7.01H142.1z"/>
	<path id="Path-417" class="st20" d="M143.95,90.58v7.26l-0.39-0.03v-7.22H143.95z"/>
	<path id="Path-418" class="st20" d="M145.8,90.57v7.36l-0.39-0.01v-7.35H145.8z"/>
	<path id="Path-419" class="st20" d="M147.65,90.57v7.39h-0.39v-7.39H147.65z"/>
	<path id="Path-420" class="st20" d="M149.5,90.57v7.35l-0.39,0.02v-7.36H149.5z"/>
	<path id="Path-421" class="st20" d="M151.35,90.56v7.22l-0.39,0.03v-7.26H151.35z"/>
	<path id="Path-422" class="st20" d="M153.2,90.56v7.01l-0.39,0.05v-7.07H153.2z"/>
	<path id="Path-423" class="st20" d="M155.05,90.56v6.7c-0.13,0.03-0.26,0.05-0.39,0.08v-6.78H155.05z"/>
	<path id="Path-424" class="st20" d="M156.9,90.56v6.25c-0.13,0.04-0.26,0.07-0.39,0.11v-6.36H156.9z"/>
	<path id="Path-425" class="st20" d="M158.74,90.55v5.61c-0.12,0.05-0.25,0.11-0.39,0.16v-5.77H158.74z"/>
	<path id="Path-426" class="st20" d="M160.59,90.55v4.5c-0.12,0.11-0.25,0.22-0.39,0.31v-4.81H160.59z"/>
	<path id="Path-427" class="st21" d="M161.32,90.59c0,2.18-6.24,3.95-13.93,3.95c-1.05,0-2.08-0.03-3.06-0.1
		c-1.24-0.08-2.41-0.2-3.5-0.37c-0.97-0.14-1.88-0.33-2.7-0.53c-0.25-0.06-0.49-0.13-0.72-0.2c-0.88-0.24-1.73-0.58-2.54-1.02
		c-0.13-0.07-0.25-0.15-0.36-0.22c-0.58-0.3-0.97-0.86-1.05-1.51c0-0.05,0-0.1,0.01-0.15c0.27-2.11,6.4-3.8,13.92-3.8
		c1.75,0,3.5,0.09,5.23,0.29c0.31,0.04,0.62,0.07,0.92,0.12c1.2,0.16,2.38,0.4,3.55,0.71c0.23,0.06,0.45,0.13,0.66,0.19
		c0.67,0.2,1.33,0.47,1.95,0.79c0.47,0.23,0.9,0.55,1.25,0.95c0.19,0.21,0.31,0.48,0.35,0.76
		C161.32,90.49,161.32,90.54,161.32,90.59z"/>
	<path id="Path-428" class="st22" d="M160.96,89.69l-16.63,4.75c-1.23-0.08-2.41-0.2-3.5-0.37l18.88-5.33
		C160.18,88.97,160.6,89.29,160.96,89.69z"/>
	<path id="Path-429" class="st22" d="M153.54,87.04l-18.67,5.28c-0.13-0.07-0.25-0.15-0.36-0.22l18.11-5.17
		C152.94,86.96,153.24,87,153.54,87.04z"/>
	<path id="Path-430" class="st22" d="M157.75,87.95l-19.62,5.58c-0.25-0.06-0.49-0.13-0.73-0.2l19.68-5.58
		C157.32,87.82,157.54,87.88,157.75,87.95z"/>
	<path id="Path-431" class="st20" d="M158.53,90.59c0,0.05,0,0.1-0.01,0.15c-0.27,1.67-5.16,3.01-11.12,3.01
		c-5.96,0-10.86-1.34-11.12-3.01c-0.01-0.05-0.01-0.1-0.01-0.14c0-1.74,4.99-3.16,11.13-3.16
		C153.53,87.43,158.53,88.85,158.53,90.59z"/>
	<path id="Path-432" class="st19" d="M158.52,90.73c-0.27,1.67-5.16,3.01-11.12,3.01h-0.4c-1.26-0.01-2.52-0.09-3.78-0.23
		c-1.07-0.12-2.14-0.3-3.18-0.56c-0.24-0.06-0.47-0.12-0.69-0.19c-0.83-0.22-1.61-0.57-2.33-1.04c-0.12-0.09-0.23-0.18-0.34-0.29
		c-0.21-0.19-0.35-0.44-0.41-0.71c0.27-1.67,5.16-3.01,11.12-3.01c0.76,0,1.49,0.02,2.21,0.06c0.36,0.02,0.72,0.05,1.07,0.08
		c1.3,0.11,2.6,0.31,3.87,0.6c0.24,0.06,0.48,0.12,0.7,0.18c0.75,0.2,1.47,0.48,2.15,0.85c0.44,0.22,0.81,0.57,1.05,1
		C158.48,90.57,158.5,90.65,158.52,90.73z"/>
	<path id="Path-433" class="st23" d="M158.45,90.49l-11.45,3.25c-1.26-0.01-2.52-0.09-3.78-0.23l14.18-4.02
		C157.84,89.71,158.21,90.06,158.45,90.49z"/>
	<path id="Path-434" class="st23" d="M150.67,87.86l-13.66,3.87c-0.12-0.09-0.23-0.18-0.34-0.28l12.92-3.66
		C149.96,87.81,150.32,87.83,150.67,87.86z"/>
	<path id="Path-435" class="st23" d="M155.24,88.64l-15.21,4.31c-0.24-0.06-0.47-0.12-0.69-0.19l15.2-4.31
		C154.78,88.52,155.02,88.58,155.24,88.64z"/>
	<path id="Path-436" class="st20" d="M148.94,92.38v0.52h-2.35v-0.5c-1.43-0.01-2.87-0.12-4.28-0.33l1.27-0.81
		c1.27,0.2,2.56,0.3,3.85,0.3c1.12,0,1.52-0.07,1.52-0.18c0-0.42-6.45-0.08-6.45-1.31c0-0.53,1.37-0.98,4.1-1.09v-0.52h2.35v0.51
		c1.13,0.02,2.26,0.11,3.38,0.27l-1.18,0.81c-1.08-0.16-2.16-0.24-3.25-0.24c-1.15,0-1.52,0.09-1.52,0.21c0,0.4,6.45,0.07,6.45,1.28
		C152.82,91.81,151.52,92.25,148.94,92.38z"/>
	<path id="Path-437" class="st21" d="M148.87,92.2v0.53h-2.35v-0.5c-1.43-0.01-2.86-0.12-4.28-0.33l1.27-0.81
		c1.27,0.2,2.56,0.3,3.85,0.3c1.12,0,1.52-0.07,1.52-0.18c0-0.42-6.45-0.08-6.45-1.31c0-0.53,1.37-0.98,4.1-1.09v-0.52h2.35v0.5
		c1.13,0.02,2.26,0.11,3.38,0.27l-1.18,0.81c-1.08-0.16-2.16-0.24-3.25-0.25c-1.15,0-1.52,0.1-1.52,0.21c0,0.4,6.45,0.07,6.45,1.29
		C152.75,91.63,151.45,92.08,148.87,92.2z"/>
	<path id="Path-438" class="st6" d="M118.52,100.95c-9.44,2.11-14.26-2.27-14.92-2.91c0,0-0.01-0.07-0.04-0.04
		c-0.03-0.03-0.04,0.04-0.04,0.04c-0.64,0.65-5.41,5.1-14.87,3.1c0,0-1.33,17.09,4.23,24.02c5.94,7.4,10.92,9.62,10.94,9.6
		c0.03,0.02,5.02-2.22,10.8-9.74C120.05,117.98,118.52,100.95,118.52,100.95z"/>
	<path id="Path-439" class="st14" d="M117.15,102.71c-8.56,1.88-12.94-2.02-13.53-2.59c0,0-0.01-0.06-0.04-0.04
		c-0.02-0.02-0.03,0.04-0.03,0.04c-0.58,0.58-4.91,4.54-13.49,2.76c0,0-1.21,15.21,3.83,21.38c5.39,6.59,9.9,8.97,9.93,8.96
		c0.02,0.02,4.55-2.38,9.81-9.08C118.53,117.88,117.15,102.71,117.15,102.71z"/>
	<g id="Group-6" transform="translate(87.003 96.599)" class="st24">
		<path id="Path-440" class="st25" d="M16.55,5.02c0,0,0.01-0.06,0.04-0.04c0.02-0.02,0.04,0.04,0.04,0.04
			c0.61,0.59,5.03,4.53,13.65,2.82c-0.05-1.55-0.14-2.52-0.14-2.52C21.58,7.21,17.2,3.31,16.61,2.73c0,0-0.01-0.06-0.03-0.04
			c-0.02-0.02-0.04,0.04-0.04,0.04c-0.58,0.58-4.9,4.54-13.49,2.76c0,0-0.08,0.97-0.11,2.52C11.59,9.62,15.95,5.62,16.55,5.02z"/>
	</g>
	<path id="Path-441" class="st7" d="M114.64,106.95c-6.47,1.45-10.55-1.71-11-2.15c0,0-0.01-0.04-0.03-0.03
		c-0.02-0.02-0.03,0.03-0.03,0.03c-0.44,0.45-4.44,3.65-10.92,2.28c0,0-0.18,11.56,3.63,16.32c4.07,5.08,7.48,6.6,7.5,6.58
		c0.02,0.01,3.44-1.52,7.41-6.68C114.91,118.48,114.64,106.95,114.64,106.95z"/>
	<path id="Path-442" class="st6" d="M98.84,117.33c0.1,0.15,0.69,0.8,1.46,1.69c0.92,1.06,1.96,2.26,2.08,2.4
		c0.22,0.25,0.39,0.08,0.72-0.57c0.79-1.64,1.71-3.21,2.76-4.69c1.15-1.51,2.43-2.91,3.84-4.18c0.48-0.37,0.7-0.62,0.38-0.75
		c-0.32-0.13-2.81,1.59-4.27,3.14c-1.56,1.65-3.26,4.35-3.68,4.41c-0.86-0.37-1.68-0.85-2.43-1.42
		C99.18,117.02,98.59,116.92,98.84,117.33z"/>
</g>
</svg>
